Grade -1 UC.ufo
<glyph name="quotedbl" format="2">
  <advance width="805"/>
  <unicode hex="0022"/>
  <outline>
    <contour>
      <point x="233.30666666666664" y="964.0" type="line"/>
      <point x="178.02666666666667" y="1434.8666666666668" type="line"/>
      <point x="176.69333333333336" y="1486.2"/>
      <point x="211.64" y="1558.0"/>
      <point x="254.58666666666667" y="1558.0" type="qcurve" smooth="yes"/>
      <point x="297.4733333333333" y="1558.0"/>
      <point x="332.42" y="1486.2"/>
      <point x="331.7533333333334" y="1434.8666666666668" type="qcurve"/>
      <point x="275.14" y="964.0" type="line"/>
    </contour>
    <contour>
      <point x="528.7066666666666" y="964.0" type="line"/>
      <point x="472.76" y="1434.8666666666668" type="line"/>
      <point x="472.09333333333336" y="1486.2"/>
      <point x="507.04" y="1558.0"/>
      <point x="549.9866666666667" y="1558.0" type="qcurve" smooth="yes"/>
      <point x="592.8733333333333" y="1558.0"/>
      <point x="627.82" y="1486.2"/>
      <point x="627.1533333333334" y="1434.8666666666668" type="qcurve"/>
      <point x="570.54" y="964.0" type="line"/>
    </contour>
  </outline>
</glyph>
<glyph name="asterisk" format="2">
  <advance width="840"/>
  <unicode hex="002A"/>
  <outline>
    <contour>
      <point x="420.1533333333333" y="698.04" type="qcurve" smooth="yes"/>
      <point x="383.0266666666667" y="698.04"/>
      <point x="352.1133333333333" y="756.6533333333334"/>
      <point x="361.66" y="800.1733333333334" type="qcurve" smooth="yes"/>
      <point x="410.0" y="1100.32" type="line"/>
      <point x="407.6666666666667" y="1101.9866666666667" type="line"/>
      <point x="171.86" y="910.18" type="line" smooth="yes"/>
      <point x="142.1" y="884.1466666666666"/>
      <point x="73.39333333333333" y="875.54"/>
      <point x="53.96666666666666" y="910.0" type="qcurve" smooth="yes"/>
      <point x="33.6" y="944.1866666666666"/>
      <point x="75.06" y="998.8"/>
      <point x="112.7" y="1011.4066666666666" type="qcurve" smooth="yes"/>
      <point x="396.8466666666667" y="1119.08" type="line"/>
      <point x="396.5133333333333" y="1123.02" type="line"/>
      <point x="112.7" y="1231.36" type="line" smooth="yes"/>
      <point x="75.06" y="1243.9066666666668"/>
      <point x="33.6" y="1299.1866666666667"/>
      <point x="53.96666666666666" y="1333.6466666666668" type="qcurve" smooth="yes"/>
      <point x="73.39333333333333" y="1367.1666666666667"/>
      <point x="142.1" y="1359.2866666666666"/>
      <point x="171.86" y="1333.1933333333332" type="qcurve" smooth="yes"/>
      <point x="407.0" y="1140.72" type="line"/>
      <point x="409.0" y="1143.0533333333333" type="line"/>
      <point x="361.66" y="1443.2" type="line" smooth="yes"/>
      <point x="352.1133333333333" y="1487.0533333333333"/>
      <point x="383.6933333333333" y="1545.3333333333333"/>
      <point x="420.1533333333333" y="1545.3333333333333" type="qcurve" smooth="yes"/>
      <point x="457.94666666666666" y="1545.3333333333333"/>
      <point x="488.1933333333333" y="1486.0533333333333"/>
      <point x="479.31333333333333" y="1443.2" type="qcurve" smooth="yes"/>
      <point x="430.3666666666667" y="1143.0533333333333" type="line"/>
      <point x="432.9733333333333" y="1140.72" type="line"/>
      <point x="668.78" y="1333.1933333333332" type="line" smooth="yes"/>
      <point x="698.8733333333333" y="1359.2866666666666"/>
      <point x="767.64" y="1367.1666666666667"/>
      <point x="786.34" y="1333.3733333333332" type="qcurve" smooth="yes"/>
      <point x="806.7066666666666" y="1299.1866666666667"/>
      <point x="765.58" y="1243.9066666666668"/>
      <point x="727.6066666666667" y="1231.36" type="qcurve" smooth="yes"/>
      <point x="443.46" y="1123.6266666666668" type="line"/>
      <point x="443.7933333333333" y="1119.6866666666667" type="line"/>
      <point x="727.6066666666667" y="1011.4066666666666" type="line" smooth="yes"/>
      <point x="765.58" y="998.8"/>
      <point x="806.7066666666666" y="944.1866666666666"/>
      <point x="786.34" y="909.06" type="qcurve" smooth="yes"/>
      <point x="767.64" y="875.54"/>
      <point x="698.8733333333333" y="884.1466666666666"/>
      <point x="668.78" y="910.18" type="qcurve" smooth="yes"/>
      <point x="433.3066666666667" y="1101.9866666666667" type="line"/>
      <point x="431.64" y="1100.32" type="line"/>
      <point x="479.31333333333333" y="800.1733333333334" type="line" smooth="yes"/>
      <point x="487.86" y="756.6533333333334"/>
      <point x="459.28" y="698.04"/>
    </contour>
  </outline>
</glyph>
<glyph name="period" format="2">
  <advance width="561"/>
  <unicode hex="002E"/>
  <outline>
    <contour>
      <point x="172.93333333333334" y="86.40666666666667" type="qcurve" smooth="yes"/>
      <point x="172.93333333333334" y="129.2"/>
      <point x="233.21333333333334" y="192.42"/>
      <point x="280.28" y="192.42" type="qcurve" smooth="yes"/>
      <point x="327.4066666666667" y="192.42"/>
      <point x="387.68666666666667" y="129.2"/>
      <point x="387.68666666666667" y="86.40666666666667" type="qcurve" smooth="yes"/>
      <point x="387.68666666666667" y="43.88666666666667"/>
      <point x="327.4066666666667" y="-19.333333333333332"/>
      <point x="280.28" y="-19.333333333333332" type="qcurve"/>
      <point x="233.21333333333334" y="-19.333333333333332"/>
      <point x="172.93333333333334" y="43.88666666666667"/>
    </contour>
  </outline>
</glyph>
<glyph name="seven" format="2">
  <advance width="925"/>
  <unicode hex="0037"/>
  <outline>
    <contour>
      <point x="47.8" y="1135.4333333333332" type="line"/>
      <point x="54.89333333333334" y="1500.0" type="line"/>
      <point x="907.96" y="1500.0" type="line"/>
      <point x="907.96" y="1419.6666666666667" type="line"/>
      <point x="585.6733333333334" y="639.4066666666666" type="line"/>
      <point x="331.8933333333334" y="-32.93333333333333" type="line"/>
      <point x="230.10666666666665" y="-32.93333333333333" type="line"/>
      <point x="230.10666666666665" y="19.4" type="line"/>
      <point x="508.21333333333337" y="668.8333333333334" type="line"/>
      <point x="800.14" y="1378.4533333333331" type="line"/>
      <point x="781.5266666666666" y="1396.3" type="line"/>
      <point x="152.77333333333334" y="1396.3" type="line"/>
      <point x="120.71333333333334" y="1135.4333333333332" type="line"/>
    </contour>
  </outline>
</glyph>
<glyph name="less" format="2">
  <advance width="987"/>
  <unicode hex="003C"/>
  <outline>
    <contour>
      <point x="169.64666666666665" y="634.0" type="qcurve"/>
      <point x="170.64666666666665" y="635.3333333333334"/>
      <point x="646.5266666666666" y="1019.86"/>
      <point x="717.26" y="1077.0133333333333" type="qcurve" smooth="yes"/>
      <point x="755.9933333333333" y="1108.2266666666667"/>
      <point x="807.12" y="1049.2266666666667"/>
      <point x="770.48" y="1015.4066666666666" type="qcurve" smooth="yes"/>
      <point x="632.3466666666666" y="890.2466666666667"/>
      <point x="322.4666666666667" y="637.1066666666667"/>
      <point x="319.6333333333334" y="635.6666666666666" type="qcurve"/>
      <point x="322.8866666666667" y="634.0466666666666"/>
      <point x="631.9533333333334" y="385.0866666666667"/>
      <point x="768.8733333333333" y="261.2" type="qcurve" smooth="yes"/>
      <point x="805.7866666666666" y="227.5"/>
      <point x="757.3266666666666" y="167.16666666666666"/>
      <point x="718.5333333333334" y="198.32" type="qcurve" smooth="yes"/>
      <point x="647.8" y="256.8066666666667"/>
      <point x="170.31333333333333" y="632.7266666666666"/>
    </contour>
  </outline>
</glyph>
<glyph name="greater" format="2">
  <advance width="987"/>
  <unicode hex="003E"/>
  <outline>
    <contour>
      <point x="216.54666666666665" y="257.1933333333333" type="qcurve" smooth="yes"/>
      <point x="354.56" y="382.05333333333334"/>
      <point x="664.14" y="634.7133333333334"/>
      <point x="667.3933333333333" y="636.3333333333334" type="qcurve"/>
      <point x="664.56" y="637.7733333333334"/>
      <point x="355.1933333333333" y="887.2733333333334"/>
      <point x="218.15333333333334" y="1011.46" type="qcurve" smooth="yes"/>
      <point x="181.24" y="1045.28"/>
      <point x="229.82" y="1105.3733333333332"/>
      <point x="268.55333333333334" y="1074.28" type="qcurve" smooth="yes"/>
      <point x="339.2866666666667" y="1015.9133333333334"/>
      <point x="816.6533333333334" y="638.9733333333334"/>
      <point x="817.38" y="637.64" type="qcurve"/>
      <point x="816.44" y="636.3666666666667"/>
      <point x="340.44" y="252.86"/>
      <point x="269.7066666666667" y="195.58666666666664" type="qcurve" smooth="yes"/>
      <point x="230.91333333333336" y="164.31333333333333"/>
      <point x="179.90666666666667" y="223.49333333333334"/>
    </contour>
  </outline>
</glyph>
<glyph name="question" format="2">
  <advance width="880"/>
  <unicode hex="003F"/>
  <outline>
    <contour>
      <point x="217.38666666666666" y="86.40666666666667" type="qcurve" smooth="yes"/>
      <point x="217.38666666666666" y="129.2"/>
      <point x="277.6666666666667" y="192.42"/>
      <point x="324.7333333333333" y="192.42" type="qcurve" smooth="yes"/>
      <point x="371.86" y="192.42"/>
      <point x="432.14" y="129.2"/>
      <point x="432.14" y="86.40666666666667" type="qcurve" smooth="yes"/>
      <point x="432.14" y="43.88666666666667"/>
      <point x="371.86" y="-19.333333333333332"/>
      <point x="324.7333333333333" y="-19.333333333333332" type="qcurve" smooth="yes"/>
      <point x="277.6666666666667" y="-19.333333333333332"/>
      <point x="217.38666666666666" y="43.88666666666667"/>
    </contour>
    <contour>
      <point x="66.58" y="1280.6666666666667" type="qcurve" smooth="yes"/>
      <point x="66.58" y="1391.0"/>
      <point x="287.12" y="1540.0"/>
      <point x="462.66" y="1540.0" type="qcurve" smooth="yes"/>
      <point x="635.32" y="1540.0"/>
      <point x="856.82" y="1355.3333333333333"/>
      <point x="856.82" y="1179.6666666666667" type="qcurve" smooth="yes"/>
      <point x="856.82" y="1011.5466666666666"/>
      <point x="663.5933333333334" y="815.0466666666666"/>
      <point x="544.7266666666666" y="753.0" type="qcurve" smooth="yes"/>
      <point x="461.8666666666667" y="710.2733333333334"/>
      <point x="354.3466666666667" y="604.3333333333334"/>
      <point x="354.3466666666667" y="518.64" type="qcurve" smooth="yes"/>
      <point x="354.3466666666667" y="418.6666666666667" type="line"/>
      <point x="288.28" y="418.6666666666667" type="line"/>
      <point x="278.12666666666667" y="503.0" type="line" smooth="yes"/>
      <point x="267.4866666666667" y="598.0"/>
      <point x="378.75333333333333" y="752.7333333333333"/>
      <point x="491.06" y="818.0" type="qcurve" smooth="yes"/>
      <point x="602.7066666666666" y="882.6066666666667"/>
      <point x="743.9666666666666" y="1027.8066666666668"/>
      <point x="743.9666666666666" y="1174.3333333333333" type="qcurve" smooth="yes"/>
      <point x="743.9666666666666" y="1316.0"/>
      <point x="576.22" y="1463.0"/>
      <point x="447.1133333333333" y="1463.0" type="qcurve" smooth="yes"/>
      <point x="321.8866666666667" y="1463.0"/>
      <point x="162.23333333333335" y="1380.6666666666667"/>
      <point x="162.23333333333335" y="1336.3333333333333" type="qcurve" smooth="yes"/>
      <point x="162.23333333333335" y="1314.0"/>
      <point x="256.4" y="1261.3333333333333"/>
      <point x="257.7333333333333" y="1223.6666666666667" type="qcurve" smooth="yes"/>
      <point x="259.34" y="1192.3333333333333"/>
      <point x="215.12" y="1146.3333333333333"/>
      <point x="172.50666666666666" y="1146.3333333333333" type="qcurve" smooth="yes"/>
      <point x="121.95333333333333" y="1146.3333333333333"/>
      <point x="66.58" y="1216.6666666666667"/>
    </contour>
  </outline>
</glyph>
<glyph name="B" format="2">
  <advance width="1239"/>
  <unicode hex="0042"/>
  <outline>
    <contour>
      <point x="83.24" y="0.0" type="line"/>
      <point x="83.24" y="65.09333333333335" type="line"/>
      <point x="301.5733333333333" y="100.36666666666667" type="line"/>
      <point x="303.5733333333333" y="786.2" type="line"/>
      <point x="302.24" y="1397.0266666666666" type="line"/>
      <point x="83.24" y="1431.0266666666666" type="line"/>
      <point x="83.24" y="1500.0" type="line"/>
      <point x="668.9333333333334" y="1500.0" type="line" smooth="yes"/>
      <point x="866.7666666666667" y="1500.0"/>
      <point x="1058.7266666666667" y="1319.0"/>
      <point x="1058.7266666666667" y="1170.9733333333334" type="qcurve" smooth="yes"/>
      <point x="1058.7266666666667" y="1028.6533333333332"/>
      <point x="918.9266666666666" y="850.6066666666667"/>
      <point x="818.7133333333334" y="830.6666666666666" type="qcurve"/>
      <point x="818.7133333333334" y="825.0" type="line"/>
      <point x="961.92" y="806.4866666666667"/>
      <point x="1163.0466666666669" y="614.0"/>
      <point x="1163.0466666666669" y="439.0" type="qcurve" smooth="yes"/>
      <point x="1163.0466666666669" y="239.33333333333334"/>
      <point x="907.0333333333334" y="0.0"/>
      <point x="692.84" y="0.0" type="qcurve" smooth="yes"/>
    </contour>
    <contour>
      <point x="413.58" y="96.33333333333334" type="line"/>
      <point x="444.04" y="78.33333333333334" type="line"/>
      <point x="658.7933333333334" y="77.66666666666667" type="line" smooth="yes"/>
      <point x="842.1" y="77.0"/>
      <point x="1043.5866666666668" y="253.0"/>
      <point x="1043.5866666666668" y="440.0" type="qcurve" smooth="yes"/>
      <point x="1043.5866666666668" y="596.0"/>
      <point x="867.4133333333334" y="768.6666666666666"/>
      <point x="711.1266666666667" y="768.6666666666666" type="qcurve" smooth="yes"/>
      <point x="418.46" y="768.6666666666666" type="line"/>
      <point x="412.24666666666667" y="756.6666666666666" type="line"/>
    </contour>
    <contour>
      <point x="411.9733333333333" y="856.0" type="line"/>
      <point x="420.12666666666667" y="844.0" type="line"/>
      <point x="664.1733333333334" y="844.0" type="line" smooth="yes"/>
      <point x="790.8533333333334" y="844.0"/>
      <point x="942.48" y="1005.0"/>
      <point x="942.48" y="1150.3333333333333" type="qcurve" smooth="yes"/>
      <point x="942.48" y="1284.5733333333333"/>
      <point x="793.0333333333334" y="1417.3333333333333"/>
      <point x="645.4533333333334" y="1417.3333333333333" type="qcurve" smooth="yes"/>
      <point x="446.04" y="1417.3333333333333" type="line"/>
      <point x="414.24666666666667" y="1398.0" type="line"/>
    </contour>
  </outline>
</glyph>
<glyph name="D" format="2">
  <advance width="1559"/>
  <unicode hex="0044"/>
  <outline>
    <contour>
      <point x="83.24" y="0.0" type="line"/>
      <point x="83.24" y="65.03333333333335" type="line"/>
      <point x="301.5733333333333" y="100.03333333333335" type="line"/>
      <point x="303.5733333333333" y="754.0" type="line"/>
      <point x="301.5733333333333" y="1397.0266666666666" type="line"/>
      <point x="83.24" y="1431.0266666666666" type="line"/>
      <point x="83.24" y="1500.0" type="line"/>
      <point x="705.52" y="1500.0" type="line" smooth="yes"/>
      <point x="1037.6066666666668" y="1500.0"/>
      <point x="1476.0066666666667" y="1119.0"/>
      <point x="1476.0066666666667" y="777.0" type="qcurve" smooth="yes"/>
      <point x="1476.0066666666667" y="410.0"/>
      <point x="1043.88" y="0.0"/>
      <point x="666.48" y="0.0" type="qcurve" smooth="yes"/>
    </contour>
    <contour>
      <point x="414.24666666666667" y="91.03333333333335" type="line"/>
      <point x="449.2266666666667" y="85.7"/>
      <point x="616.6" y="75.36666666666667"/>
      <point x="700.7733333333334" y="75.36666666666667" type="qcurve" smooth="yes"/>
      <point x="990.4866666666667" y="75.36666666666667"/>
      <point x="1355.12" y="421.6666666666667"/>
      <point x="1357.12" y="767.6666666666666" type="qcurve" smooth="yes"/>
      <point x="1359.06" y="1086.0"/>
      <point x="970.5133333333333" y="1422.0266666666666"/>
      <point x="659.52" y="1422.0266666666666" type="qcurve" smooth="yes"/>
      <point x="603.6266666666667" y="1422.0266666666666"/>
      <point x="454.5" y="1413.36"/>
      <point x="414.24666666666667" y="1408.36" type="qcurve"/>
      <point x="411.58" y="759.3333333333334" type="line"/>
    </contour>
  </outline>
</glyph>
<glyph name="P" format="2">
  <advance width="1248"/>
  <unicode hex="0050"/>
  <outline>
    <contour>
      <point x="71.24" y="0.0" type="line"/>
      <point x="71.24" y="65.03333333333335" type="line"/>
      <point x="301.5733333333333" y="100.58" type="line"/>
      <point x="303.5733333333333" y="759.3333333333334" type="line"/>
      <point x="302.24" y="1397.0266666666666" type="line"/>
      <point x="83.24" y="1431.0266666666666" type="line"/>
      <point x="83.24" y="1500.0" type="line"/>
      <point x="699.3" y="1500.0" type="line" smooth="yes"/>
      <point x="927.9133333333334" y="1500.0"/>
      <point x="1173.88" y="1287.3333333333333"/>
      <point x="1173.88" y="1078.6666666666667" type="qcurve" smooth="yes"/>
      <point x="1173.88" y="872.6666666666666"/>
      <point x="918.5466666666666" y="610.3333333333334"/>
      <point x="674.9333333333334" y="610.3333333333334" type="qcurve" smooth="yes"/>
      <point x="584.52" y="610.3333333333334"/>
      <point x="410.5133333333333" y="629.3333333333334"/>
      <point x="363.02" y="639.3333333333334" type="qcurve"/>
      <point x="368.50666666666666" y="711.3333333333334" type="line"/>
      <point x="426.4866666666667" y="696.3333333333334"/>
      <point x="554.7266666666666" y="686.0"/>
      <point x="654.9266666666666" y="686.0" type="qcurve" smooth="yes"/>
      <point x="840.14" y="686.0"/>
      <point x="1055.2933333333333" y="889.6666666666666"/>
      <point x="1055.2933333333333" y="1080.0" type="qcurve" smooth="yes"/>
      <point x="1055.2933333333333" y="1251.0"/>
      <point x="849.6866666666666" y="1421.3333333333333"/>
      <point x="669.9" y="1421.3333333333333" type="qcurve" smooth="yes"/>
      <point x="447.25333333333333" y="1421.3333333333333" type="line"/>
      <point x="413.8533333333333" y="1400.6666666666667" type="line"/>
      <point x="411.58" y="765.3333333333334" type="line"/>
      <point x="413.58" y="99.21333333333334" type="line"/>
      <point x="662.1066666666667" y="65.09333333333335" type="line"/>
      <point x="662.1066666666667" y="0.0" type="line"/>
    </contour>
  </outline>
</glyph>
<glyph name="Q" format="2">
  <advance width="1630"/>
  <unicode hex="0051"/>
  <outline>
    <contour>
      <point x="82.37333333333333" y="739.7" type="qcurve" smooth="yes"/>
      <point x="82.37333333333333" y="1068.12"/>
      <point x="490.08" y="1520.0"/>
      <point x="814.9" y="1520.0" type="qcurve" smooth="yes"/>
      <point x="1139.72" y="1520.0"/>
      <point x="1547.3666666666668" y="1097.12"/>
      <point x="1547.3666666666668" y="752.7866666666666" type="qcurve" smooth="yes"/>
      <point x="1547.3666666666668" y="418.1666666666667"/>
      <point x="1137.5" y="-27.453333333333333"/>
      <point x="817.6866666666666" y="-27.453333333333333" type="qcurve" smooth="yes"/>
      <point x="495.49333333333334" y="-27.453333333333333"/>
      <point x="82.37333333333333" y="402.7066666666667"/>
    </contour>
    <contour>
      <point x="198.59333333333333" y="776.8466666666666" type="qcurve" smooth="yes"/>
      <point x="199.14" y="463.2133333333333"/>
      <point x="540.7066666666666" y="54.78"/>
      <point x="817.7466666666667" y="54.78" type="qcurve" smooth="yes"/>
      <point x="1109.4266666666667" y="54.78"/>
      <point x="1431.3266666666668" y="427.00666666666666"/>
      <point x="1431.8733333333332" y="748.4533333333334" type="qcurve" smooth="yes"/>
      <point x="1432.42" y="1044.3333333333333"/>
      <point x="1098.82" y="1430.7266666666667"/>
      <point x="818.84" y="1430.7266666666667" type="qcurve" smooth="yes"/>
      <point x="524.0666666666666" y="1430.7266666666667"/>
      <point x="198.04666666666668" y="1073.3333333333333"/>
    </contour>
    <contour>
      <point x="283.32" y="-274.06666666666666" type="qcurve"/>
      <point x="236.46" y="-230.0" type="line"/>
      <point x="280.9266666666667" y="-158.66666666666666"/>
      <point x="453.62666666666667" y="-48.60666666666666"/>
      <point x="530.6133333333333" y="-39.94" type="qcurve"/>
      <point x="689.48" y="240.76666666666668" type="line"/>
      <point x="757.6266666666667" y="206.43333333333334" type="line"/>
      <point x="606.3266666666666" y="-58.82" type="line"/>
      <point x="1196.2266666666667" y="-307.7133333333333" type="line"/>
      <point x="1264.36" y="-307.7133333333333"/>
      <point x="1385.4133333333332" y="-214.31333333333333"/>
      <point x="1423.7533333333333" y="-134.98" type="qcurve"/>
      <point x="1485.76" y="-170.13333333333335" type="line"/>
      <point x="1445.5066666666667" y="-272.1333333333333"/>
      <point x="1276.5066666666667" y="-408.4666666666667"/>
      <point x="1161.9333333333332" y="-408.4666666666667" type="qcurve"/>
      <point x="550.7666666666667" y="-146.66666666666669" type="line"/>
      <point x="468.36" y="-143.33333333333334"/>
      <point x="335.12" y="-213.4"/>
    </contour>
  </outline>
</glyph>
<glyph name="W" format="2">
  <advance width="2083"/>
  <unicode hex="0057"/>
  <outline>
    <contour>
      <point x="-37.78" y="1431.0866666666668" type="line"/>
      <point x="-37.78" y="1500.0" type="line"/>
      <point x="508.86" y="1500.0" type="line"/>
      <point x="508.86" y="1431.0866666666668" type="line"/>
      <point x="283.05333333333334" y="1407.1133333333332" type="line"/>
      <point x="478.55333333333334" y="783.8466666666666" type="line"/>
      <point x="687.3" y="147.18" type="line"/>
      <point x="889.06" y="714.8" type="line"/>
      <point x="1035.3266666666668" y="1158.68" type="line"/>
      <point x="1074.7866666666666" y="1022.6666666666666" type="line"/>
      <point x="960.4333333333334" y="674.36" type="line"/>
      <point x="722.88" y="-6.0" type="line"/>
      <point x="629.2133333333334" y="-6.0" type="line"/>
      <point x="377.7933333333333" y="748.04" type="line"/>
      <point x="159.22" y="1406.9333333333332" type="line"/>
    </contour>
    <contour>
      <point x="697.4466666666666" y="1437.88" type="line"/>
      <point x="697.4466666666666" y="1500.0" type="line"/>
      <point x="1226.2533333333333" y="1500.0" type="line"/>
      <point x="1226.2533333333333" y="1437.88" type="line"/>
      <point x="1017.98" y="1412.6333333333332" type="line"/>
      <point x="1199.3866666666668" y="788.6" type="line"/>
      <point x="1399.56" y="144.75333333333333" type="line"/>
      <point x="1625.76" y="806.74" type="line"/>
      <point x="1820.74" y="1409.0266666666666" type="line"/>
      <point x="1597.58" y="1431.0266666666666" type="line"/>
      <point x="1597.58" y="1500.0" type="line"/>
      <point x="2125.92" y="1500.0" type="line"/>
      <point x="2125.92" y="1431.0266666666666" type="line"/>
      <point x="1919.2133333333334" y="1406.9933333333333" type="line"/>
      <point x="1705.16" y="779.3133333333334" type="line"/>
      <point x="1438.2866666666666" y="-6.0" type="line"/>
      <point x="1338.6466666666668" y="-6.0" type="line"/>
      <point x="1100.4733333333334" y="751.7666666666667" type="line"/>
      <point x="895.0533333333334" y="1412.4533333333331" type="line"/>
    </contour>
  </outline>
</glyph>
<glyph name="a" format="2">
  <advance width="1010"/>
  <unicode hex="0061"/>
  <outline>
    <contour>
      <point x="78.06666666666668" y="246.94666666666666" type="qcurve" smooth="yes"/>
      <point x="78.06666666666668" y="381.82"/>
      <point x="364.12666666666667" y="579.0"/>
      <point x="704.1" y="633.1533333333334" type="qcurve"/>
      <point x="708.92" y="572.1866666666666" type="line"/>
      <point x="442.91333333333336" y="528.3066666666666"/>
      <point x="191.04666666666668" y="379.02"/>
      <point x="191.04666666666668" y="257.44666666666666" type="qcurve" smooth="yes"/>
      <point x="191.04666666666668" y="164.66666666666666"/>
      <point x="299.6533333333333" y="66.6"/>
      <point x="395.12" y="66.6" type="qcurve" smooth="yes"/>
      <point x="484.7133333333333" y="66.6"/>
      <point x="647.5266666666666" y="166.73333333333335"/>
      <point x="676.9266666666666" y="224.4" type="qcurve"/>
      <point x="678.14" y="620.4866666666667" type="line" smooth="yes"/>
      <point x="678.4133333333334" y="802.66"/>
      <point x="553.9666666666666" y="940.6666666666666"/>
      <point x="450.04" y="940.6666666666666" type="qcurve" smooth="yes"/>
      <point x="356.68" y="940.6666666666666"/>
      <point x="254.2" y="897.6933333333334"/>
      <point x="228.61333333333334" y="863.5133333333333" type="qcurve"/>
      <point x="244.04" y="847.48"/>
      <point x="266.3333333333333" y="812.2066666666666"/>
      <point x="268.4866666666667" y="792.34" type="qcurve" smooth="yes"/>
      <point x="272.4" y="762.6733333333334"/>
      <point x="239.79333333333335" y="721.6666666666666"/>
      <point x="208.82" y="721.6666666666666" type="qcurve" smooth="yes"/>
      <point x="176.57333333333335" y="721.6666666666666"/>
      <point x="134.63333333333335" y="774.1866666666666"/>
      <point x="134.63333333333335" y="823.6666666666666" type="qcurve" smooth="yes"/>
      <point x="134.63333333333335" y="899.5066666666667"/>
      <point x="313.6666666666667" y="1022.0933333333334"/>
      <point x="460.72" y="1022.0933333333334" type="qcurve" smooth="yes"/>
      <point x="613.3" y="1022.0933333333334"/>
      <point x="781.3866666666667" y="839.9866666666667"/>
      <point x="782.72" y="620.8933333333333" type="qcurve" smooth="yes"/>
      <point x="785.3866666666667" y="83.0" type="line"/>
      <point x="948.96" y="53.333333333333336" type="line"/>
      <point x="948.96" y="0.0" type="line"/>
      <point x="710.6666666666666" y="0.0" type="line"/>
      <point x="686.3533333333334" y="32.67333333333334" type="line"/>
      <point x="676.9266666666666" y="145.8" type="line"/>
      <point x="641.3133333333334" y="81.8"/>
      <point x="464.9866666666667" y="-14.333333333333334"/>
      <point x="351.6333333333333" y="-14.333333333333334" type="qcurve" smooth="yes"/>
      <point x="219.91333333333336" y="-14.333333333333334"/>
      <point x="78.06666666666668" y="131.77333333333334"/>
    </contour>
  </outline>
</glyph>
<glyph name="j" format="2">
  <advance width="538"/>
  <unicode hex="006A"/>
  <outline>
    <contour>
      <point x="10.44" y="-479.3533333333333" type="qcurve"/>
      <point x="10.44" y="-400.02" type="line"/>
      <point x="124.30666666666667" y="-399.14"/>
      <point x="237.10666666666665" y="-329.6866666666666"/>
      <point x="237.10666666666665" y="-233.68666666666667" type="qcurve" smooth="yes"/>
      <point x="237.77333333333334" y="527.0" type="line"/>
      <point x="234.68" y="890.6666666666666" type="line"/>
      <point x="51.67333333333334" y="915.3333333333334" type="line"/>
      <point x="51.67333333333334" y="980.0" type="line"/>
      <point x="306.2666666666667" y="1002.0" type="line"/>
      <point x="331.99333333333334" y="1000.6666666666666" type="line"/>
      <point x="346.99333333333334" y="965.3" type="line"/>
      <point x="342.2666666666667" y="527.0" type="line"/>
      <point x="345.6" y="-225.68666666666667" type="line" smooth="yes"/>
      <point x="346.6" y="-356.02"/>
      <point x="181.30666666666664" y="-491.02"/>
    </contour>
    <contour>
      <point x="181.5533333333333" y="1324.28" type="qcurve" smooth="yes"/>
      <point x="181.5533333333333" y="1366.92"/>
      <point x="227.46666666666667" y="1415.8333333333333"/>
      <point x="271.44" y="1415.8333333333333" type="qcurve" smooth="yes"/>
      <point x="312.08" y="1415.8333333333333"/>
      <point x="361.3266666666667" y="1365.5866666666668"/>
      <point x="361.3266666666667" y="1324.28" type="qcurve" smooth="yes"/>
      <point x="361.3266666666667" y="1282.3066666666668"/>
      <point x="315.4133333333333" y="1233.3333333333333"/>
      <point x="271.44" y="1233.3333333333333" type="qcurve" smooth="yes"/>
      <point x="229.46666666666667" y="1233.3333333333333"/>
      <point x="181.5533333333333" y="1285.58"/>
    </contour>
  </outline>
</glyph>
<glyph name="m" format="2">
  <advance width="1799"/>
  <unicode hex="006D"/>
  <outline>
    <contour>
      <point x="80.86666666666667" y="0.0" type="line"/>
      <point x="80.86666666666667" y="53.333333333333336" type="line"/>
      <point x="239.32" y="83.0" type="line"/>
      <point x="241.32" y="527.0" type="line"/>
      <point x="239.32" y="888.6666666666666" type="line"/>
      <point x="71.53333333333333" y="912.0" type="line"/>
      <point x="71.53333333333333" y="979.3333333333334" type="line"/>
      <point x="301.2933333333333" y="1000.0" type="line"/>
      <point x="328.2933333333333" y="979.6666666666666" type="line"/>
      <point x="345.36" y="838.72" type="line"/>
      <point x="402.0733333333333" y="918.24"/>
      <point x="575.24" y="1020.7"/>
      <point x="691.6466666666666" y="1020.7" type="qcurve" smooth="yes"/>
      <point x="804.7066666666666" y="1020.7"/>
      <point x="936.1066666666667" y="927.2066666666666"/>
      <point x="955.9" y="834.5933333333334" type="qcurve"/>
      <point x="1006.7933333333333" y="910.0533333333334"/>
      <point x="1184.12" y="1020.7"/>
      <point x="1306.4333333333332" y="1020.7" type="qcurve" smooth="yes"/>
      <point x="1444.8333333333333" y="1020.7"/>
      <point x="1582.84" y="881.2666666666667"/>
      <point x="1582.84" y="743.14" type="qcurve" smooth="yes"/>
      <point x="1582.84" y="684.9533333333334"/>
      <point x="1581.2933333333333" y="537.0533333333334"/>
      <point x="1581.2933333333333" y="529.1" type="qcurve" smooth="yes"/>
      <point x="1586.1733333333332" y="83.0" type="line"/>
      <point x="1737.4733333333334" y="53.333333333333336" type="line"/>
      <point x="1737.4733333333334" y="0.0" type="line"/>
      <point x="1327.4466666666667" y="0.0" type="line"/>
      <point x="1327.4466666666667" y="53.333333333333336" type="line"/>
      <point x="1474.8333333333333" y="83.0" type="line"/>
      <point x="1476.7133333333334" y="529.34" type="line"/>
      <point x="1476.7133333333334" y="725.32" type="line" smooth="yes"/>
      <point x="1476.7133333333334" y="822.5933333333334"/>
      <point x="1373.1066666666668" y="919.3666666666667"/>
      <point x="1263.5333333333333" y="919.3666666666667" type="qcurve" smooth="yes"/>
      <point x="1164.5666666666668" y="919.3666666666667"/>
      <point x="1017.16" y="831.5666666666666"/>
      <point x="964.66" y="751.7133333333334" type="qcurve"/>
      <point x="963.4466666666666" y="731.4333333333334"/>
      <point x="963.1733333333334" y="648.1251741293333"/>
      <point x="963.1733333333334" y="529.1" type="qcurve" smooth="yes"/>
      <point x="967.9333333333334" y="83.0" type="line"/>
      <point x="1117.7333333333333" y="53.333333333333336" type="line"/>
      <point x="1117.7333333333333" y="0.0" type="line"/>
      <point x="708.7266666666666" y="0.0" type="line"/>
      <point x="708.7266666666666" y="53.333333333333336" type="line"/>
      <point x="856.7133333333334" y="83.0" type="line"/>
      <point x="858.5933333333334" y="528.98" type="line"/>
      <point x="858.5933333333334" y="725.32" type="line" smooth="yes"/>
      <point x="858.5933333333334" y="822.5933333333334"/>
      <point x="756.4066666666666" y="919.3666666666667"/>
      <point x="648.7466666666667" y="919.3666666666667" type="qcurve" smooth="yes"/>
      <point x="557.72" y="919.3666666666667"/>
      <point x="397.1" y="821.84"/>
      <point x="345.3266666666667" y="744.9266666666666" type="qcurve"/>
      <point x="345.05333333333334" y="526.58" type="line"/>
      <point x="350.93333333333334" y="83.0" type="line"/>
      <point x="500.12666666666667" y="53.333333333333336" type="line"/>
      <point x="500.12666666666667" y="0.0" type="line"/>
    </contour>
  </outline>
</glyph>
<glyph name="r" format="2">
  <advance width="834"/>
  <unicode hex="0072"/>
  <anchor x="308.62" y="0" name="bottom"/>
  <outline>
    <contour>
      <point x="80.86666666666667" y="0.0" type="line"/>
      <point x="80.86666666666667" y="53.333333333333336" type="line"/>
      <point x="239.32" y="83.0" type="line"/>
      <point x="241.32" y="527.0" type="line"/>
      <point x="239.32" y="888.6666666666666" type="line"/>
      <point x="71.53333333333333" y="912.0" type="line"/>
      <point x="71.53333333333333" y="979.3333333333334" type="line"/>
      <point x="301.56666666666666" y="1000.0" type="line"/>
      <point x="328.56666666666666" y="979.6666666666666" type="line"/>
      <point x="347.0266666666667" y="828.4266666666666" type="line"/>
      <point x="393.49333333333334" y="899.5133333333333"/>
      <point x="578.8533333333334" y="1007.3333333333334"/>
      <point x="708.42" y="1007.3333333333334" type="qcurve" smooth="yes"/>
      <point x="805.3466666666666" y="1007.3333333333334" type="line"/>
      <point x="805.3466666666666" y="748.6" type="line"/>
      <point x="732.5" y="748.6" type="line"/>
      <point x="690.4333333333334" y="912.3333333333334" type="line"/>
      <point x="576.8133333333334" y="912.6666666666666"/>
      <point x="403.0733333333333" y="826.6733333333334"/>
      <point x="346.66" y="737.6666666666666" type="qcurve"/>
      <point x="345.3266666666667" y="529.1" type="line"/>
      <point x="351.2066666666667" y="83.0" type="line"/>
      <point x="528.8666666666667" y="53.333333333333336" type="line"/>
      <point x="528.8666666666667" y="0.0" type="line"/>
    </contour>
  </outline>
</glyph>
<glyph name="t" format="2">
  <advance width="621"/>
  <unicode hex="0074"/>
  <outline>
    <contour>
      <point x="52.0" y="911.3333333333334" type="line"/>
      <point x="52.0" y="962.0" type="line"/>
      <point x="154.66666666666666" y="979.3333333333334"/>
      <point x="263.08" y="1097.84"/>
      <point x="279.6" y="1198.6666666666667" type="qcurve"/>
      <point x="308.9666666666667" y="1198.6666666666667" type="line"/>
      <point x="333.3" y="1168.6666666666667" type="line"/>
      <point x="328.3" y="981.3333333333334" type="line"/>
      <point x="570.1666666666666" y="981.3333333333334" type="line"/>
      <point x="570.1666666666666" y="907.3333333333334" type="line"/>
      <point x="327.6333333333333" y="907.3333333333334" type="line"/>
      <point x="324.54" y="527.0" type="line"/>
      <point x="325.2066666666667" y="178.66666666666669" type="line" smooth="yes"/>
      <point x="325.54" y="122.33333333333334"/>
      <point x="371.87333333333333" y="81.0"/>
      <point x="438.2066666666667" y="81.0" type="qcurve" smooth="yes"/>
      <point x="578.74" y="81.0" type="line"/>
      <point x="578.74" y="25.0" type="line"/>
      <point x="321.5333333333333" y="-8.0" type="line"/>
      <point x="262.5333333333333" y="-6.0"/>
      <point x="217.2" y="57.66666666666667"/>
      <point x="217.86666666666665" y="127.0" type="qcurve" smooth="yes"/>
      <point x="219.26" y="527.0" type="line"/>
      <point x="219.2" y="898.6666666666666" type="line"/>
    </contour>
  </outline>
</glyph>
<glyph name="asciitilde" format="2">
  <advance width="980"/>
  <unicode hex="007E"/>
  <outline>
    <contour>
      <point x="43.03333333333333" y="580.3333333333334" type="line"/>
      <point x="101.89333333333333" y="664.0"/>
      <point x="248.65333333333334" y="770.6666666666666"/>
      <point x="331.0933333333333" y="771.3333333333334" type="qcurve"/>
      <point x="678.5266666666666" y="642.3333333333334" type="line"/>
      <point x="737.4466666666666" y="642.3333333333334"/>
      <point x="840.4333333333334" y="722.3333333333334"/>
      <point x="878.1666666666666" y="792.3333333333334" type="qcurve"/>
      <point x="936.5466666666666" y="757.0" type="line"/>
      <point x="889.4466666666666" y="656.3333333333334"/>
      <point x="754.6933333333334" y="548.6666666666666"/>
      <point x="649.0933333333334" y="548.0" type="qcurve"/>
      <point x="314.24" y="672.3333333333334" type="line"/>
      <point x="254.32" y="672.3333333333334"/>
      <point x="144.42" y="597.0"/>
      <point x="87.77333333333333" y="536.3333333333334" type="qcurve"/>
    </contour>
  </outline>
</glyph>
<glyph name="cent" format="2">
  <advance width="957"/>
  <unicode hex="00A2"/>
  <outline>
    <contour>
      <point x="85.16" y="485.3466666666667" type="qcurve" smooth="yes"/>
      <point x="85.16" y="717.6866666666666"/>
      <point x="340.56" y="1020.4866666666667"/>
      <point x="545.3933333333333" y="1020.4866666666667" type="qcurve" smooth="yes"/>
      <point x="625.7333333333333" y="1020.4866666666667"/>
      <point x="740.88" y="982.2733333333334"/>
      <point x="776.16" y="949.6666666666666" type="qcurve"/>
      <point x="796.8933333333333" y="1015.0" type="line"/>
      <point x="861.3333333333334" y="999.0266666666666" type="line"/>
      <point x="871.7" y="679.0933333333334" type="line"/>
      <point x="809.44" y="668.3333333333334" type="line"/>
      <point x="785.4666666666666" y="763.6666666666666" type="line" smooth="yes"/>
      <point x="763.04" y="850.84"/>
      <point x="632.6466666666666" y="946.6333333333333"/>
      <point x="546.5733333333334" y="946.6333333333333" type="qcurve" smooth="yes"/>
      <point x="386.81333333333333" y="946.6333333333333"/>
      <point x="195.89333333333335" y="717.6666666666666"/>
      <point x="196.56" y="505.0" type="qcurve" smooth="yes"/>
      <point x="196.56" y="289.0"/>
      <point x="407.1" y="68.36666666666667"/>
      <point x="580.5333333333334" y="68.36666666666667" type="qcurve" smooth="yes"/>
      <point x="680.0733333333334" y="68.36666666666667"/>
      <point x="837.0666666666666" y="150.03333333333333"/>
      <point x="889.7733333333334" y="218.36666666666665" type="qcurve"/>
      <point x="922.84" y="179.15333333333334" type="line"/>
      <point x="873.1666666666666" y="96.16"/>
      <point x="678.2266666666666" y="-21.7"/>
      <point x="543.2866666666666" y="-21.7" type="qcurve" smooth="yes"/>
      <point x="341.3266666666667" y="-21.7"/>
      <point x="85.16" y="245.26666666666665"/>
    </contour>
    <contour>
      <point x="494.2" y="-196.66666666666666" type="line"/>
      <point x="494.2" y="25.333333333333336" type="line"/>
      <point x="505.9333333333334" y="25.333333333333336" type="line"/>
      <point x="505.9333333333334" y="513.3333333333334" type="line"/>
      <point x="575.4" y="484.6666666666667" type="line"/>
      <point x="575.4" y="25.333333333333336" type="line"/>
      <point x="589.1333333333333" y="25.333333333333336" type="line"/>
      <point x="589.1333333333333" y="-160.3" type="line"/>
    </contour>
    <contour>
      <point x="493.2" y="1156.6666666666667" type="line"/>
      <point x="588.1333333333333" y="1182.0333333333333" type="line"/>
      <point x="588.1333333333333" y="988.0" type="line"/>
      <point x="575.4" y="988.0" type="line"/>
      <point x="575.4" y="484.6666666666667" type="line"/>
      <point x="505.9333333333334" y="513.3333333333334" type="line"/>
      <point x="505.9333333333334" y="988.0" type="line"/>
      <point x="493.2" y="988.0" type="line"/>
    </contour>
  </outline>
</glyph>
<glyph name="copyright" format="2">
  <advance width="2031"/>
  <unicode hex="00A9"/>
  <outline>
    <contour>
      <point x="550.98" y="650.0" type="qcurve" smooth="yes"/>
      <point x="550.98" y="883.0"/>
      <point x="820.3066666666666" y="1187.0"/>
      <point x="1036.9333333333332" y="1187.0" type="qcurve" smooth="yes"/>
      <point x="1122.0" y="1187.0"/>
      <point x="1243.92" y="1148.6666666666667"/>
      <point x="1282.3466666666668" y="1116.0" type="qcurve"/>
      <point x="1303.38" y="1181.3333333333333" type="line"/>
      <point x="1371.2666666666667" y="1165.0" type="line"/>
      <point x="1383.0866666666668" y="845.6666666666666" type="line"/>
      <point x="1317.32" y="834.6666666666666" type="line"/>
      <point x="1282.0733333333333" y="969.0" type="line"/>
      <point x="1252.4933333333333" y="1040.3333333333333"/>
      <point x="1123.7266666666667" y="1112.6666666666667"/>
      <point x="1037.9333333333332" y="1112.6666666666667" type="qcurve" smooth="yes"/>
      <point x="867.4666666666666" y="1112.6666666666667"/>
      <point x="664.6266666666667" y="884.0"/>
      <point x="665.2933333333334" y="671.3333333333334" type="qcurve" smooth="yes"/>
      <point x="665.2933333333334" y="455.3333333333333"/>
      <point x="890.2266666666666" y="235.0"/>
      <point x="1062.0266666666666" y="235.0" type="qcurve" smooth="yes"/>
      <point x="1172.6133333333332" y="235.0"/>
      <point x="1352.66" y="328.0"/>
      <point x="1406.24" y="398.3333333333333" type="qcurve"/>
      <point x="1443.0333333333333" y="354.0" type="line"/>
      <point x="1385.5733333333333" y="261.6666666666667"/>
      <point x="1165.7333333333333" y="144.33333333333334"/>
      <point x="1036.0266666666666" y="144.33333333333334" type="qcurve" smooth="yes"/>
      <point x="821.1266666666667" y="144.33333333333334"/>
      <point x="550.98" y="411.0"/>
    </contour>
    <contour>
      <point x="107.66666666666667" y="685.0" type="qcurve" smooth="yes"/>
      <point x="107.66666666666667" y="1061.0"/>
      <point x="617.32" y="1570.0"/>
      <point x="1017.66" y="1570.0" type="qcurve" smooth="yes"/>
      <point x="1416.06" y="1570.0"/>
      <point x="1923.7133333333334" y="1087.0"/>
      <point x="1923.7133333333334" y="706.0" type="qcurve" smooth="yes"/>
      <point x="1923.7133333333334" y="288.0"/>
      <point x="1423.0" y="-242.0"/>
      <point x="1029.54" y="-242.0" type="qcurve" smooth="yes"/>
      <point x="624.26" y="-242.0"/>
      <point x="107.66666666666667" y="276.0"/>
    </contour>
    <contour>
      <point x="213.83333333333334" y="682.3333333333334" type="qcurve" smooth="yes"/>
      <point x="213.83333333333334" y="313.0"/>
      <point x="686.0866666666666" y="-156.66666666666666"/>
      <point x="1036.0866666666668" y="-156.66666666666666" type="qcurve" smooth="yes"/>
      <point x="1375.54" y="-156.66666666666666"/>
      <point x="1817.5466666666669" y="327.3333333333333"/>
      <point x="1817.5466666666669" y="700.0" type="qcurve" smooth="yes"/>
      <point x="1817.5466666666669" y="1029.6666666666667"/>
      <point x="1376.0533333333333" y="1484.6666666666667"/>
      <point x="1009.84" y="1484.6666666666667" type="qcurve" smooth="yes"/>
      <point x="662.78" y="1484.6666666666667"/>
      <point x="213.83333333333334" y="1020.0"/>
    </contour>
  </outline>
</glyph>
<glyph name="guillemetleft" format="2">
  <advance width="1310"/>
  <unicode hex="00AB"/>
  <outline>
    <contour>
      <point x="71.36666666666666" y="620.5466666666666" type="line"/>
      <point x="113.22" y="647.4733333333334"/>
      <point x="593.96" y="961.6866666666666"/>
      <point x="671.9733333333334" y="1014.8133333333334" type="qcurve" smooth="yes"/>
      <point x="736.4666666666666" y="1058.5733333333333"/>
      <point x="787.3866666666667" y="986.2333333333333"/>
      <point x="724.2866666666666" y="943.08" type="qcurve" smooth="yes"/>
      <point x="629.1133333333333" y="877.64"/>
      <point x="252.78" y="623.84"/>
      <point x="223.93333333333334" y="605.6666666666666" type="qcurve"/>
      <point x="252.9" y="586.7"/>
      <point x="645.0333333333334" y="322.92"/>
      <point x="734.8933333333333" y="258.92" type="qcurve" smooth="yes"/>
      <point x="786.9333333333334" y="222.31333333333333"/>
      <point x="744.8333333333334" y="152.64"/>
      <point x="689.46" y="183.24666666666667" type="qcurve" smooth="yes"/>
      <point x="626.9733333333334" y="217.66666666666666"/>
      <point x="140.13333333333333" y="539.7533333333333"/>
      <point x="71.36666666666666" y="587.4533333333334" type="qcurve"/>
    </contour>
    <contour>
      <point x="523.5666666666666" y="620.5466666666666" type="line"/>
      <point x="565.42" y="647.4733333333334"/>
      <point x="1046.16" y="961.6866666666666"/>
      <point x="1124.1733333333332" y="1014.8133333333334" type="qcurve" smooth="yes"/>
      <point x="1188.6666666666667" y="1058.5733333333333"/>
      <point x="1239.5866666666668" y="986.2333333333333"/>
      <point x="1176.4866666666667" y="943.08" type="qcurve" smooth="yes"/>
      <point x="1081.3133333333333" y="877.64"/>
      <point x="704.98" y="623.84"/>
      <point x="676.1333333333333" y="605.6666666666666" type="qcurve"/>
      <point x="705.1" y="586.7"/>
      <point x="1097.2333333333333" y="322.92"/>
      <point x="1187.0933333333332" y="258.92" type="qcurve" smooth="yes"/>
      <point x="1239.1333333333332" y="222.31333333333333"/>
      <point x="1197.0333333333333" y="152.64"/>
      <point x="1141.66" y="183.24666666666667" type="qcurve" smooth="yes"/>
      <point x="1079.1733333333332" y="217.66666666666666"/>
      <point x="592.3333333333334" y="539.7533333333333"/>
      <point x="523.5666666666666" y="587.4533333333334" type="qcurve"/>
    </contour>
  </outline>
</glyph>
<glyph name="registered" format="2">
  <advance width="2031"/>
  <unicode hex="00AE"/>
  <outline>
    <contour>
      <point x="107.66666666666667" y="685.0" type="qcurve" smooth="yes"/>
      <point x="107.66666666666667" y="1061.0"/>
      <point x="617.32" y="1570.0"/>
      <point x="1017.66" y="1570.0" type="qcurve" smooth="yes"/>
      <point x="1416.06" y="1570.0"/>
      <point x="1923.7133333333334" y="1087.0"/>
      <point x="1923.7133333333334" y="706.0" type="qcurve" smooth="yes"/>
      <point x="1923.7133333333334" y="288.0"/>
      <point x="1423.0" y="-242.0"/>
      <point x="1029.54" y="-242.0" type="qcurve" smooth="yes"/>
      <point x="624.26" y="-242.0"/>
      <point x="107.66666666666667" y="276.0"/>
    </contour>
    <contour>
      <point x="213.83333333333334" y="682.3333333333334" type="qcurve" smooth="yes"/>
      <point x="213.83333333333334" y="313.0"/>
      <point x="686.0866666666666" y="-156.66666666666666"/>
      <point x="1036.0866666666668" y="-156.66666666666666" type="qcurve" smooth="yes"/>
      <point x="1375.54" y="-156.66666666666666"/>
      <point x="1817.5466666666669" y="327.3333333333333"/>
      <point x="1817.5466666666669" y="700.0" type="qcurve" smooth="yes"/>
      <point x="1817.5466666666669" y="1029.6666666666667"/>
      <point x="1376.0533333333333" y="1484.6666666666667"/>
      <point x="1009.84" y="1484.6666666666667" type="qcurve" smooth="yes"/>
      <point x="662.78" y="1484.6666666666667"/>
      <point x="213.83333333333334" y="1020.0"/>
    </contour>
    <contour>
      <point x="623.2266666666666" y="176.0" type="line"/>
      <point x="620.62" y="232.66666666666669" type="line"/>
      <point x="736.6" y="256.6666666666667" type="line"/>
      <point x="747.48" y="723.0" type="line"/>
      <point x="736.6" y="1124.6666666666667" type="line"/>
      <point x="610.74" y="1147.6666666666667" type="line"/>
      <point x="610.74" y="1209.0" type="line"/>
      <point x="1032.8133333333333" y="1209.0" type="line" smooth="yes"/>
      <point x="1189.3733333333332" y="1209.0"/>
      <point x="1334.3266666666668" y="1068.6666666666667"/>
      <point x="1334.3266666666668" y="954.6666666666666" type="qcurve" smooth="yes"/>
      <point x="1334.3266666666668" y="827.6666666666666"/>
      <point x="1162.34" y="664.0"/>
      <point x="1037.48" y="664.0" type="qcurve" smooth="yes"/>
      <point x="986.96" y="664.0"/>
      <point x="835.4866666666667" y="669.6666666666666"/>
      <point x="811.7266666666666" y="669.6666666666666" type="qcurve"/>
      <point x="811.7266666666666" y="728.0" type="line"/>
      <point x="1007.42" y="728.0" type="line" smooth="yes"/>
      <point x="1125.34" y="728.0"/>
      <point x="1227.2866666666666" y="848.0"/>
      <point x="1227.2866666666666" y="952.3333333333334" type="qcurve" smooth="yes"/>
      <point x="1227.2866666666666" y="1032.3333333333333"/>
      <point x="1131.4" y="1141.3333333333333"/>
      <point x="1007.36" y="1141.3333333333333" type="qcurve" smooth="yes"/>
      <point x="869.1866666666666" y="1141.3333333333333" type="line"/>
      <point x="848.3666666666667" y="1128.3333333333333" type="line"/>
      <point x="835.4866666666667" y="723.0" type="line"/>
      <point x="846.3666666666667" y="256.6666666666667" type="line"/>
      <point x="1003.2333333333333" y="232.66666666666669" type="line"/>
      <point x="1003.2333333333333" y="176.0" type="line"/>
    </contour>
    <contour>
      <point x="1003.38" y="690.0" type="line"/>
      <point x="1104.9333333333332" y="704.6666666666666" type="line"/>
      <point x="1328.1133333333332" y="371.6666666666667" type="line" smooth="yes"/>
      <point x="1395.6666666666667" y="270.2733333333333"/>
      <point x="1476.6133333333332" y="232.66666666666669"/>
      <point x="1518.1933333333332" y="232.66666666666669" type="qcurve"/>
      <point x="1518.1933333333332" y="176.0" type="line"/>
      <point x="1377.0" y="176.0" type="line"/>
      <point x="1335.36" y="190.0" type="line"/>
    </contour>
  </outline>
</glyph>
<glyph name="macron" format="2">
  <advance width="1024"/>
  <unicode hex="00AF"/>
  <outline>
    <contour>
      <point x="250.58" y="1197.1333333333332" type="line"/>
      <point x="250.58" y="1294.2266666666667" type="line"/>
      <point x="782.1666666666666" y="1294.2266666666667" type="line"/>
      <point x="782.1666666666666" y="1197.1333333333332" type="line"/>
    </contour>
  </outline>
</glyph>
<glyph name="plusminus" format="2">
  <advance width="987"/>
  <unicode hex="00B1"/>
  <outline>
    <contour>
      <point x="90.43333333333332" y="583.8733333333333" type="line"/>
      <point x="90.43333333333332" y="680.1266666666667" type="line"/>
      <point x="896.5933333333334" y="680.1266666666667" type="line"/>
      <point x="896.5933333333334" y="583.8733333333333" type="line"/>
    </contour>
    <contour>
      <point x="446.1133333333333" y="222.37333333333333" type="line"/>
      <point x="446.1133333333333" y="1052.0133333333333" type="line"/>
      <point x="540.9133333333334" y="1052.0133333333333" type="line"/>
      <point x="540.9133333333334" y="222.37333333333333" type="line"/>
    </contour>
    <contour>
      <point x="90.43333333333332" y="38.44" type="line"/>
      <point x="90.43333333333332" y="132.78" type="line"/>
      <point x="896.5933333333334" y="132.78" type="line"/>
      <point x="896.5933333333334" y="38.44" type="line"/>
    </contour>
  </outline>
</glyph>
<glyph name="paragraph" format="2">
  <advance width="1151"/>
  <unicode hex="00B6"/>
  <outline>
    <contour>
      <point x="1016.1" y="65.09333333333335" type="line"/>
      <point x="1016.1" y="0.0" type="line"/>
      <point x="263.7" y="0.0" type="line"/>
      <point x="263.7" y="65.09333333333335" type="line"/>
      <point x="774.4333333333334" y="93.52" type="line"/>
      <point x="776.4333333333334" y="807.0" type="line"/>
      <point x="737.4333333333334" y="801.0"/>
      <point x="533.4333333333334" y="793.0"/>
      <point x="474.43333333333334" y="793.0" type="qcurve" smooth="yes"/>
      <point x="268.1" y="793.0"/>
      <point x="54.1" y="989.0"/>
      <point x="54.1" y="1155.0" type="qcurve" smooth="yes"/>
      <point x="54.1" y="1326.0"/>
      <point x="276.1" y="1500.0"/>
      <point x="468.1" y="1500.0" type="qcurve" smooth="yes"/>
      <point x="1067.9" y="1500.0" type="line"/>
      <point x="1067.9" y="1431.0266666666666" type="line"/>
      <point x="868.1" y="1396.36" type="line"/>
      <point x="866.1" y="754.0" type="line"/>
      <point x="868.1" y="95.00666666666667" type="line"/>
    </contour>
    <contour>
      <point x="548.1" y="51.0" type="line"/>
      <point x="451.7" y="46.0" type="line"/>
      <point x="453.7" y="807.0" type="line"/>
      <point x="546.1" y="814.0" type="line"/>
    </contour>
  </outline>
</glyph>
<glyph name="periodcentered" format="2">
  <advance width="561"/>
  <unicode hex="00B7"/>
  <outline>
    <contour>
      <point x="172.93333333333334" y="689.9866666666667" type="qcurve" smooth="yes"/>
      <point x="172.93333333333334" y="732.78"/>
      <point x="233.21333333333334" y="796.0"/>
      <point x="280.28" y="796.0" type="qcurve" smooth="yes"/>
      <point x="327.4066666666667" y="796.0"/>
      <point x="387.68666666666667" y="732.78"/>
      <point x="387.68666666666667" y="689.9866666666667" type="qcurve" smooth="yes"/>
      <point x="387.68666666666667" y="647.4666666666666"/>
      <point x="327.4066666666667" y="584.2466666666667"/>
      <point x="280.28" y="584.2466666666667" type="qcurve" smooth="yes"/>
      <point x="233.21333333333334" y="584.2466666666667"/>
      <point x="172.93333333333334" y="647.4666666666666"/>
    </contour>
  </outline>
</glyph>
<glyph name="onesuperior" format="2">
  <advance width="729"/>
  <unicode hex="00B9"/>
  <outline>
    <contour>
      <point x="126.69333333333334" y="670.0" type="line"/>
      <point x="126.69333333333334" y="724.7333333333333" type="line"/>
      <point x="337.7333333333333" y="753.4" type="line"/>
      <point x="338.7333333333333" y="1112.3333333333333" type="line"/>
      <point x="337.06666666666666" y="1403.9066666666668" type="line"/>
      <point x="124.69333333333333" y="1414.24" type="line"/>
      <point x="124.69333333333333" y="1470.0" type="line"/>
      <point x="418.25333333333333" y="1510.3333333333333" type="line"/>
      <point x="437.5866666666667" y="1486.6666666666667" type="line"/>
      <point x="434.25333333333333" y="1112.3333333333333" type="line"/>
      <point x="434.92" y="753.4" type="line"/>
      <point x="645.6266666666667" y="724.7333333333333" type="line"/>
      <point x="645.6266666666667" y="670.0" type="line"/>
    </contour>
  </outline>
</glyph>
<glyph name="guillemetright" format="2">
  <advance width="1310"/>
  <unicode hex="00BB"/>
  <outline>
    <contour>
      <point x="1237.2266666666667" y="591.0866666666666" type="line"/>
      <point x="1195.3733333333332" y="564.16"/>
      <point x="714.6333333333333" y="249.94666666666666"/>
      <point x="636.62" y="196.82" type="qcurve" smooth="yes"/>
      <point x="572.1266666666667" y="153.06"/>
      <point x="521.2066666666666" y="225.4"/>
      <point x="584.3066666666666" y="268.55333333333334" type="qcurve" smooth="yes"/>
      <point x="679.48" y="333.99333333333334"/>
      <point x="1055.8133333333333" y="587.7933333333334"/>
      <point x="1084.66" y="605.9666666666666" type="qcurve"/>
      <point x="1055.6933333333332" y="624.9333333333334"/>
      <point x="663.56" y="888.7133333333334"/>
      <point x="573.7" y="952.7133333333334" type="qcurve" smooth="yes"/>
      <point x="521.66" y="989.32"/>
      <point x="563.76" y="1058.9933333333333"/>
      <point x="619.1333333333333" y="1028.3866666666668" type="qcurve" smooth="yes"/>
      <point x="681.62" y="993.9666666666666"/>
      <point x="1168.46" y="671.88"/>
      <point x="1237.2266666666667" y="624.18" type="qcurve"/>
    </contour>
    <contour>
      <point x="785.0266666666666" y="591.0866666666666" type="line"/>
      <point x="743.1733333333334" y="564.16"/>
      <point x="262.43333333333334" y="249.94666666666666"/>
      <point x="184.42" y="196.82" type="qcurve" smooth="yes"/>
      <point x="119.92666666666666" y="153.06"/>
      <point x="69.00666666666666" y="225.4"/>
      <point x="132.10666666666665" y="268.55333333333334" type="qcurve" smooth="yes"/>
      <point x="227.28" y="333.99333333333334"/>
      <point x="603.6133333333333" y="587.7933333333334"/>
      <point x="632.46" y="605.9666666666666" type="qcurve"/>
      <point x="603.4933333333333" y="624.9333333333334"/>
      <point x="211.36" y="888.7133333333334"/>
      <point x="121.5" y="952.7133333333334" type="qcurve" smooth="yes"/>
      <point x="69.46" y="989.32"/>
      <point x="111.56" y="1058.9933333333333"/>
      <point x="166.9333333333333" y="1028.3866666666668" type="qcurve" smooth="yes"/>
      <point x="229.42" y="993.9666666666666"/>
      <point x="716.26" y="671.88"/>
      <point x="785.0266666666666" y="624.18" type="qcurve"/>
    </contour>
  </outline>
</glyph>
<glyph name="questiondown" format="2">
  <advance width="880"/>
  <unicode hex="00BF"/>
  <outline>
    <contour>
      <point x="705.46" y="1241.7933333333333" type="qcurve" smooth="yes"/>
      <point x="705.46" y="1199.0"/>
      <point x="645.18" y="1135.78"/>
      <point x="598.1133333333333" y="1135.78" type="qcurve" smooth="yes"/>
      <point x="550.9866666666667" y="1135.78"/>
      <point x="490.70666666666665" y="1199.0"/>
      <point x="490.70666666666665" y="1241.7933333333333" type="qcurve" smooth="yes"/>
      <point x="490.70666666666665" y="1284.3133333333333"/>
      <point x="550.9866666666667" y="1347.5333333333333"/>
      <point x="598.1133333333333" y="1347.5333333333333" type="qcurve" smooth="yes"/>
      <point x="645.18" y="1347.5333333333333"/>
      <point x="705.46" y="1284.3133333333333"/>
    </contour>
    <contour>
      <point x="855.0666666666666" y="47.53333333333334" type="qcurve" smooth="yes"/>
      <point x="855.0666666666666" y="-62.8"/>
      <point x="634.5266666666666" y="-211.8"/>
      <point x="458.9866666666667" y="-211.8" type="qcurve" smooth="yes"/>
      <point x="286.3266666666667" y="-211.8"/>
      <point x="64.82666666666667" y="-27.133333333333333"/>
      <point x="64.82666666666667" y="148.53333333333333" type="qcurve" smooth="yes"/>
      <point x="64.82666666666667" y="318.2133333333333"/>
      <point x="258.05333333333334" y="513.1533333333334"/>
      <point x="376.92" y="575.2" type="qcurve" smooth="yes"/>
      <point x="459.78" y="617.9266666666666"/>
      <point x="567.24" y="723.8666666666667"/>
      <point x="567.3" y="806.2" type="qcurve" smooth="yes"/>
      <point x="567.3" y="909.5333333333334" type="line"/>
      <point x="633.3666666666667" y="909.5333333333334" type="line"/>
      <point x="643.52" y="825.2" type="line" smooth="yes"/>
      <point x="654.16" y="730.2"/>
      <point x="542.8933333333333" y="575.4666666666666"/>
      <point x="430.5866666666667" y="510.2" type="qcurve" smooth="yes"/>
      <point x="318.94" y="445.5933333333333"/>
      <point x="177.68" y="300.3933333333333"/>
      <point x="177.68" y="153.86666666666665" type="qcurve" smooth="yes"/>
      <point x="177.68" y="12.2"/>
      <point x="345.4266666666667" y="-134.8"/>
      <point x="474.5333333333333" y="-134.8" type="qcurve" smooth="yes"/>
      <point x="599.76" y="-134.8"/>
      <point x="759.4133333333334" y="-52.46666666666666"/>
      <point x="759.4133333333334" y="-8.13333333333333" type="qcurve" smooth="yes"/>
      <point x="759.4133333333334" y="14.2"/>
      <point x="665.2466666666667" y="66.86666666666667"/>
      <point x="663.9133333333334" y="104.53333333333335" type="qcurve" smooth="yes"/>
      <point x="662.3066666666666" y="135.86666666666667"/>
      <point x="706.5266666666666" y="181.86666666666667"/>
      <point x="749.14" y="181.86666666666667" type="qcurve" smooth="yes"/>
      <point x="799.6933333333334" y="181.86666666666667"/>
      <point x="855.0666666666666" y="111.53333333333335"/>
    </contour>
  </outline>
</glyph>
<glyph name="ae" format="2">
  <advance width="1598"/>
  <unicode hex="00E6"/>
  <outline>
    <contour>
      <point x="78.06666666666668" y="246.10666666666665" type="qcurve" smooth="yes"/>
      <point x="78.06666666666668" y="381.82"/>
      <point x="358.9" y="580.8133333333334"/>
      <point x="693.3066666666666" y="611.0" type="qcurve"/>
      <point x="698.1266666666667" y="548.12" type="line"/>
      <point x="444.68666666666667" y="527.7866666666666"/>
      <point x="191.04666666666668" y="379.8"/>
      <point x="191.04666666666668" y="256.6666666666667" type="qcurve" smooth="yes"/>
      <point x="191.04666666666668" y="164.66666666666666"/>
      <point x="294.6666666666667" y="64.59333333333333"/>
      <point x="395.6" y="64.59333333333333" type="qcurve" smooth="yes"/>
      <point x="490.4733333333333" y="64.59333333333333"/>
      <point x="664.5" y="169.97333333333333"/>
      <point x="716.7866666666666" y="263.3466666666667" type="qcurve"/>
      <point x="702.6333333333333" y="303.4266666666667"/>
      <point x="684.26" y="420.4266666666667"/>
      <point x="683.5933333333334" y="509.8066666666667" type="qcurve" smooth="yes"/>
      <point x="682.9266666666666" y="617.6666666666666" type="line" smooth="yes"/>
      <point x="681.5933333333334" y="800.8866666666667"/>
      <point x="554.5066666666667" y="940.6666666666666"/>
      <point x="439.18666666666667" y="940.6666666666666" type="qcurve" smooth="yes"/>
      <point x="356.68" y="940.6666666666666"/>
      <point x="254.2" y="897.1466666666666"/>
      <point x="228.19333333333336" y="863.9333333333334" type="qcurve"/>
      <point x="244.04" y="847.48"/>
      <point x="265.55333333333334" y="812.2066666666666"/>
      <point x="267.8866666666667" y="793.0" type="qcurve" smooth="yes"/>
      <point x="272.1" y="762.7933333333334"/>
      <point x="239.37333333333333" y="721.6666666666666"/>
      <point x="208.52" y="721.6666666666666" type="qcurve" smooth="yes"/>
      <point x="176.21333333333334" y="721.6666666666666"/>
      <point x="137.06" y="773.5866666666666"/>
      <point x="137.18" y="823.1266666666667" type="qcurve" smooth="yes"/>
      <point x="137.36" y="898.4866666666667"/>
      <point x="313.24666666666667" y="1022.0933333333334"/>
      <point x="460.42" y="1022.0933333333334" type="qcurve" smooth="yes"/>
      <point x="580.58" y="1022.0933333333334"/>
      <point x="730.3333333333334" y="913.16"/>
      <point x="754.9066666666666" y="807.24" type="qcurve"/>
      <point x="758.0" y="807.24" type="line"/>
      <point x="801.6933333333334" y="902.4266666666666"/>
      <point x="999.8933333333334" y="1021.82"/>
      <point x="1130.9" y="1021.82" type="qcurve" smooth="yes"/>
      <point x="1316.36" y="1021.82"/>
      <point x="1534.9466666666667" y="789.0"/>
      <point x="1553.32" y="589.3333333333334" type="qcurve"/>
      <point x="1553.32" y="546.6666666666666" type="line"/>
      <point x="763.2066666666666" y="546.6666666666666" type="line"/>
      <point x="765.2066666666666" y="614.0" type="line"/>
      <point x="1447.1866666666667" y="614.0" type="line"/>
      <point x="1430.5133333333333" y="763.6666666666666"/>
      <point x="1259.52" y="945.82"/>
      <point x="1117.92" y="945.82" type="qcurve" smooth="yes"/>
      <point x="964.1333333333333" y="945.82"/>
      <point x="782.24" y="719.3333333333334"/>
      <point x="782.5733333333334" y="520.6666666666666" type="qcurve" smooth="yes"/>
      <point x="783.5133333333333" y="298.3333333333333"/>
      <point x="1004.2733333333333" y="67.94"/>
      <point x="1184.6066666666668" y="67.94" type="qcurve" smooth="yes"/>
      <point x="1292.96" y="67.94"/>
      <point x="1441.26" y="131.3"/>
      <point x="1488.8133333333333" y="179.63333333333335" type="qcurve"/>
      <point x="1522.2466666666667" y="142.96666666666667" type="line"/>
      <point x="1475.42" y="75.96666666666667"/>
      <point x="1296.48" y="-21.7"/>
      <point x="1169.2133333333334" y="-21.7" type="qcurve" smooth="yes"/>
      <point x="1016.2" y="-21.7"/>
      <point x="805.7133333333334" y="99.65333333333332"/>
      <point x="752.5" y="196.62" type="qcurve"/>
      <point x="684.04" y="89.84"/>
      <point x="480.7066666666667" y="-15.153333333333334"/>
      <point x="354.3666666666667" y="-15.153333333333334" type="qcurve" smooth="yes"/>
      <point x="215.81333333333333" y="-15.153333333333334"/>
      <point x="78.06666666666668" y="131.77333333333334"/>
    </contour>
  </outline>
</glyph>
<glyph name="divide" format="2">
  <advance width="987"/>
  <unicode hex="00F7"/>
  <outline>
    <contour>
      <point x="90.43333333333332" y="583.8733333333333" type="line"/>
      <point x="90.43333333333332" y="680.1266666666667" type="line"/>
      <point x="896.5933333333334" y="680.1266666666667" type="line"/>
      <point x="896.5933333333334" y="583.8733333333333" type="line"/>
    </contour>
    <contour>
      <point x="404.6533333333333" y="347.2133333333333" type="qcurve" smooth="yes"/>
      <point x="404.6533333333333" y="382.6733333333333"/>
      <point x="454.3866666666667" y="436.0733333333333"/>
      <point x="493.5133333333333" y="436.0733333333333" type="qcurve" smooth="yes"/>
      <point x="532.64" y="436.0733333333333"/>
      <point x="582.3733333333333" y="382.6733333333333"/>
      <point x="582.3733333333333" y="347.2133333333333" type="qcurve" smooth="yes"/>
      <point x="582.3733333333333" y="312.6333333333333"/>
      <point x="532.64" y="258.56666666666666"/>
      <point x="493.5133333333333" y="258.56666666666666" type="qcurve" smooth="yes"/>
      <point x="454.3866666666667" y="258.56666666666666"/>
      <point x="404.6533333333333" y="312.6333333333333"/>
    </contour>
    <contour>
      <point x="404.6533333333333" y="917.8466666666666" type="qcurve" smooth="yes"/>
      <point x="404.6533333333333" y="953.3666666666667"/>
      <point x="454.3866666666667" y="1007.3733333333333"/>
      <point x="493.5133333333333" y="1007.3733333333333" type="qcurve" smooth="yes"/>
      <point x="532.64" y="1007.3733333333333"/>
      <point x="582.3733333333333" y="953.3666666666667"/>
      <point x="582.3733333333333" y="917.8466666666666" type="qcurve" smooth="yes"/>
      <point x="582.3733333333333" y="883.3266666666666"/>
      <point x="532.64" y="829.9266666666666"/>
      <point x="493.5133333333333" y="829.9266666666666" type="qcurve" smooth="yes"/>
      <point x="454.3866666666667" y="829.9266666666666"/>
      <point x="404.6533333333333" y="883.3266666666666"/>
    </contour>
  </outline>
</glyph>
<glyph name="thorn" format="2">
  <advance width="1150"/>
  <unicode hex="00FE"/>
  <outline>
    <contour>
      <point x="51.96666666666666" y="-480.0" type="line"/>
      <point x="51.96666666666666" y="-426.6666666666667" type="line"/>
      <point x="208.14" y="-397.0" type="line"/>
      <point x="211.4733333333333" y="427.0" type="line"/>
      <point x="210.17333333333332" y="1410.4266666666667" type="line"/>
      <point x="22.446666666666665" y="1434.6666666666667" type="line"/>
      <point x="22.446666666666665" y="1500.0" type="line"/>
      <point x="286.12" y="1520.6666666666667" type="line"/>
      <point x="302.12" y="1517.3333333333333" type="line"/>
      <point x="317.4533333333333" y="1492.6666666666667" type="line"/>
      <point x="315.12" y="851.4333333333334" type="line"/>
      <point x="365.62" y="920.4133333333334"/>
      <point x="542.2333333333333" y="1019.76"/>
      <point x="660.8666666666667" y="1019.76" type="qcurve" smooth="yes"/>
      <point x="845.3266666666666" y="1019.76"/>
      <point x="1083.3533333333332" y="755.62"/>
      <point x="1083.3533333333332" y="530.0" type="qcurve" smooth="yes"/>
      <point x="1083.3533333333332" y="285.28"/>
      <point x="835.54" y="-12.0"/>
      <point x="627.22" y="-12.0" type="qcurve" smooth="yes"/>
      <point x="524.2266666666666" y="-12.0"/>
      <point x="362.06666666666666" y="46.98"/>
      <point x="316.75333333333333" y="87.62" type="qcurve"/>
      <point x="318.75333333333333" y="-397.0" type="line"/>
      <point x="491.9733333333333" y="-426.6666666666667" type="line"/>
      <point x="491.9733333333333" y="-480.0" type="line"/>
    </contour>
    <contour>
      <point x="316.6933333333333" y="211.62" type="line"/>
      <point x="354.4" y="146.28666666666666"/>
      <point x="517.4133333333334" y="56.333333333333336"/>
      <point x="621.9266666666666" y="56.333333333333336" type="qcurve" smooth="yes"/>
      <point x="775.1733333333334" y="56.333333333333336"/>
      <point x="964.86" y="289.55333333333334"/>
      <point x="964.86" y="502.3333333333333" type="qcurve" smooth="yes"/>
      <point x="964.86" y="700.5333333333334"/>
      <point x="787.6333333333333" y="928.0"/>
      <point x="638.9333333333334" y="928.0" type="qcurve" smooth="yes"/>
      <point x="527.9066666666666" y="928.0"/>
      <point x="363.0133333333333" y="838.14"/>
      <point x="315.0266666666667" y="768.0066666666667" type="qcurve"/>
      <point x="314.0266666666667" y="426.76" type="line"/>
    </contour>
  </outline>
</glyph>
<glyph name="oe" format="2">
  <advance width="1884"/>
  <unicode hex="0153"/>
  <outline>
    <contour>
      <point x="65.82666666666667" y="500.0" type="qcurve" smooth="yes"/>
      <point x="65.82666666666667" y="717.6"/>
      <point x="342.92" y="1021.82"/>
      <point x="570.48" y="1021.82" type="qcurve" smooth="yes"/>
      <point x="737.5933333333334" y="1021.82"/>
      <point x="967.1066666666667" y="872.84"/>
      <point x="1016.68" y="757.4733333333334" type="qcurve"/>
      <point x="1021.4733333333332" y="757.4733333333334" type="line"/>
      <point x="1064.4333333333332" y="872.8733333333333"/>
      <point x="1270.8066666666668" y="1021.82"/>
      <point x="1414.94" y="1021.82" type="qcurve" smooth="yes"/>
      <point x="1600.4" y="1021.82"/>
      <point x="1821.1733333333332" y="789.0"/>
      <point x="1839.5466666666669" y="589.3333333333334" type="qcurve"/>
      <point x="1839.5466666666669" y="546.6666666666666" type="line"/>
      <point x="1049.4333333333332" y="546.6666666666666" type="line"/>
      <point x="1051.4333333333332" y="614.0" type="line"/>
      <point x="1733.4133333333332" y="614.0" type="line"/>
      <point x="1716.74" y="763.6666666666666"/>
      <point x="1545.7466666666667" y="945.82"/>
      <point x="1404.1466666666668" y="945.82" type="qcurve" smooth="yes"/>
      <point x="1250.36" y="945.82"/>
      <point x="1069.2866666666666" y="719.3333333333334"/>
      <point x="1069.62" y="520.6666666666666" type="qcurve" smooth="yes"/>
      <point x="1070.56" y="298.3333333333333"/>
      <point x="1290.5" y="67.94"/>
      <point x="1470.8333333333333" y="67.94" type="qcurve" smooth="yes"/>
      <point x="1579.1866666666667" y="67.94"/>
      <point x="1727.4866666666667" y="131.3"/>
      <point x="1775.04" y="179.63333333333335" type="qcurve"/>
      <point x="1808.4733333333334" y="142.96666666666667" type="line"/>
      <point x="1761.6466666666668" y="75.96666666666667"/>
      <point x="1582.7066666666667" y="-21.7"/>
      <point x="1451.34" y="-21.7" type="qcurve" smooth="yes"/>
      <point x="1294.0666666666668" y="-21.7"/>
      <point x="1059.0933333333332" y="126.85333333333334"/>
      <point x="1010.9133333333333" y="254.6533333333333" type="qcurve"/>
      <point x="1008.2466666666668" y="254.6533333333333" type="line"/>
      <point x="963.38" y="136.55333333333334"/>
      <point x="735.8333333333334" y="-21.7"/>
      <point x="576.12" y="-21.7" type="qcurve" smooth="yes"/>
      <point x="347.62" y="-21.7"/>
      <point x="65.82666666666667" y="266.4"/>
    </contour>
    <contour>
      <point x="181.2266666666667" y="522.0" type="qcurve" smooth="yes"/>
      <point x="182.2266666666667" y="323.06666666666666"/>
      <point x="395.62" y="49.513333333333335"/>
      <point x="570.6" y="49.513333333333335" type="qcurve" smooth="yes"/>
      <point x="757.6133333333333" y="49.513333333333335"/>
      <point x="960.34" y="299.06666666666666"/>
      <point x="960.34" y="506.6666666666667" type="qcurve" smooth="yes"/>
      <point x="960.34" y="697.9333333333334"/>
      <point x="748.4" y="943.2733333333334"/>
      <point x="572.48" y="943.2733333333334" type="qcurve" smooth="yes"/>
      <point x="382.1333333333333" y="943.2733333333334"/>
      <point x="180.2266666666667" y="719.2666666666667"/>
    </contour>
  </outline>
</glyph>
<glyph name="Schwa" format="2">
  <advance width="1424"/>
  <unicode hex="018F"/>
  <outline>
    <contour>
      <point x="71.0" y="1232.8533333333332" type="line"/>
      <point x="159.14" y="1363.8666666666668"/>
      <point x="443.4466666666667" y="1518.7"/>
      <point x="648.2533333333333" y="1518.7" type="qcurve" smooth="yes"/>
      <point x="967.0" y="1518.7"/>
      <point x="1341.4266666666667" y="1105.6933333333332"/>
      <point x="1341.4266666666667" y="761.92" type="qcurve" smooth="yes"/>
      <point x="1341.4266666666667" y="419.44666666666666"/>
      <point x="975.5866666666666" y="-30.246666666666666"/>
      <point x="683.72" y="-30.246666666666666" type="qcurve" smooth="yes"/>
      <point x="413.18" y="-30.246666666666666"/>
      <point x="98.16" y="287.44"/>
      <point x="98.16" y="586.0" type="qcurve" smooth="yes"/>
      <point x="98.16" y="686.0" type="line"/>
      <point x="1262.86" y="686.0" type="line"/>
      <point x="1262.86" y="599.3333333333334" type="line"/>
      <point x="665.3733333333333" y="607.3333333333334" type="line"/>
      <point x="209.6266666666667" y="601.3333333333334" type="line"/>
      <point x="209.6266666666667" y="549.0" type="line" smooth="yes"/>
      <point x="209.6266666666667" y="315.0"/>
      <point x="463.9533333333333" y="56.14666666666667"/>
      <point x="685.3" y="56.14666666666667" type="qcurve" smooth="yes"/>
      <point x="937.6466666666666" y="56.14666666666667"/>
      <point x="1227.0866666666668" y="427.46"/>
      <point x="1226.54" y="737.7866666666666" type="qcurve" smooth="yes"/>
      <point x="1225.9933333333333" y="1067.7866666666666"/>
      <point x="899.5733333333334" y="1426.3333333333333"/>
      <point x="636.9733333333334" y="1426.3333333333333" type="qcurve" smooth="yes"/>
      <point x="445.5333333333333" y="1426.3333333333333"/>
      <point x="191.68" y="1283.86"/>
      <point x="126.79333333333334" y="1183.5466666666669" type="qcurve"/>
    </contour>
  </outline>
</glyph>
<glyph name="schwa" format="2">
  <advance width="1011"/>
  <unicode hex="0259"/>
  <outline>
    <contour>
      <point x="945.14" y="492.7866666666667" type="qcurve" smooth="yes"/>
      <point x="945.14" y="271.49333333333334"/>
      <point x="689.5466666666666" y="-21.7"/>
      <point x="485.05333333333334" y="-21.7" type="qcurve" smooth="yes"/>
      <point x="299.5933333333333" y="-21.7"/>
      <point x="78.82" y="211.12"/>
      <point x="60.44666666666667" y="410.7866666666667" type="qcurve"/>
      <point x="60.44666666666667" y="453.4533333333333" type="line"/>
      <point x="850.56" y="453.4533333333333" type="line"/>
      <point x="848.56" y="386.12" type="line"/>
      <point x="166.58" y="386.12" type="line"/>
      <point x="183.25333333333333" y="236.45333333333335"/>
      <point x="354.24666666666667" y="54.3"/>
      <point x="495.8466666666667" y="54.3" type="qcurve" smooth="yes"/>
      <point x="649.6333333333333" y="54.3"/>
      <point x="830.7066666666666" y="280.7866666666667"/>
      <point x="830.3733333333333" y="479.4533333333333" type="qcurve" smooth="yes"/>
      <point x="829.4333333333334" y="701.7866666666666"/>
      <point x="609.4933333333333" y="932.18"/>
      <point x="429.16" y="932.18" type="qcurve" smooth="yes"/>
      <point x="320.8066666666667" y="932.18"/>
      <point x="172.50666666666666" y="868.82"/>
      <point x="124.95333333333335" y="820.4866666666667" type="qcurve"/>
      <point x="91.52" y="857.1533333333334" type="line"/>
      <point x="138.34666666666666" y="924.1533333333334"/>
      <point x="320.2933333333333" y="1021.82"/>
      <point x="453.5733333333333" y="1021.82" type="qcurve" smooth="yes"/>
      <point x="674.5666666666666" y="1021.82"/>
      <point x="945.14" y="742.4533333333334"/>
    </contour>
  </outline>
</glyph>
<glyph name="circumflex" format="2">
  <advance width="1024"/>
  <unicode hex="02C6"/>
  <outline>
    <contour>
      <point x="512.0" y="1456.02" type="qcurve" smooth="yes"/>
      <point x="539.1533333333334" y="1456.02"/>
      <point x="575.8533333333334" y="1424.4733333333334"/>
      <point x="608.0066666666667" y="1383.44" type="qcurve" smooth="yes"/>
      <point x="788.9066666666666" y="1162.3066666666668" type="line"/>
      <point x="745.02" y="1119.36" type="line"/>
      <point x="512.0" y="1333.1" type="line"/>
      <point x="278.98" y="1119.36" type="line"/>
      <point x="235.0933333333333" y="1162.3066666666668" type="line"/>
      <point x="415.99333333333334" y="1383.44" type="line" smooth="yes"/>
      <point x="455.9066666666667" y="1432.2"/>
      <point x="484.8466666666667" y="1456.02"/>
    </contour>
  </outline>
</glyph>
<glyph name="dotaccent" format="2">
  <advance width="1024"/>
  <unicode hex="02D9"/>
  <outline>
    <contour>
      <point x="417.7733333333333" y="1261.58" type="qcurve" smooth="yes"/>
      <point x="417.7733333333333" y="1306.28"/>
      <point x="465.72" y="1354.86"/>
      <point x="511.3333333333333" y="1354.86" type="qcurve" smooth="yes"/>
      <point x="555.0066666666667" y="1354.86"/>
      <point x="606.2266666666666" y="1303.6133333333332"/>
      <point x="606.2266666666666" y="1261.58" type="qcurve" smooth="yes"/>
      <point x="606.2266666666666" y="1216.94"/>
      <point x="558.28" y="1168.3"/>
      <point x="511.3333333333333" y="1168.3" type="qcurve" smooth="yes"/>
      <point x="468.3266666666667" y="1168.3"/>
      <point x="417.7733333333333" y="1218.88"/>
    </contour>
  </outline>
</glyph>
<glyph name="ring" format="2">
  <advance width="1024"/>
  <unicode hex="02DA"/>
  <outline>
    <contour>
      <point x="310.37333333333333" y="1316.5533333333333" type="qcurve" smooth="yes"/>
      <point x="310.37333333333333" y="1397.44"/>
      <point x="427.1733333333333" y="1509.9666666666667"/>
      <point x="512.0" y="1509.9666666666667" type="qcurve" smooth="yes"/>
      <point x="596.8266666666666" y="1509.9666666666667"/>
      <point x="713.6266666666667" y="1397.44"/>
      <point x="713.6266666666667" y="1316.5533333333333" type="qcurve" smooth="yes"/>
      <point x="713.6266666666667" y="1235.7266666666667"/>
      <point x="596.8266666666666" y="1123.2"/>
      <point x="512.0" y="1123.2" type="qcurve" smooth="yes"/>
      <point x="427.1733333333333" y="1123.2"/>
      <point x="310.37333333333333" y="1235.7266666666667"/>
    </contour>
    <contour>
      <point x="395.9" y="1316.5533333333333" type="qcurve" smooth="yes"/>
      <point x="395.9" y="1264.3066666666668"/>
      <point x="458.75333333333333" y="1200.5133333333333"/>
      <point x="512.0" y="1200.5133333333333" type="qcurve" smooth="yes"/>
      <point x="568.1866666666666" y="1200.5133333333333"/>
      <point x="628.1" y="1259.7"/>
      <point x="628.1" y="1316.5533333333333" type="qcurve" smooth="yes"/>
      <point x="628.1" y="1368.8"/>
      <point x="565.2466666666667" y="1432.6533333333332"/>
      <point x="512.0" y="1432.6533333333332" type="qcurve" smooth="yes"/>
      <point x="455.81333333333333" y="1432.6533333333332"/>
      <point x="395.9" y="1373.4666666666667"/>
    </contour>
  </outline>
</glyph>
<glyph name="hungarumlaut" format="2">
  <advance width="1024"/>
  <unicode hex="02DD"/>
  <outline>
    <contour>
      <point x="618.4933333333333" y="1399.1333333333332" type="qcurve" smooth="yes"/>
      <point x="618.9133333333334" y="1374.4866666666667"/>
      <point x="591.42" y="1340.2866666666666"/>
      <point x="567.9" y="1320.2533333333333" type="qcurve" smooth="yes"/>
      <point x="323.6533333333333" y="1115.3533333333332" type="line"/>
      <point x="284.1333333333333" y="1156.7" type="line"/>
      <point x="472.26666666666665" y="1386.52" type="line" smooth="yes"/>
      <point x="494.3333333333333" y="1413.6133333333332"/>
      <point x="533.2133333333334" y="1449.2733333333333"/>
      <point x="557.8533333333334" y="1449.6333333333332" type="qcurve" smooth="yes"/>
      <point x="581.5533333333334" y="1449.9333333333332"/>
      <point x="618.0733333333334" y="1419.7133333333334"/>
    </contour>
    <contour>
      <point x="915.7666666666667" y="1399.1933333333332" type="qcurve" smooth="yes"/>
      <point x="916.1866666666666" y="1374.4866666666667"/>
      <point x="888.7533333333333" y="1340.2866666666666"/>
      <point x="865.1733333333334" y="1320.2533333333333" type="qcurve" smooth="yes"/>
      <point x="620.9266666666666" y="1115.3533333333332" type="line"/>
      <point x="581.4066666666666" y="1156.7" type="line"/>
      <point x="769.8133333333334" y="1386.52" type="line" smooth="yes"/>
      <point x="791.88" y="1413.6133333333332"/>
      <point x="830.4866666666667" y="1449.3333333333333"/>
      <point x="855.1266666666667" y="1449.6333333333332" type="qcurve" smooth="yes"/>
      <point x="878.8266666666666" y="1449.9333333333332"/>
      <point x="915.3466666666666" y="1419.7133333333334"/>
    </contour>
  </outline>
</glyph>
<glyph name="macronbelowcomb" format="2">
  <advance width="1024"/>
  <unicode hex="0331"/>
  <outline>
    <contour>
      <point x="246.20666666666665" y="-273.8266666666667" type="line"/>
      <point x="246.20666666666665" y="-170.72" type="line"/>
      <point x="777.7933333333334" y="-170.72" type="line"/>
      <point x="777.7933333333334" y="-273.8266666666667" type="line"/>
    </contour>
  </outline>
</glyph>
<glyph name="tonos" format="2">
  <advance width="889"/>
  <unicode hex="0384"/>
  <anchor x="399.9266666666667" y="1000.0" name="_GRKtop"/>
  <outline>
    <contour>
      <point x="413.5266666666667" y="1158.5266666666666" type="line"/>
      <point x="361.8533333333333" y="1176.56" type="line"/>
      <point x="472.4066666666667" y="1605.0266666666666" type="line"/>
      <point x="576.2066666666666" y="1592.6066666666668" type="line"/>
      <point x="593.96" y="1563.9066666666668" type="line"/>
    </contour>
  </outline>
</glyph>
<glyph name="Lambda" format="2">
  <advance width="1443"/>
  <unicode hex="039B"/>
  <outline>
    <contour>
      <point x="-28.23333333333333" y="0.0" type="line"/>
      <point x="-28.23333333333333" y="65.09333333333335" type="line"/>
      <point x="160.83333333333334" y="100.09333333333335" type="line"/>
      <point x="328.62666666666667" y="547.14" type="line"/>
      <point x="669.7866666666666" y="1508.0" type="line"/>
      <point x="762.2733333333334" y="1508.0" type="line"/>
      <point x="1095.8866666666668" y="557.0" type="line"/>
      <point x="1267.5333333333333" y="100.03333333333335" type="line"/>
      <point x="1469.9333333333332" y="65.09333333333335" type="line"/>
      <point x="1469.9333333333332" y="0.0" type="line"/>
      <point x="939.7266666666667" y="0.0" type="line"/>
      <point x="940.3933333333334" y="65.09333333333335" type="line"/>
      <point x="1148.0933333333332" y="99.60666666666667" type="line"/>
      <point x="993.8866666666667" y="529.5933333333334" type="line"/>
      <point x="707.52" y="1352.9533333333331" type="line"/>
      <point x="407.62666666666667" y="521.04" type="line"/>
      <point x="259.3666666666667" y="98.66666666666667" type="line"/>
      <point x="464.4" y="65.09333333333335" type="line"/>
      <point x="464.4" y="0.0" type="line"/>
    </contour>
  </outline>
</glyph>
<glyph name="beta" format="2">
  <advance width="1173"/>
  <unicode hex="03B2"/>
  <outline>
    <contour>
      <point x="193.21333333333334" y="-480.0" type="line"/>
      <point x="166.21333333333334" y="-459.6666666666667" type="line"/>
      <point x="175.82" y="156.66666666666669" type="line"/>
      <point x="178.85333333333335" y="964.1866666666666" type="line" smooth="yes"/>
      <point x="179.06666666666666" y="1264.0866666666668"/>
      <point x="413.04" y="1537.6666666666667"/>
      <point x="615.2266666666666" y="1537.6666666666667" type="qcurve" smooth="yes"/>
      <point x="787.72" y="1537.6666666666667"/>
      <point x="988.2133333333334" y="1347.3333333333333"/>
      <point x="988.2133333333334" y="1186.0066666666667" type="qcurve" smooth="yes"/>
      <point x="988.2133333333334" y="1026.5"/>
      <point x="800.36" y="793.0133333333333"/>
      <point x="587.3466666666666" y="754.68" type="qcurve" smooth="yes"/>
      <point x="509.82666666666665" y="740.5466666666666" type="line"/>
      <point x="493.9133333333333" y="778.5133333333333" type="line"/>
      <point x="525.8533333333334" y="885.0" type="line"/>
      <point x="587.18" y="878.2666666666667" type="line" smooth="yes"/>
      <point x="876.9666666666666" y="848.2933333333334"/>
      <point x="1105.5733333333333" y="625.3333333333334"/>
      <point x="1105.5733333333333" y="431.3333333333333" type="qcurve" smooth="yes"/>
      <point x="1105.5733333333333" y="230.66666666666666"/>
      <point x="848.42" y="-21.03333333333333"/>
      <point x="642.4" y="-21.03333333333333" type="qcurve"/>
      <point x="508.4" y="-21.03333333333333"/>
      <point x="312.2" y="69.0"/>
      <point x="231.28" y="174.26666666666665" type="qcurve"/>
      <point x="231.28" y="244.18" type="line"/>
      <point x="261.12666666666667" y="244.18" type="line"/>
      <point x="327.24" y="146.79333333333335"/>
      <point x="508.3133333333334" y="50.18"/>
      <point x="636.2" y="50.18" type="qcurve" smooth="yes"/>
      <point x="791.42" y="50.18"/>
      <point x="985.8666666666667" y="253.33333333333334"/>
      <point x="985.8666666666667" y="422.0" type="qcurve" smooth="yes"/>
      <point x="985.8666666666667" y="618.0"/>
      <point x="765.0" y="792.0"/>
      <point x="599.76" y="796.0" type="qcurve"/>
      <point x="613.2133333333334" y="836.6666666666666" type="line"/>
      <point x="710.0466666666666" y="836.7266666666666"/>
      <point x="886.3866666666667" y="1026.6133333333332"/>
      <point x="886.3866666666667" y="1178.78" type="qcurve" smooth="yes"/>
      <point x="886.3866666666667" y="1318.84"/>
      <point x="731.86" y="1449.94"/>
      <point x="612.28" y="1449.94" type="qcurve" smooth="yes"/>
      <point x="441.7866666666667" y="1449.94"/>
      <point x="281.5866666666667" y="1224.96"/>
      <point x="283.5866666666667" y="975.0" type="qcurve" smooth="yes"/>
      <point x="282.2533333333334" y="152.75333333333333" type="line"/>
      <point x="291.56" y="-469.2133333333333" type="line"/>
    </contour>
  </outline>
</glyph>
<glyph name="delta" format="2">
  <advance width="1062"/>
  <unicode hex="03B4"/>
  <outline>
    <contour>
      <point x="528.8066666666666" y="-21.7" type="qcurve" smooth="yes"/>
      <point x="310.82" y="-21.7"/>
      <point x="65.82666666666667" y="228.0"/>
      <point x="65.82666666666667" y="429.3333333333333" type="qcurve" smooth="yes"/>
      <point x="65.82666666666667" y="621.6666666666666"/>
      <point x="311.0" y="899.0"/>
      <point x="543.8933333333333" y="951.6666666666666" type="qcurve"/>
      <point x="594.24" y="943.0" type="line"/>
      <point x="614.9733333333334" y="916.5333333333334" type="line"/>
      <point x="391.71333333333337" y="858.8"/>
      <point x="181.92666666666668" y="610.6666666666666"/>
      <point x="180.98666666666668" y="432.6666666666667" type="qcurve" smooth="yes"/>
      <point x="180.04666666666668" y="257.3666666666667"/>
      <point x="371.16" y="50.18"/>
      <point x="529.8066666666666" y="50.18" type="qcurve" smooth="yes"/>
      <point x="692.3666666666667" y="50.18"/>
      <point x="882.3866666666667" y="279.1933333333333"/>
      <point x="882.3866666666667" y="445.3333333333333" type="qcurve" smooth="yes"/>
      <point x="882.3866666666667" y="586.62"/>
      <point x="727.1666666666666" y="802.1533333333334"/>
      <point x="512.08" y="902.14" type="qcurve" smooth="yes"/>
      <point x="357.4266666666667" y="975.2666666666667"/>
      <point x="204.64" y="1140.8"/>
      <point x="204.64" y="1243.4666666666667" type="qcurve" smooth="yes"/>
      <point x="204.64" y="1376.7466666666667"/>
      <point x="420.74" y="1538.3333333333333"/>
      <point x="601.9333333333334" y="1538.3333333333333" type="qcurve" smooth="yes"/>
      <point x="711.4133333333334" y="1538.3333333333333"/>
      <point x="917.1933333333334" y="1480.2666666666667"/>
      <point x="956.2" y="1445.9333333333332" type="qcurve"/>
      <point x="955.2866666666666" y="1184.6666666666667" type="line"/>
      <point x="888.1866666666666" y="1184.6666666666667" type="line"/>
      <point x="832.5133333333333" y="1393.4533333333331" type="line"/>
      <point x="807.96" y="1417.12"/>
      <point x="685.7266666666666" y="1452.7866666666666"/>
      <point x="588.6133333333333" y="1452.7866666666666" type="qcurve" smooth="yes"/>
      <point x="462.9533333333333" y="1452.7866666666666"/>
      <point x="309.0133333333333" y="1353.8133333333333"/>
      <point x="309.0133333333333" y="1250.9333333333332" type="qcurve" smooth="yes"/>
      <point x="309.0133333333333" y="1192.72"/>
      <point x="384.62666666666667" y="1079.3466666666668"/>
      <point x="614.7" y="958.5666666666666" type="qcurve" smooth="yes"/>
      <point x="826.0133333333333" y="846.9933333333333"/>
      <point x="996.3933333333334" y="595.0"/>
      <point x="996.3933333333334" y="457.3333333333333" type="qcurve" smooth="yes"/>
      <point x="996.3933333333334" y="255.0"/>
      <point x="737.58" y="-21.7"/>
    </contour>
  </outline>
</glyph>
<glyph name="zeta" format="2">
  <advance width="837"/>
  <unicode hex="03B6"/>
  <outline>
    <contour>
      <point x="695.8466666666666" y="-299.6666666666667" type="line"/>
      <point x="675.5933333333334" y="-133.57333333333335" type="line" smooth="yes"/>
      <point x="668.1066666666667" y="-67.49333333333333"/>
      <point x="635.4666666666666" y="-24.613333333333337"/>
      <point x="593.7" y="-21.553333333333335" type="qcurve" smooth="yes"/>
      <point x="566.5533333333334" y="-19.313333333333336" type="line" smooth="yes"/>
      <point x="311.96" y="0.56"/>
      <point x="65.82666666666667" y="188.44"/>
      <point x="65.82666666666667" y="369.5333333333333" type="qcurve" smooth="yes"/>
      <point x="65.82666666666667" y="526.0933333333334"/>
      <point x="291.06" y="915.7866666666666"/>
      <point x="728.2666666666667" y="1427.8066666666668" type="qcurve"/>
      <point x="737.6666666666666" y="1403.4266666666667" type="line"/>
      <point x="146.98666666666665" y="1401.58" type="line"/>
      <point x="122.17333333333333" y="1423.8266666666668" type="line"/>
      <point x="134.66" y="1527.0933333333332" type="line"/>
      <point x="827.9866666666667" y="1508.0" type="line"/>
      <point x="827.9866666666667" y="1423.76" type="line"/>
      <point x="364.5133333333333" y="874.38"/>
      <point x="177.82666666666668" y="523.3333333333334"/>
      <point x="177.82666666666668" y="374.4" type="qcurve" smooth="yes"/>
      <point x="177.82666666666668" y="239.00666666666666"/>
      <point x="359.68666666666667" y="102.18"/>
      <point x="615.0533333333334" y="85.7" type="qcurve" smooth="yes"/>
      <point x="668.0133333333333" y="82.46" type="line" smooth="yes"/>
      <point x="732.1133333333333" y="78.1"/>
      <point x="783.2133333333334" y="31.273333333333337"/>
      <point x="783.4533333333334" y="-21.15333333333333" type="qcurve"/>
      <point x="761.9066666666666" y="-299.6666666666667" type="line"/>
    </contour>
  </outline>
</glyph>
<glyph name="nu" format="2">
  <advance width="962"/>
  <unicode hex="03BD"/>
  <outline>
    <contour>
      <point x="459.3533333333333" y="-4.6" type="line"/>
      <point x="281.42" y="491.0" type="line"/>
      <point x="157.31333333333333" y="844.6" type="line" smooth="yes"/>
      <point x="147.55333333333334" y="872.6333333333333"/>
      <point x="115.85333333333334" y="898.7866666666666"/>
      <point x="88.24" y="902.8466666666666" type="qcurve" smooth="yes"/>
      <point x="-21.933333333333334" y="917.4533333333334" type="line"/>
      <point x="-21.933333333333334" y="982.7866666666666" type="line"/>
      <point x="143.45333333333335" y="1006.12" type="line"/>
      <point x="185.7266666666667" y="1006.12"/>
      <point x="232.16" y="969.2466666666667"/>
      <point x="248.8" y="915.0" type="qcurve" smooth="yes"/>
      <point x="376.06666666666666" y="523.6666666666666" type="line"/>
      <point x="533.92" y="90.48666666666668" type="line"/>
      <point x="511.06" y="90.48666666666668" type="line"/>
      <point x="668.94" y="528.0" type="line"/>
      <point x="815.1533333333334" y="989.2133333333334" type="line"/>
      <point x="917.4333333333334" y="1000.0" type="line"/>
      <point x="944.4333333333334" y="979.6666666666666" type="line"/>
      <point x="749.0" y="489.6666666666667" type="line"/>
      <point x="564.76" y="-4.6" type="line"/>
    </contour>
  </outline>
</glyph>
<glyph name="pi" format="2">
  <advance width="1207"/>
  <unicode hex="03C0"/>
  <outline>
    <contour>
      <point x="1139.02" y="885.5733333333334" type="line"/>
      <point x="59.44" y="894.6066666666667" type="line"/>
      <point x="59.44" y="958.4866666666667" type="line"/>
      <point x="181.12" y="992.0066666666667" type="line"/>
      <point x="1126.9333333333332" y="1009.4" type="line"/>
      <point x="1151.7466666666667" y="987.1533333333334" type="line"/>
    </contour>
    <contour>
      <point x="244.9" y="0.0" type="line"/>
      <point x="217.9" y="20.333333333333336" type="line"/>
      <point x="263.2733333333333" y="449.9133333333333" type="line"/>
      <point x="311.8" y="932.2733333333334" type="line"/>
      <point x="382.74" y="932.2733333333334" type="line"/>
      <point x="361.43333333333334" y="445.0" type="line"/>
      <point x="346.58" y="10.786666666666667" type="line"/>
    </contour>
    <contour>
      <point x="975.9533333333334" y="-8.0" type="line"/>
      <point x="895.98" y="-6.06"/>
      <point x="825.04" y="88.78"/>
      <point x="830.04" y="268.5266666666667" type="qcurve" smooth="yes"/>
      <point x="848.34" y="932.2733333333334" type="line"/>
      <point x="931.1066666666667" y="932.2733333333334" type="line"/>
      <point x="932.8" y="273.46" type="line" smooth="yes"/>
      <point x="932.86" y="175.04666666666665"/>
      <point x="980.66" y="83.61333333333334"/>
      <point x="1052.86" y="84.12666666666667" type="qcurve"/>
      <point x="1128.7066666666667" y="84.12666666666667" type="line"/>
      <point x="1128.7066666666667" y="26.546666666666667" type="line"/>
    </contour>
  </outline>
</glyph>
<glyph name="rho" format="2">
  <advance width="1090"/>
  <unicode hex="03C1"/>
  <outline>
    <contour>
      <point x="128.82666666666665" y="-480.0" type="line"/>
      <point x="102.54666666666667" y="-459.6666666666667" type="line"/>
      <point x="113.03333333333333" y="91.33333333333334" type="line"/>
      <point x="114.36666666666667" y="436.6666666666667" type="line" smooth="yes"/>
      <point x="114.36666666666667" y="738.3333333333334"/>
      <point x="352.81333333333333" y="1020.4866666666667"/>
      <point x="567.2533333333333" y="1020.4866666666667" type="qcurve" smooth="yes"/>
      <point x="779.5133333333333" y="1020.4866666666667"/>
      <point x="1019.1666666666667" y="745.0133333333333"/>
      <point x="1019.1666666666667" y="516.6666666666666" type="qcurve" smooth="yes"/>
      <point x="1019.1666666666667" y="287.1"/>
      <point x="768.02" y="-17.606666666666666"/>
      <point x="550.9333333333334" y="-18.0" type="qcurve" smooth="yes"/>
      <point x="426.94" y="-18.333333333333332"/>
      <point x="231.62666666666667" y="86.33333333333333"/>
      <point x="167.10666666666668" y="177.8" type="qcurve"/>
      <point x="167.10666666666668" y="243.14" type="line"/>
      <point x="198.69333333333336" y="243.14" type="line"/>
      <point x="258.3266666666667" y="153.28"/>
      <point x="432.7133333333333" y="51.0"/>
      <point x="546.0733333333334" y="51.0" type="qcurve" smooth="yes"/>
      <point x="703.4066666666666" y="51.0"/>
      <point x="900.0066666666667" y="287.12666666666667"/>
      <point x="900.0066666666667" y="513.8133333333334" type="qcurve" smooth="yes"/>
      <point x="900.0066666666667" y="706.92"/>
      <point x="725.7133333333334" y="928.6"/>
      <point x="556.4866666666667" y="928.6" type="qcurve" smooth="yes"/>
      <point x="381.78" y="928.6"/>
      <point x="214.1" y="691.9333333333334"/>
      <point x="217.04" y="427.6666666666667" type="qcurve"/>
      <point x="217.76666666666668" y="153.33333333333331" type="line"/>
      <point x="227.65333333333334" y="-469.3333333333333" type="line"/>
    </contour>
  </outline>
</glyph>
<glyph name="phi" format="2">
  <advance width="1313"/>
  <unicode hex="03C6"/>
  <outline>
    <contour>
      <point x="638.1933333333334" y="-21.30666666666667" type="line"/>
      <point x="342.5" y="-14.033333333333333"/>
      <point x="55.946666666666665" y="262.9266666666667"/>
      <point x="55.946666666666665" y="475.5333333333333" type="qcurve" smooth="yes"/>
      <point x="55.946666666666665" y="722.3266666666666"/>
      <point x="356.8333333333333" y="1019.4266666666666"/>
      <point x="642.7066666666666" y="1022.0933333333334" type="qcurve"/>
      <point x="642.7066666666666" y="954.2133333333334" type="line"/>
      <point x="413.6533333333333" y="950.88"/>
      <point x="171.32" y="718.2733333333334"/>
      <point x="171.32" y="491.24" type="qcurve" smooth="yes"/>
      <point x="171.32" y="281.08"/>
      <point x="415.2866666666667" y="53.24"/>
      <point x="638.1933333333334" y="50.21333333333334" type="qcurve"/>
    </contour>
    <contour>
      <point x="678.2333333333333" y="-21.30666666666667" type="qcurve"/>
      <point x="678.2333333333333" y="50.21333333333334" type="line"/>
      <point x="906.34" y="53.90666666666667"/>
      <point x="1141.8266666666668" y="286.87333333333333"/>
      <point x="1141.8266666666668" y="512.4666666666666" type="qcurve" smooth="yes"/>
      <point x="1141.8266666666668" y="724.0666666666666"/>
      <point x="904.3466666666666" y="951.5466666666666"/>
      <point x="671.8066666666666" y="954.2133333333334" type="qcurve"/>
      <point x="671.8066666666666" y="1022.0933333333334" type="line"/>
      <point x="969.5066666666667" y="1015.24"/>
      <point x="1257.2" y="738.82"/>
      <point x="1257.2" y="524.5333333333334" type="qcurve" smooth="yes"/>
      <point x="1257.2" y="279.42"/>
      <point x="957.4533333333334" y="-18.22"/>
    </contour>
    <contour>
      <point x="622.8733333333333" y="-480.0" type="line"/>
      <point x="595.8733333333333" y="-459.6666666666667" type="line"/>
      <point x="604.54" y="13.353333333333335" type="line"/>
      <point x="607.54" y="13.353333333333335" type="line"/>
      <point x="616.5733333333334" y="988.0666666666666" type="line"/>
      <point x="615.5733333333334" y="988.0666666666666" type="line"/>
      <point x="615.24" y="1427.6066666666668" type="line"/>
      <point x="671.5733333333334" y="1434.48" type="line"/>
      <point x="698.4533333333334" y="1413.3666666666668" type="line"/>
      <point x="698.88" y="988.0666666666666" type="line"/>
      <point x="697.88" y="988.0666666666666" type="line"/>
      <point x="709.5533333333334" y="13.353333333333335" type="line"/>
      <point x="712.5533333333334" y="13.353333333333335" type="line"/>
      <point x="721.22" y="-469.2133333333333" type="line"/>
    </contour>
  </outline>
</glyph>
<glyph name="omega" format="2">
  <advance width="1446"/>
  <unicode hex="03C9"/>
  <anchor x="734.8066666666666" y="1000.0" name="GRKtop"/>
  <outline>
    <contour>
      <point x="442.7733333333333" y="-21.7" type="qcurve" smooth="yes"/>
      <point x="255.60666666666668" y="-21.7"/>
      <point x="75.94666666666667" y="228.80666666666664"/>
      <point x="75.94666666666667" y="420.3333333333333" type="qcurve" smooth="yes"/>
      <point x="75.94666666666667" y="615.6666666666666"/>
      <point x="247.43333333333334" y="931.8866666666667"/>
      <point x="386.1933333333333" y="1006.3333333333334" type="qcurve"/>
      <point x="432.3066666666667" y="976.46" type="line"/>
      <point x="319.06" y="887.46"/>
      <point x="190.07333333333335" y="619.3333333333334"/>
      <point x="190.07333333333335" y="418.3333333333333" type="qcurve" smooth="yes"/>
      <point x="190.07333333333335" y="248.98666666666665"/>
      <point x="319.6733333333333" y="71.93333333333334"/>
      <point x="440.4266666666667" y="71.93333333333334" type="qcurve" smooth="yes"/>
      <point x="567.4066666666666" y="71.93333333333334"/>
      <point x="695.14" y="305.1333333333333"/>
      <point x="696.3533333333334" y="541.3333333333334" type="qcurve"/>
      <point x="753.3" y="541.3333333333334" type="line"/>
      <point x="755.2133333333334" y="302.00666666666666"/>
      <point x="872.08" y="71.93333333333334"/>
      <point x="992.82" y="71.93333333333334" type="qcurve" smooth="yes"/>
      <point x="1117.6066666666668" y="71.93333333333334"/>
      <point x="1254.6066666666668" y="279.06666666666666"/>
      <point x="1254.6066666666668" y="467.93333333333334" type="qcurve" smooth="yes"/>
      <point x="1254.6066666666668" y="623.5066666666667"/>
      <point x="1148.7533333333333" y="872.86"/>
      <point x="1042.4533333333331" y="978.36" type="qcurve"/>
      <point x="1122.6733333333332" y="1027.6666666666667" type="line"/>
      <point x="1241.76" y="919.6866666666666"/>
      <point x="1370.0666666666668" y="636.7533333333333"/>
      <point x="1370.0666666666668" y="489.4" type="qcurve" smooth="yes"/>
      <point x="1370.0666666666668" y="258.2866666666667"/>
      <point x="1158.6" y="-21.7"/>
      <point x="998.9" y="-21.7" type="qcurve" smooth="yes"/>
      <point x="827.4666666666666" y="-21.7"/>
      <point x="661.88" y="298.3466666666667"/>
      <point x="661.88" y="617.7933333333334" type="qcurve" smooth="yes"/>
      <point x="661.88" y="711.3266666666666" type="line"/>
      <point x="761.4933333333333" y="724.78" type="line"/>
      <point x="788.4933333333333" y="704.4466666666666" type="line"/>
      <point x="788.4933333333333" y="617.9133333333334" type="line" smooth="yes"/>
      <point x="788.4933333333333" y="313.0466666666667"/>
      <point x="612.0733333333334" y="-21.7"/>
    </contour>
  </outline>
</glyph>
<glyph name="Tshe" format="2">
  <advance width="1745"/>
  <unicode hex="040B"/>
  <outline>
    <contour>
      <point x="1703.9933333333333" y="65.09333333333335" type="line"/>
      <point x="1703.9933333333333" y="0.0" type="line"/>
      <point x="1370.6533333333332" y="0.0" type="line"/>
      <point x="1372.9866666666667" y="437.93333333333334" type="line" smooth="yes"/>
      <point x="1373.6533333333332" y="610.9"/>
      <point x="1206.8767521367492" y="770.6"/>
      <point x="1033.1933333333332" y="770.6" type="qcurve" smooth="yes"/>
      <point x="907.473442654996" y="770.6"/>
      <point x="722.3350733499207" y="738.7427982547354"/>
      <point x="631.1" y="706.8266666666666" type="qcurve"/>
      <point x="631.1" y="788.32" type="line"/>
      <point x="722.7274664241986" y="822.2389806312626"/>
      <point x="918.9195003057894" y="856.76"/>
      <point x="1042.4533333333331" y="856.76" type="qcurve" smooth="yes"/>
      <point x="1262.6051790633612" y="856.76"/>
      <point x="1483.54" y="657.6733333333334"/>
      <point x="1484.2666666666667" y="442.2666666666667" type="qcurve" smooth="yes"/>
      <point x="1484.9933333333333" y="100.09333333333335" type="line"/>
    </contour>
    <contour>
      <point x="58.0" y="1096.5333333333333" type="line"/>
      <point x="58.0" y="1500.0" type="line"/>
      <point x="1256.8666666666668" y="1500.0" type="line"/>
      <point x="1256.8666666666668" y="1109.2666666666667" type="line"/>
      <point x="1184.2" y="1109.2666666666667" type="line"/>
      <point x="1137.2" y="1422.6666666666667" type="line"/>
      <point x="710.8333333333334" y="1422.6666666666667" type="line"/>
      <point x="687.4666666666666" y="1408.0" type="line"/>
      <point x="685.4666666666666" y="754.0" type="line"/>
      <point x="687.4666666666666" y="100.30666666666667" type="line"/>
      <point x="925.3466666666666" y="65.03333333333335" type="line"/>
      <point x="925.3466666666666" y="0.0" type="line"/>
      <point x="332.7333333333333" y="0.0" type="line"/>
      <point x="332.7333333333333" y="65.03333333333335" type="line"/>
      <point x="574.7333333333333" y="100.30666666666667" type="line"/>
      <point x="576.7333333333333" y="754.0" type="line"/>
      <point x="574.7333333333333" y="1406.6666666666667" type="line"/>
      <point x="554.7666666666667" y="1422.6666666666667" type="line"/>
      <point x="172.33333333333334" y="1422.6666666666667" type="line"/>
      <point x="131.33333333333334" y="1096.5333333333333" type="line"/>
    </contour>
  </outline>
</glyph>
<glyph name="Dzhe" format="2">
  <advance width="1681"/>
  <unicode hex="040F"/>
  <outline>
    <contour>
      <point x="802.0733333333334" y="-338.0" type="line"/>
      <point x="760.7066666666666" y="0.0" type="line"/>
      <point x="83.24" y="0.0" type="line"/>
      <point x="83.24" y="65.81333333333335" type="line"/>
      <point x="301.5733333333333" y="100.75333333333334" type="line"/>
      <point x="303.5733333333333" y="748.6" type="line"/>
      <point x="301.5733333333333" y="1397.6866666666667" type="line"/>
      <point x="83.24" y="1431.7466666666667" type="line"/>
      <point x="83.24" y="1500.0" type="line"/>
      <point x="638.7066666666666" y="1500.0" type="line"/>
      <point x="638.7066666666666" y="1431.7466666666667" type="line"/>
      <point x="414.3066666666667" y="1397.6866666666667" type="line"/>
      <point x="412.3066666666667" y="748.6" type="line"/>
      <point x="412.9733333333333" y="101.45333333333335" type="line"/>
      <point x="441.7733333333333" y="74.6" type="line"/>
      <point x="1239.1733333333332" y="74.6" type="line"/>
      <point x="1267.9733333333334" y="101.45333333333335" type="line"/>
      <point x="1268.64" y="748.6" type="line"/>
      <point x="1266.64" y="1397.6866666666667" type="line"/>
      <point x="1042.24" y="1431.7466666666667" type="line"/>
      <point x="1042.24" y="1500.0" type="line"/>
      <point x="1597.7066666666667" y="1500.0" type="line"/>
      <point x="1597.7066666666667" y="1431.7466666666667" type="line"/>
      <point x="1379.3733333333332" y="1397.6866666666667" type="line"/>
      <point x="1377.3733333333332" y="748.6" type="line"/>
      <point x="1379.3733333333332" y="100.75333333333334" type="line"/>
      <point x="1597.7066666666667" y="65.81333333333335" type="line"/>
      <point x="1597.7066666666667" y="0.0" type="line"/>
      <point x="920.24" y="0.0" type="line"/>
      <point x="878.2066666666666" y="-338.0" type="line"/>
    </contour>
  </outline>
</glyph>
<glyph name="Ze" format="2">
  <advance width="1267"/>
  <unicode hex="0417"/>
  <outline>
    <contour>
      <point x="674.7866666666666" y="-29.793333333333333" type="qcurve" smooth="yes"/>
      <point x="536.7733333333334" y="-29.793333333333333"/>
      <point x="333.5466666666667" y="39.013333333333335"/>
      <point x="262.8666666666667" y="97.88" type="qcurve"/>
      <point x="239.04" y="-10.4" type="line"/>
      <point x="169.22" y="-10.4" type="line"/>
      <point x="169.22" y="448.6666666666667" type="line"/>
      <point x="244.98" y="448.6666666666667" type="line"/>
      <point x="269.5866666666667" y="317.32" type="line" smooth="yes"/>
      <point x="293.8666666666667" y="183.11333333333334"/>
      <point x="502.1533333333333" y="56.44666666666667"/>
      <point x="670.1533333333334" y="56.44666666666667" type="qcurve" smooth="yes"/>
      <point x="869.3933333333333" y="56.44666666666667"/>
      <point x="1072.88" y="236.93333333333334"/>
      <point x="1072.88" y="412.7866666666667" type="qcurve" smooth="yes"/>
      <point x="1072.88" y="559.1066666666667"/>
      <point x="903.0466666666666" y="742.6533333333334"/>
      <point x="687.2733333333334" y="742.4733333333334" type="qcurve" smooth="yes"/>
      <point x="506.52" y="742.2933333333334" type="line"/>
      <point x="506.52" y="822.4466666666666" type="line"/>
      <point x="681.7733333333334" y="822.3266666666666" type="line" smooth="yes"/>
      <point x="833.8866666666667" y="822.2066666666666"/>
      <point x="1003.9066666666666" y="984.42503546099"/>
      <point x="1003.9066666666666" y="1138.3" type="qcurve" smooth="yes"/>
      <point x="1003.9066666666666" y="1286.9933333333333"/>
      <point x="824.2733333333334" y="1433.64"/>
      <point x="673.0333333333334" y="1433.64" type="qcurve" smooth="yes"/>
      <point x="519.8333333333334" y="1433.64"/>
      <point x="322.4866666666667" y="1305.76"/>
      <point x="301.3866666666667" y="1180.22" type="qcurve" smooth="yes"/>
      <point x="278.78" y="1050.94" type="line"/>
      <point x="203.02" y="1050.94" type="line"/>
      <point x="203.02" y="1499.94" type="line"/>
      <point x="272.84" y="1499.94" type="line"/>
      <point x="300.0" y="1398.3266666666668" type="line"/>
      <point x="358.20539309749466" y="1451.10947977296"/>
      <point x="555.273073929962" y="1519.3333333333333"/>
      <point x="680.1466666666666" y="1519.3333333333333" type="qcurve" smooth="yes"/>
      <point x="891.2971014492746" y="1519.3333333333333"/>
      <point x="1120.1533333333332" y="1322.24"/>
      <point x="1120.1533333333332" y="1149.54" type="qcurve" smooth="yes"/>
      <point x="1120.1533333333332" y="1015.5596917148433"/>
      <point x="990.8748945816227" y="834.9623683873034"/>
      <point x="875.8" y="799.4066666666666" type="qcurve"/>
      <point x="875.8" y="792.4066666666666" type="line"/>
      <point x="1007.4901136395526" y="766.5986861143"/>
      <point x="1192.34" y="582.4605319149047"/>
      <point x="1192.34" y="409.6333333333333" type="qcurve" smooth="yes"/>
      <point x="1192.34" y="208.42"/>
      <point x="921.7" y="-29.793333333333333"/>
    </contour>
  </outline>
</glyph>
<glyph name="Che" format="2">
  <advance width="1623"/>
  <unicode hex="0427"/>
  <guideline x="1330.0" y="777.0" angle="90.0" identifier="9CLqHZNG04"/>
  <outline>
    <contour>
      <point x="971.4333333333334" y="0.0" type="line"/>
      <point x="971.4333333333334" y="65.09333333333335" type="line"/>
      <point x="1209.1666666666667" y="100.09333333333335" type="line"/>
      <point x="1211.1666666666667" y="754.0" type="line"/>
      <point x="1209.1666666666667" y="1397.0266666666666" type="line"/>
      <point x="984.7666666666667" y="1431.0266666666666" type="line"/>
      <point x="984.7666666666667" y="1500.0" type="line"/>
      <point x="1540.2333333333333" y="1500.0" type="line"/>
      <point x="1540.2333333333333" y="1431.0266666666666" type="line"/>
      <point x="1321.9" y="1397.0266666666666" type="line"/>
      <point x="1319.9" y="754.0" type="line"/>
      <point x="1321.9" y="100.09333333333335" type="line"/>
      <point x="1540.2333333333333" y="65.09333333333335" type="line"/>
      <point x="1540.2333333333333" y="0.0" type="line"/>
    </contour>
    <contour>
      <point x="55.46666666666666" y="1431.0266666666666" type="line"/>
      <point x="55.46666666666666" y="1500.0" type="line"/>
      <point x="610.9333333333334" y="1500.0" type="line"/>
      <point x="610.9333333333334" y="1431.0266666666666" type="line"/>
      <point x="386.8066666666667" y="1397.0266666666666" type="line"/>
      <point x="385.8066666666667" y="1068.6" type="line" smooth="yes"/>
      <point x="384.84623070516267" y="866.3236170643446"/>
      <point x="597.62" y="705.2"/>
      <point x="831.92" y="705.2" type="qcurve" smooth="yes"/>
      <point x="952.69549815498" y="705.2"/>
      <point x="1162.46193086386" y="741.374764388682"/>
      <point x="1265.5333333333333" y="777.64" type="qcurve"/>
      <point x="1265.5333333333333" y="698.8133333333334" type="line"/>
      <point x="1161.7918391958153" y="662.274241894342"/>
      <point x="948.4708666666667" y="624.3733333333333"/>
      <point x="790.7" y="624.3733333333333" type="qcurve" smooth="yes"/>
      <point x="543.1133333333333" y="624.3733333333333"/>
      <point x="275.2231052944953" y="822.9603569202307"/>
      <point x="274.5266666666667" y="1075.6" type="qcurve" smooth="yes"/>
      <point x="273.8" y="1397.0266666666666" type="line"/>
    </contour>
  </outline>
</glyph>
<glyph name="Sha" format="2">
  <advance width="2253"/>
  <unicode hex="0428"/>
  <outline>
    <contour>
      <point x="1186.24" y="101.03333333333335" type="line"/>
      <point x="1215.52" y="74.0" type="line"/>
      <point x="1809.4933333333333" y="74.0" type="line"/>
      <point x="1838.7733333333333" y="101.03333333333335" type="line"/>
      <point x="1840.7733333333333" y="751.3333333333334" type="line"/>
      <point x="1838.7733333333333" y="1397.6866666666667" type="line"/>
      <point x="1614.3733333333332" y="1431.7466666666667" type="line"/>
      <point x="1614.3733333333332" y="1500.0" type="line"/>
      <point x="2169.84" y="1500.0" type="line"/>
      <point x="2169.84" y="1431.7466666666667" type="line"/>
      <point x="1951.5066666666667" y="1397.6866666666667" type="line"/>
      <point x="1949.5066666666667" y="751.3333333333334" type="line"/>
      <point x="1951.5066666666667" y="99.42666666666668" type="line"/>
      <point x="2169.84" y="65.09333333333335" type="line"/>
      <point x="2169.84" y="0.0" type="line"/>
      <point x="83.24" y="0.0" type="line"/>
      <point x="83.24" y="65.09333333333335" type="line"/>
      <point x="301.5733333333333" y="99.42666666666668" type="line"/>
      <point x="303.5733333333333" y="751.3333333333334" type="line"/>
      <point x="301.5733333333333" y="1397.6866666666667" type="line"/>
      <point x="83.24" y="1431.7466666666667" type="line"/>
      <point x="83.24" y="1500.0" type="line"/>
      <point x="618.7066666666666" y="1500.0" type="line"/>
      <point x="618.7066666666666" y="1431.7466666666667" type="line"/>
      <point x="414.3066666666667" y="1397.6866666666667" type="line"/>
      <point x="412.3066666666667" y="751.3333333333334" type="line"/>
      <point x="412.9733333333333" y="101.03333333333335" type="line"/>
      <point x="442.25333333333333" y="74.0" type="line"/>
      <point x="1044.2266666666667" y="74.0" type="line"/>
      <point x="1073.5066666666667" y="101.03333333333335" type="line"/>
      <point x="1075.5066666666667" y="753.52" type="line"/>
      <point x="1073.5066666666667" y="1396.8666666666668" type="line"/>
      <point x="865.7733333333334" y="1427.9866666666667" type="line"/>
      <point x="865.7733333333334" y="1500.0" type="line"/>
      <point x="1393.3733333333332" y="1500.0" type="line"/>
      <point x="1393.3733333333332" y="1427.9866666666667" type="line"/>
      <point x="1186.24" y="1396.8666666666668" type="line"/>
      <point x="1184.24" y="753.52" type="line"/>
    </contour>
  </outline>
</glyph>
<glyph name="Yu" format="2">
  <advance width="2221"/>
  <unicode hex="042E"/>
  <guideline x="732.0" y="785.0" angle="90.0" identifier="6nH5tb4DEh"/>
  <outline>
    <contour>
      <point x="83.24" y="0.0" type="line"/>
      <point x="83.24" y="65.09333333333335" type="line"/>
      <point x="301.5733333333333" y="100.09333333333335" type="line"/>
      <point x="303.5733333333333" y="754.0" type="line"/>
      <point x="301.5733333333333" y="1397.0266666666666" type="line"/>
      <point x="83.24" y="1431.0266666666666" type="line"/>
      <point x="83.24" y="1500.0" type="line"/>
      <point x="638.7066666666666" y="1500.0" type="line"/>
      <point x="638.7066666666666" y="1431.0266666666666" type="line"/>
      <point x="414.3066666666667" y="1397.0266666666666" type="line"/>
      <point x="412.3066666666667" y="754.0" type="line"/>
      <point x="414.3066666666667" y="100.09333333333335" type="line"/>
      <point x="638.7066666666666" y="65.09333333333335" type="line"/>
      <point x="638.7066666666666" y="0.0" type="line"/>
    </contour>
    <contour>
      <point x="357.94" y="743.4533333333334" type="line"/>
      <point x="357.94" y="828.5466666666666" type="line"/>
      <point x="756.8133333333334" y="820.5466666666666" type="line"/>
      <point x="756.8133333333334" y="743.4533333333334" type="line"/>
    </contour>
    <contour>
      <point x="698.84" y="737.24" type="qcurve" smooth="yes"/>
      <point x="698.84" y="1068.12"/>
      <point x="1094.9266666666667" y="1520.0"/>
      <point x="1418.6333333333332" y="1520.0" type="qcurve" smooth="yes"/>
      <point x="1742.34" y="1520.0"/>
      <point x="2138.3666666666663" y="1097.12"/>
      <point x="2138.3666666666663" y="752.24" type="qcurve" smooth="yes"/>
      <point x="2138.3666666666663" y="423.36"/>
      <point x="1746.22" y="-30.46"/>
      <point x="1422.5133333333333" y="-30.46" type="qcurve" smooth="yes"/>
      <point x="1105.96" y="-30.46"/>
      <point x="698.84" y="396.42"/>
    </contour>
    <contour>
      <point x="814.7866666666666" y="776.5733333333334" type="qcurve" smooth="yes"/>
      <point x="814.7866666666666" y="461.0266666666667"/>
      <point x="1150.7786863106207" y="56.14666666666667"/>
      <point x="1422.5733333333333" y="56.14666666666667" type="qcurve" smooth="yes"/>
      <point x="1709.1133704390854" y="56.14666666666667"/>
      <point x="2023.1466666666665" y="422.36"/>
      <point x="2023.1466666666665" y="747.9066666666666" type="qcurve" smooth="yes"/>
      <point x="2023.1466666666665" y="1043.5133333333333"/>
      <point x="1696.6437353123133" y="1430.7266666666667"/>
      <point x="1422.5733333333333" y="1430.7266666666667" type="qcurve" smooth="yes"/>
      <point x="1134.0342786985818" y="1430.7266666666667"/>
      <point x="814.7866666666666" y="1072.5133333333333"/>
    </contour>
  </outline>
</glyph>
<glyph name="Ya" format="2">
  <advance width="1414"/>
  <unicode hex="042F"/>
  <outline>
    <contour>
      <point x="636.9866666666667" y="745.64" type="line"/>
      <point x="345.86" y="266.3333333333333" type="line" smooth="yes"/>
      <point x="260.75333333333333" y="126.94"/>
      <point x="136.34666666666666" y="66.33333333333334"/>
      <point x="35.166666666666664" y="65.33333333333334" type="qcurve"/>
      <point x="35.166666666666664" y="0.0" type="line"/>
      <point x="293.3466666666667" y="0.0" type="line"/>
      <point x="317.8066666666667" y="15.333333333333334" type="line"/>
      <point x="746.9666666666666" y="729.1" type="line"/>
    </contour>
    <contour>
      <point x="746.8733333333333" y="778.08" type="line" smooth="yes"/>
      <point x="578.9933333333333" y="776.7466666666667"/>
      <point x="387.7666666666667" y="949.14"/>
      <point x="387.7666666666667" y="1104.9" type="qcurve" smooth="yes"/>
      <point x="387.7666666666667" y="1253.9133333333332"/>
      <point x="575.8733333333333" y="1421.3333333333333"/>
      <point x="738.2066666666666" y="1421.3333333333333" type="qcurve" smooth="yes"/>
      <point x="954.3066666666666" y="1421.3333333333333" type="line"/>
      <point x="987.4666666666666" y="1400.9066666666668" type="line"/>
      <point x="989.8" y="784.5333333333334" type="line"/>
      <point x="987.8" y="99.21333333333334" type="line"/>
      <point x="747.2733333333334" y="65.09333333333335" type="line"/>
      <point x="747.2733333333334" y="0.0" type="line"/>
      <point x="1330.8666666666668" y="0.0" type="line"/>
      <point x="1330.8666666666668" y="65.03333333333335" type="line"/>
      <point x="1100.5333333333333" y="100.58" type="line"/>
      <point x="1098.5333333333333" y="756.7333333333333" type="line"/>
      <point x="1100.5333333333333" y="1397.0266666666666" type="line"/>
      <point x="1319.5333333333333" y="1431.0266666666666" type="line"/>
      <point x="1319.5333333333333" y="1500.0" type="line"/>
      <point x="728.2133333333334" y="1500.0" type="line" smooth="yes"/>
      <point x="504.98" y="1500.0"/>
      <point x="268.2133333333333" y="1285.8333333333333"/>
      <point x="268.2133333333333" y="1103.48" type="qcurve" smooth="yes"/>
      <point x="268.2133333333333" y="931.3073584905594"/>
      <point x="480.72" y="725.5733333333334"/>
      <point x="674.7066666666666" y="710.26" type="qcurve"/>
      <point x="695.96" y="703.5333333333334" type="line"/>
      <point x="1044.1666666666667" y="710.2" type="line"/>
      <point x="1044.1666666666667" y="780.08" type="line"/>
    </contour>
  </outline>
</glyph>
<glyph name="ve" format="2">
  <advance width="990"/>
  <unicode hex="0432"/>
  <guideline x="302.0" y="625.0" angle="90.0" identifier="FqbstdQzDn"/>
  <guideline x="953.0" y="554.0" angle="90.0" identifier="zbbKiP68t3"/>
  <outline>
    <contour>
      <point x="583.5266666666666" y="0.0" type="qcurve" smooth="yes"/>
      <point x="84.86666666666667" y="0.0" type="line"/>
      <point x="84.86666666666667" y="53.333333333333336" type="line"/>
      <point x="243.32" y="83.0" type="line"/>
      <point x="245.32" y="500.0" type="line"/>
      <point x="243.32" y="917.0" type="line"/>
      <point x="84.86666666666667" y="946.6666666666666" type="line"/>
      <point x="84.86666666666667" y="1000.0" type="line"/>
      <point x="581.4266666666666" y="1000.0" type="line" smooth="yes"/>
      <point x="732.5266666666666" y="1000.0"/>
      <point x="881.6266666666667" y="874.6666666666666"/>
      <point x="881.6266666666667" y="766.3333333333334" type="qcurve" smooth="yes"/>
      <point x="881.6266666666667" y="677.3333333333334"/>
      <point x="798.9866666666667" y="558.94"/>
      <point x="716.8933333333333" y="529.0" type="qcurve"/>
      <point x="716.8933333333333" y="525.0" type="line"/>
      <point x="812.912169281" y="512.0450590183333"/>
      <point x="942.7266666666666" y="386.67720685113335"/>
      <point x="942.7266666666666" y="277.3333333333333" type="qcurve" smooth="yes"/>
      <point x="942.7266666666666" y="145.42039800993334"/>
      <point x="755.02" y="0.0"/>
    </contour>
    <contour>
      <point x="297.96" y="548.6666666666666" type="line"/>
      <point x="547.4266666666666" y="547.3333333333334" type="line" smooth="yes"/>
      <point x="658.4933333333333" y="546.6666666666666"/>
      <point x="770.56" y="650.3333333333334"/>
      <point x="770.56" y="744.0" type="qcurve" smooth="yes"/>
      <point x="770.56" y="842.6666666666666"/>
      <point x="659.8266666666666" y="927.3333333333334"/>
      <point x="554.4266666666666" y="927.3333333333334" type="qcurve" smooth="yes"/>
      <point x="352.48" y="927.3333333333334" type="line"/>
      <point x="350.6" y="500.0" type="line"/>
      <point x="352.48" y="72.0" type="line"/>
      <point x="577.5266666666666" y="72.0" type="line" smooth="yes"/>
      <point x="707.26" y="72.0"/>
      <point x="827.66" y="174.6507936508"/>
      <point x="827.66" y="278.6666666666667" type="qcurve" smooth="yes"/>
      <point x="827.66" y="374.06349206346664"/>
      <point x="715.5933333333334" y="477.3333333333333"/>
      <point x="597.5266666666666" y="476.6666666666667" type="qcurve" smooth="yes"/>
      <point x="297.96" y="475.3333333333333" type="line"/>
    </contour>
  </outline>
</glyph>
<glyph name="ghe" format="2">
  <advance width="909"/>
  <unicode hex="0433"/>
  <guideline x="302.0" y="625.0" angle="90.0" identifier="jHuxcyi1x5"/>
  <guideline x="953.0" y="554.0" angle="90.0" identifier="b1mHk7wgTR"/>
  <guideline x="627.0" y="553.0" angle="90.0" identifier="m4aYe0x4PZ"/>
  <outline>
    <contour>
      <point x="863.1333333333333" y="1000.0" type="line"/>
      <point x="863.1333333333333" y="714.0" type="line"/>
      <point x="794.2133333333334" y="714.0" type="line"/>
      <point x="748.34" y="925.9666666666666" type="line"/>
      <point x="352.54" y="925.9666666666666" type="line"/>
      <point x="350.54" y="499.94" type="line"/>
      <point x="352.54" y="83.0" type="line"/>
      <point x="529.06" y="53.333333333333336" type="line"/>
      <point x="529.06" y="0.0" type="line"/>
      <point x="84.86666666666667" y="0.0" type="line"/>
      <point x="84.86666666666667" y="53.333333333333336" type="line"/>
      <point x="243.32" y="83.0" type="line"/>
      <point x="245.44" y="500.0" type="line"/>
      <point x="243.32" y="917.0" type="line"/>
      <point x="84.86666666666667" y="946.6666666666666" type="line"/>
      <point x="84.86666666666667" y="1000.0" type="line"/>
    </contour>
  </outline>
</glyph>
<glyph name="pe" format="2">
  <advance width="1247"/>
  <unicode hex="043F"/>
  <guideline x="302.0" y="625.0" angle="90.0" identifier="jHuxcyi1x5"/>
  <guideline x="953.0" y="554.0" angle="90.0" identifier="b1mHk7wgTR"/>
  <guideline x="627.0" y="553.0" angle="90.0" identifier="m4aYe0x4PZ"/>
  <outline>
    <contour>
      <point x="245.38" y="500.0" type="line"/>
      <point x="243.32" y="917.0" type="line"/>
      <point x="84.86666666666667" y="946.6666666666666" type="line"/>
      <point x="84.86666666666667" y="1000.0" type="line"/>
      <point x="1162.4133333333332" y="1000.0" type="line"/>
      <point x="1162.4133333333332" y="946.6666666666666" type="line"/>
      <point x="1003.96" y="917.0" type="line"/>
      <point x="1001.9" y="500.0" type="line"/>
      <point x="1003.96" y="83.0" type="line"/>
      <point x="1162.4133333333332" y="53.333333333333336" type="line"/>
      <point x="1162.4133333333332" y="0.0" type="line"/>
      <point x="742.2133333333334" y="0.0" type="line"/>
      <point x="742.2133333333334" y="53.333333333333336" type="line"/>
      <point x="894.74" y="83.0" type="line"/>
      <point x="896.74" y="499.94" type="line"/>
      <point x="894.74" y="925.9666666666666" type="line"/>
      <point x="352.54" y="925.9666666666666" type="line"/>
      <point x="350.54" y="499.76" type="line"/>
      <point x="352.54" y="83.0" type="line"/>
      <point x="505.0666666666666" y="53.333333333333336" type="line"/>
      <point x="505.0666666666666" y="0.0" type="line"/>
      <point x="84.86666666666667" y="0.0" type="line"/>
      <point x="84.86666666666667" y="53.333333333333336" type="line"/>
      <point x="243.32" y="83.0" type="line"/>
    </contour>
  </outline>
</glyph>
<glyph name="che" format="2">
  <advance width="1192"/>
  <unicode hex="0447"/>
  <guideline x="302.0" y="625.0" angle="90.0" identifier="jHuxcyi1x5"/>
  <guideline x="953.0" y="554.0" angle="90.0" identifier="b1mHk7wgTR"/>
  <guideline x="627.0" y="553.0" angle="90.0" identifier="m4aYe0x4PZ"/>
  <outline>
    <contour>
      <point x="946.6466666666666" y="500.0" type="line"/>
      <point x="948.6466666666666" y="83.0" type="line"/>
      <point x="1107.1" y="53.333333333333336" type="line"/>
      <point x="1107.1" y="0.0" type="line"/>
      <point x="664.4266666666666" y="0.0" type="line"/>
      <point x="664.4266666666666" y="53.333333333333336" type="line"/>
      <point x="839.4866666666667" y="83.0" type="line"/>
      <point x="841.3666666666667" y="500.0" type="line"/>
      <point x="839.4866666666667" y="917.0" type="line"/>
      <point x="685.6266666666667" y="946.6666666666666" type="line"/>
      <point x="685.6266666666667" y="1000.0" type="line"/>
      <point x="1107.1" y="1000.0" type="line"/>
      <point x="1107.1" y="946.6666666666666" type="line"/>
      <point x="948.6466666666666" y="917.0" type="line"/>
    </contour>
    <contour>
      <point x="209.06666666666666" y="708.66" type="qcurve" smooth="yes"/>
      <point x="207.85333333333335" y="917.0" type="line"/>
      <point x="49.4" y="946.6666666666666" type="line"/>
      <point x="49.4" y="1000.0" type="line"/>
      <point x="470.93333333333334" y="1000.0" type="line"/>
      <point x="470.93333333333334" y="946.6666666666666" type="line"/>
      <point x="317.0733333333333" y="917.0" type="line"/>
      <point x="316.1333333333333" y="708.54" type="line" smooth="yes"/>
      <point x="315.1933333333333" y="590.82"/>
      <point x="433.1666666666667" y="494.2"/>
      <point x="571.2" y="494.2" type="qcurve" smooth="yes"/>
      <point x="659.7666666666667" y="494.2"/>
      <point x="815.9266666666666" y="516.2066666666666"/>
      <point x="894.0066666666667" y="547.82" type="qcurve"/>
      <point x="894.0066666666667" y="478.1533333333333" type="line"/>
      <point x="816.3533333333334" y="449.48"/>
      <point x="660.4066666666666" y="420.8666666666667"/>
      <point x="554.5" y="420.8666666666667" type="qcurve" smooth="yes"/>
      <point x="379.14" y="420.8666666666667"/>
      <point x="210.28" y="559.0"/>
    </contour>
  </outline>
</glyph>
<glyph name="sha" format="2">
  <advance width="1806"/>
  <unicode hex="0448"/>
  <guideline x="302.0" y="625.0" angle="90.0" identifier="NJObwdl7Zg"/>
  <guideline x="953.0" y="554.0" angle="90.0" identifier="1530lh32tn"/>
  <guideline x="627.0" y="553.0" angle="90.0" identifier="24e3XVDPIE"/>
  <outline>
    <contour>
      <point x="1721.0333333333333" y="0.0" type="line"/>
      <point x="84.86666666666667" y="0.0" type="line"/>
      <point x="84.86666666666667" y="53.333333333333336" type="line"/>
      <point x="243.32" y="83.0" type="line"/>
      <point x="245.32" y="500.0" type="line"/>
      <point x="243.32" y="917.0" type="line"/>
      <point x="84.86666666666667" y="946.6666666666666" type="line"/>
      <point x="84.86666666666667" y="1000.0" type="line"/>
      <point x="499.7333333333333" y="1000.0" type="line"/>
      <point x="499.7333333333333" y="946.6666666666666" type="line"/>
      <point x="352.54" y="917.0" type="line"/>
      <point x="350.54" y="499.94" type="line"/>
      <point x="352.54" y="73.36666666666667" type="line"/>
      <point x="848.28" y="73.36666666666667" type="line"/>
      <point x="850.28" y="500.0" type="line"/>
      <point x="848.0066666666667" y="917.0" type="line"/>
      <point x="701.2066666666666" y="946.6666666666666" type="line"/>
      <point x="701.2066666666666" y="1000.0" type="line"/>
      <point x="1104.1466666666668" y="1000.0" type="line"/>
      <point x="1104.1466666666668" y="946.6666666666666" type="line"/>
      <point x="957.2266666666667" y="917.0" type="line"/>
      <point x="955.5" y="499.88" type="line"/>
      <point x="957.5" y="73.36666666666667" type="line"/>
      <point x="1453.36" y="73.36666666666667" type="line"/>
      <point x="1455.36" y="500.24" type="line"/>
      <point x="1453.36" y="917.0" type="line"/>
      <point x="1306.1666666666667" y="946.6666666666666" type="line"/>
      <point x="1306.1666666666667" y="1000.0" type="line"/>
      <point x="1721.0333333333333" y="1000.0" type="line"/>
      <point x="1721.0333333333333" y="946.6666666666666" type="line"/>
      <point x="1562.58" y="917.0" type="line"/>
      <point x="1560.58" y="500.0" type="line"/>
      <point x="1562.58" y="83.0" type="line"/>
      <point x="1721.0333333333333" y="53.333333333333336" type="line"/>
    </contour>
  </outline>
</glyph>
<glyph name="hard" format="2">
  <advance width="1187"/>
  <unicode hex="044A"/>
  <guideline x="302.0" y="625.0" angle="90.0" identifier="0glbwjr6f1"/>
  <guideline x="953.0" y="554.0" angle="90.0" identifier="41A0uQDzZV"/>
  <guideline x="627.0" y="553.0" angle="90.0" identifier="rA3XBl1QkZ"/>
  <guideline x="302.0" y="625.0" angle="90.0" identifier="9bXjTXCOsd"/>
  <guideline x="953.0" y="554.0" angle="90.0" identifier="70YHiu6Ygv"/>
  <guideline x="627.0" y="553.0" angle="90.0" identifier="lr0dX83lJL"/>
  <outline>
    <contour>
      <point x="437.75333333333333" y="925.9666666666666" type="line"/>
      <point x="172.99333333333334" y="925.9666666666666" type="line"/>
      <point x="127.12" y="714.0" type="line"/>
      <point x="58.2" y="714.0" type="line"/>
      <point x="58.2" y="1000.0" type="line"/>
      <point x="703.5066666666667" y="1000.0" type="line"/>
      <point x="703.5066666666667" y="946.6666666666666" type="line"/>
      <point x="546.9133333333334" y="917.0" type="line"/>
      <point x="545.0333333333334" y="500.0" type="line"/>
      <point x="546.9133333333334" y="73.36666666666667" type="line"/>
      <point x="768.6333333333333" y="73.36666666666667" type="line" smooth="yes"/>
      <point x="913.6533333333334" y="73.36666666666667"/>
      <point x="1022.3666666666668" y="210.54666666666665"/>
      <point x="1022.3666666666668" y="314.0" type="qcurve" smooth="yes"/>
      <point x="1022.3666666666668" y="410.6666666666667"/>
      <point x="913.6533333333334" y="536.0"/>
      <point x="768.6333333333333" y="536.0" type="qcurve" smooth="yes"/>
      <point x="492.3933333333333" y="536.0" type="line"/>
      <point x="492.3933333333333" y="607.3666666666667" type="line"/>
      <point x="773.3" y="607.3666666666667" type="line" smooth="yes"/>
      <point x="954.78" y="607.3666666666667"/>
      <point x="1142.02" y="448.88"/>
      <point x="1142.02" y="314.0" type="qcurve" smooth="yes"/>
      <point x="1142.02" y="172.0"/>
      <point x="954.78" y="0.0"/>
      <point x="773.3" y="0.0" type="qcurve" smooth="yes"/>
      <point x="279.3" y="0.0" type="line"/>
      <point x="279.3" y="53.333333333333336" type="line"/>
      <point x="437.75333333333333" y="83.0" type="line"/>
      <point x="439.75333333333333" y="500.0" type="line"/>
    </contour>
  </outline>
</glyph>
<glyph name="soft" format="2">
  <advance width="992"/>
  <unicode hex="044C"/>
  <guideline x="302.0" y="625.0" angle="90.0" identifier="A4qVwRmZ22"/>
  <guideline x="953.0" y="554.0" angle="90.0" identifier="h0tFJgBRAh"/>
  <guideline x="627.0" y="553.0" angle="90.0" identifier="x6MEKzPxp5"/>
  <guideline x="329.0" y="565.0" angle="0" identifier="Iz6BEWeM15"/>
  <outline>
    <contour>
      <point x="297.96" y="536.0" type="line"/>
      <point x="297.96" y="607.3666666666667" type="line"/>
      <point x="578.8666666666667" y="607.3666666666667" type="line" smooth="yes"/>
      <point x="760.3466666666666" y="607.3666666666667"/>
      <point x="947.5866666666666" y="448.88"/>
      <point x="947.5866666666666" y="314.0" type="qcurve" smooth="yes"/>
      <point x="947.5866666666666" y="172.0"/>
      <point x="760.3466666666666" y="0.0"/>
      <point x="578.8666666666667" y="0.0" type="qcurve" smooth="yes"/>
      <point x="84.86666666666667" y="0.0" type="line"/>
      <point x="84.86666666666667" y="53.333333333333336" type="line"/>
      <point x="243.32" y="83.0" type="line"/>
      <point x="245.32" y="500.0" type="line"/>
      <point x="243.32" y="917.0" type="line"/>
      <point x="84.86666666666667" y="946.6666666666666" type="line"/>
      <point x="84.86666666666667" y="1000.0" type="line"/>
      <point x="509.0733333333334" y="1000.0" type="line"/>
      <point x="509.0733333333334" y="946.6666666666666" type="line"/>
      <point x="352.48" y="917.0" type="line"/>
      <point x="350.6" y="500.0" type="line"/>
      <point x="352.48" y="73.36666666666667" type="line"/>
      <point x="574.2" y="73.36666666666667" type="line" smooth="yes"/>
      <point x="719.22" y="73.36666666666667"/>
      <point x="827.9333333333334" y="210.54666666666665"/>
      <point x="827.9333333333334" y="314.0" type="qcurve" smooth="yes"/>
      <point x="827.9333333333334" y="410.6666666666667"/>
      <point x="719.22" y="536.0"/>
      <point x="574.2" y="536.0" type="qcurve" smooth="yes"/>
    </contour>
  </outline>
</glyph>
<glyph name="ecyr" format="2">
  <advance width="1034"/>
  <unicode hex="044D"/>
  <guideline x="180.0" y="548.0" angle="90.0" identifier="n4jm0tBg3Y"/>
  <outline>
    <contour>
      <point x="910.3866666666667" y="540.66" type="line"/>
      <point x="910.3866666666667" y="469.3266666666667" type="line"/>
      <point x="376.9" y="467.3266666666667" type="line"/>
      <point x="376.9" y="543.66" type="line"/>
    </contour>
    <contour>
      <point x="502.4933333333334" y="-21.973333333333333" type="qcurve" smooth="yes"/>
      <point x="401.747126559" y="-22.6399957808"/>
      <point x="260.32851800553334" y="28.525753128666665"/>
      <point x="220.58666666666664" y="70.51333333333334" type="qcurve"/>
      <point x="186.1866666666667" y="-2.513333333333334" type="line"/>
      <point x="120.63333333333333" y="-2.513333333333334" type="line"/>
      <point x="120.33333333333333" y="324.76" type="line"/>
      <point x="189.28" y="324.76" type="line"/>
      <point x="200.4666666666667" y="274.0" type="line" smooth="yes"/>
      <point x="221.08" y="176.48"/>
      <point x="360.8933333333333" y="49.513333333333335"/>
      <point x="501.46" y="49.513333333333335" type="qcurve" smooth="yes"/>
      <point x="670.8536200716666" y="49.513333333333335"/>
      <point x="852.5333333333334" y="292.4"/>
      <point x="852.5333333333334" y="500.0" type="qcurve" smooth="yes"/>
      <point x="852.5333333333334" y="697.9666666666666"/>
      <point x="667.4233691756" y="947.3066666666666"/>
      <point x="508.71333333333337" y="947.3066666666666" type="qcurve" smooth="yes"/>
      <point x="394.25509433959996" y="947.3066666666666"/>
      <point x="241.65333333333334" y="837.2466666666667"/>
      <point x="218.70666666666668" y="731.18" type="qcurve" smooth="yes"/>
      <point x="208.18666666666667" y="684.42" type="line"/>
      <point x="139.24" y="684.42" type="line"/>
      <point x="139.54" y="1002.36" type="line"/>
      <point x="205.76" y="1002.36" type="line"/>
      <point x="231.49333333333334" y="932.0" type="line"/>
      <point x="268.38" y="969.1533333333334"/>
      <point x="416.8666666666667" y="1021.82"/>
      <point x="511.04" y="1021.82" type="qcurve" smooth="yes"/>
      <point x="730.64" y="1021.82"/>
      <point x="968.24" y="736.66"/>
      <point x="968.24" y="488.6666666666667" type="qcurve" smooth="yes"/>
      <point x="968.24" y="266.7333333333333"/>
      <point x="717.3933333333333" y="-20.64"/>
    </contour>
  </outline>
</glyph>
<glyph name="yi" format="2">
  <advance width="609"/>
  <unicode hex="0457"/>
  <outline>
    <contour>
      <point x="71.68666666666667" y="0.0" type="line"/>
      <point x="71.68666666666667" y="54.66666666666667" type="line"/>
      <point x="258.6933333333333" y="83.0" type="line"/>
      <point x="260.6933333333333" y="527.0" type="line"/>
      <point x="256.66" y="890.6666666666666" type="line"/>
      <point x="73.65333333333332" y="915.3333333333334" type="line"/>
      <point x="73.65333333333332" y="980.0" type="line"/>
      <point x="327.64" y="1002.0" type="line"/>
      <point x="353.9733333333333" y="1000.6666666666666" type="line"/>
      <point x="368.9733333333333" y="965.3" type="line"/>
      <point x="364.64" y="527.0" type="line"/>
      <point x="369.9733333333333" y="83.0" type="line"/>
      <point x="550.98" y="54.66666666666667" type="line"/>
      <point x="550.98" y="0.0" type="line"/>
    </contour>
    <contour>
      <point x="50.68666666666667" y="1324.28" type="qcurve" smooth="yes"/>
      <point x="50.68666666666667" y="1368.2533333333333"/>
      <point x="95.63333333333333" y="1415.8333333333333"/>
      <point x="139.97333333333333" y="1415.8333333333333" type="qcurve" smooth="yes"/>
      <point x="180.31333333333333" y="1415.8333333333333"/>
      <point x="229.26" y="1365.5866666666668"/>
      <point x="229.26" y="1324.28" type="qcurve" smooth="yes"/>
      <point x="229.26" y="1280.9733333333334"/>
      <point x="182.98" y="1233.3333333333333"/>
      <point x="139.97333333333333" y="1233.3333333333333" type="qcurve" smooth="yes"/>
      <point x="98.3" y="1233.3333333333333"/>
      <point x="50.68666666666667" y="1283.58"/>
    </contour>
    <contour>
      <point x="361.3533333333333" y="1324.28" type="qcurve" smooth="yes"/>
      <point x="361.3533333333333" y="1368.2533333333333"/>
      <point x="406.3" y="1415.8333333333333"/>
      <point x="450.64" y="1415.8333333333333" type="qcurve" smooth="yes"/>
      <point x="490.98" y="1415.8333333333333"/>
      <point x="539.9266666666666" y="1365.5866666666668"/>
      <point x="539.9266666666666" y="1324.28" type="qcurve" smooth="yes"/>
      <point x="539.9266666666666" y="1280.9733333333334"/>
      <point x="493.6466666666667" y="1233.3333333333333"/>
      <point x="450.64" y="1233.3333333333333" type="qcurve" smooth="yes"/>
      <point x="408.9666666666667" y="1233.3333333333333"/>
      <point x="361.3533333333333" y="1283.58"/>
    </contour>
  </outline>
</glyph>
<glyph name="lje" format="2">
  <advance width="1523"/>
  <unicode hex="0459"/>
  <guideline x="302.0" y="625.0" angle="90.0" identifier="jHuxcyi1x5"/>
  <guideline x="953.0" y="554.0" angle="90.0" identifier="b1mHk7wgTR"/>
  <guideline x="627.0" y="553.0" angle="90.0" identifier="m4aYe0x4PZ"/>
  <guideline x="302.0" y="625.0" angle="90.0" identifier="vLcWUVIRLn"/>
  <guideline x="953.0" y="554.0" angle="90.0" identifier="6dzOxXKOwA"/>
  <guideline x="627.0" y="553.0" angle="90.0" identifier="mJzxvRVyB1"/>
  <guideline x="863.18" y="572.36" angle="90.0" identifier="NbdfSyw2GO"/>
  <outline>
    <contour>
      <point x="773.88" y="925.9666666666666" type="line"/>
      <point x="776.1533333333334" y="500.0" type="line"/>
      <point x="774.1533333333334" y="83.0" type="line"/>
      <point x="615.7" y="53.333333333333336" type="line"/>
      <point x="615.7" y="0.0" type="line"/>
      <point x="1109.7" y="0.0" type="line" smooth="yes"/>
      <point x="1291.18" y="0.0"/>
      <point x="1478.42" y="172.0"/>
      <point x="1478.42" y="314.0" type="qcurve" smooth="yes"/>
      <point x="1478.42" y="448.88"/>
      <point x="1291.18" y="607.3666666666667"/>
      <point x="1109.7" y="607.3666666666667" type="qcurve" smooth="yes"/>
      <point x="828.7933333333334" y="607.3666666666667" type="line"/>
      <point x="828.7933333333334" y="536.0" type="line"/>
      <point x="1105.0333333333333" y="536.0" type="line" smooth="yes"/>
      <point x="1250.0533333333333" y="536.0"/>
      <point x="1358.7666666666667" y="410.6666666666667"/>
      <point x="1358.7666666666667" y="314.0" type="qcurve" smooth="yes"/>
      <point x="1358.7666666666667" y="210.54666666666665"/>
      <point x="1250.0533333333333" y="73.36666666666667"/>
      <point x="1105.0333333333333" y="73.36666666666667" type="qcurve" smooth="yes"/>
      <point x="883.3133333333334" y="73.36666666666667" type="line"/>
      <point x="881.4333333333334" y="500.0" type="line"/>
      <point x="883.3133333333334" y="917.0" type="line"/>
      <point x="1039.9066666666668" y="946.6666666666666" type="line"/>
      <point x="1039.9066666666668" y="1000.0" type="line"/>
      <point x="175.26" y="1000.0" type="line"/>
      <point x="175.26" y="946.6666666666666" type="line"/>
      <point x="330.98" y="917.0" type="line"/>
      <point x="291.3933333333333" y="454.0" type="line" smooth="yes"/>
      <point x="276.7171264002" y="284.1200864801333"/>
      <point x="196.04" y="105.0"/>
      <point x="116.96" y="105.0" type="qcurve" smooth="yes"/>
      <point x="101.9" y="105.0"/>
      <point x="70.62" y="109.39333333333335"/>
      <point x="48.8" y="116.33333333333334" type="qcurve"/>
      <point x="48.8" y="-2.0" type="line"/>
      <point x="70.98666666666666" y="-10.94"/>
      <point x="107.68" y="-17.0"/>
      <point x="128.5" y="-17.0" type="qcurve" smooth="yes"/>
      <point x="248.632459770114" y="-17.0"/>
      <point x="357.0266666666667" y="192.88666666666666"/>
      <point x="377.76" y="439.0" type="qcurve" smooth="yes"/>
      <point x="418.62" y="925.9666666666666" type="line"/>
    </contour>
  </outline>
</glyph>
<glyph name="Gheup" format="2">
  <advance width="1168"/>
  <unicode hex="0490"/>
  <outline>
    <contour>
      <point x="979.2133333333334" y="1500.0" type="line"/>
      <point x="1029.6733333333332" y="1828.0" type="line"/>
      <point x="1105.44" y="1828.0" type="line"/>
      <point x="1095.44" y="1422.6666666666667" type="line"/>
      <point x="441.7666666666667" y="1422.6666666666667" type="line"/>
      <point x="414.3066666666667" y="1398.6666666666667" type="line"/>
      <point x="411.64" y="756.0" type="line"/>
      <point x="414.3066666666667" y="99.21333333333334" type="line"/>
      <point x="662.1666666666666" y="65.09333333333335" type="line"/>
      <point x="662.1666666666666" y="0.0" type="line"/>
      <point x="83.24" y="0.0" type="line"/>
      <point x="83.24" y="65.09333333333335" type="line"/>
      <point x="301.5733333333333" y="100.64" type="line"/>
      <point x="303.5733333333333" y="755.64" type="line"/>
      <point x="301.5733333333333" y="1397.0266666666666" type="line"/>
      <point x="83.24" y="1431.0266666666666" type="line"/>
      <point x="83.24" y="1500.0" type="line"/>
    </contour>
  </outline>
</glyph>
<glyph name="zhedescender" format="2">
  <advance width="1583"/>
  <unicode hex="0497"/>
  <guideline x="241.0" y="553.0" angle="90.0" identifier="8KgqZm3A67"/>
  <outline>
    <contour>
      <point x="736.1933333333334" y="500.0" type="line"/>
      <point x="734.1933333333334" y="917.0" type="line"/>
      <point x="579.0866666666666" y="946.6666666666666" type="line"/>
      <point x="579.0866666666666" y="1000.0" type="line"/>
      <point x="998.58" y="1000.0" type="line"/>
      <point x="998.58" y="946.6666666666666" type="line"/>
      <point x="843.3533333333334" y="917.0" type="line"/>
      <point x="841.4733333333334" y="500.0" type="line"/>
      <point x="843.3533333333334" y="83.0" type="line"/>
      <point x="998.7333333333333" y="53.333333333333336" type="line"/>
      <point x="998.7333333333333" y="0.0" type="line"/>
      <point x="579.36" y="0.0" type="line"/>
      <point x="579.36" y="53.333333333333336" type="line"/>
      <point x="734.1933333333334" y="83.0" type="line"/>
    </contour>
    <contour>
      <point x="1021.6" y="484.62666666666667" type="line"/>
      <point x="1101.36" y="550.2266666666666" type="line"/>
      <point x="1469.4533333333331" y="53.366666666666674" type="line"/>
      <point x="1469.4533333333331" y="0.0" type="line"/>
      <point x="1311.54" y="0.0" type="line"/>
      <point x="1300.8733333333332" y="49.0" type="line"/>
      <point x="1331.08" y="69.66666666666667" type="line"/>
    </contour>
    <contour>
      <point x="788.8933333333333" y="547.42" type="line"/>
      <point x="1029.9933333333333" y="544.42" type="line"/>
      <point x="1308.5266666666666" y="915.3333333333334" type="line"/>
      <point x="1168.72" y="940.0" type="line"/>
      <point x="1168.72" y="1000.0" type="line"/>
      <point x="1559.86" y="1000.0" type="line"/>
      <point x="1559.86" y="940.0" type="line"/>
      <point x="1406.9333333333332" y="913.0" type="line"/>
      <point x="1054.96" y="473.6933333333333" type="line"/>
      <point x="788.8933333333333" y="471.75333333333333" type="line"/>
    </contour>
    <contour>
      <point x="556.0666666666666" y="484.62666666666667" type="line"/>
      <point x="246.4666666666667" y="69.66666666666667" type="line"/>
      <point x="276.6733333333333" y="49.0" type="line"/>
      <point x="266.00666666666666" y="0.0" type="line"/>
      <point x="-7.5" y="0.0" type="line"/>
      <point x="-7.5" y="53.333333333333336" type="line"/>
      <point x="135.4" y="83.0" type="line"/>
      <point x="481.61333333333334" y="550.2266666666666" type="line"/>
    </contour>
    <contour>
      <point x="788.8933333333333" y="547.42" type="line"/>
      <point x="788.8933333333333" y="471.75333333333333" type="line"/>
      <point x="512.6466666666666" y="473.6933333333333" type="line"/>
      <point x="160.67333333333335" y="913.0" type="line"/>
      <point x="8.166666666666668" y="940.0" type="line"/>
      <point x="8.166666666666668" y="1000.0" type="line"/>
      <point x="408.94666666666666" y="1000.0" type="line"/>
      <point x="408.94666666666666" y="940.0" type="line"/>
      <point x="269.14" y="915.3333333333334" type="line"/>
      <point x="547.6733333333334" y="544.42" type="line"/>
    </contour>
    <contour>
      <point x="1422.4266666666667" y="73.36666666666667" type="line"/>
      <point x="1573.78" y="73.36666666666667" type="line"/>
      <point x="1583.78" y="-318.0" type="line"/>
      <point x="1517.0466666666669" y="-318.0" type="line"/>
      <point x="1450.8933333333332" y="0.0" type="line"/>
    </contour>
  </outline>
</glyph>
<glyph name="Kadescender" format="2">
  <advance width="1435"/>
  <unicode hex="049A"/>
  <guideline x="480.0" y="796.0" angle="90.0" identifier="LxfLwWU0sJ"/>
  <outline>
    <contour>
      <point x="83.24" y="0.0" type="line"/>
      <point x="83.24" y="65.09333333333335" type="line"/>
      <point x="301.5733333333333" y="100.09333333333335" type="line"/>
      <point x="303.5733333333333" y="754.0" type="line"/>
      <point x="301.5733333333333" y="1397.0266666666666" type="line"/>
      <point x="83.24" y="1431.0266666666666" type="line"/>
      <point x="83.24" y="1500.0" type="line"/>
      <point x="635.9733333333334" y="1500.0" type="line"/>
      <point x="635.9733333333334" y="1431.0266666666666" type="line"/>
      <point x="414.3066666666667" y="1397.0266666666666" type="line"/>
      <point x="412.3066666666667" y="754.0" type="line"/>
      <point x="414.3066666666667" y="100.09333333333335" type="line"/>
      <point x="638.7066666666666" y="65.09333333333335" type="line"/>
      <point x="638.7066666666666" y="0.0" type="line"/>
    </contour>
    <contour>
      <point x="357.94" y="743.4533333333334" type="line"/>
      <point x="357.94" y="828.5466666666666" type="line"/>
      <point x="636.7733333333334" y="824.5466666666666" type="line"/>
      <point x="1083.5133333333333" y="1393.2" type="line"/>
      <point x="913.16" y="1431.0266666666666" type="line"/>
      <point x="913.16" y="1500.0" type="line"/>
      <point x="1385.7666666666667" y="1500.0" type="line"/>
      <point x="1385.7666666666667" y="1431.0266666666666" type="line"/>
      <point x="1198.9466666666667" y="1393.2" type="line"/>
      <point x="702.5" y="778.8933333333333" type="line"/>
      <point x="671.0" y="741.4533333333334" type="line"/>
    </contour>
    <contour>
      <point x="635.6933333333334" y="747.6133333333333" type="line"/>
      <point x="707.5733333333334" y="821.7266666666666" type="line"/>
      <point x="1315.2" y="60.66666666666667" type="line"/>
      <point x="1315.2" y="0.0" type="line"/>
      <point x="960.5466666666666" y="0.0" type="line"/>
      <point x="960.5466666666666" y="65.09333333333335" type="line"/>
      <point x="1153.4866666666667" y="100.03333333333335" type="line"/>
    </contour>
    <contour>
      <point x="1236.2733333333333" y="74.0" type="line"/>
      <point x="1434.6466666666668" y="74.0" type="line"/>
      <point x="1444.6466666666668" y="-338.0" type="line"/>
      <point x="1368.88" y="-338.0" type="line"/>
      <point x="1304.48" y="0.0" type="line"/>
      <point x="1236.2733333333333" y="0.0" type="line"/>
    </contour>
  </outline>
</glyph>
<glyph name="kaverticalstrokecyr" format="2">
  <advance width="1206"/>
  <unicode hex="049D"/>
  <guideline x="241.0" y="553.0" angle="90.0" identifier="lmgRx0QBdK"/>
  <outline>
    <contour>
      <point x="586.72" y="227.0" type="line"/>
      <point x="511.08" y="227.0" type="line"/>
      <point x="511.08" y="792.0" type="line"/>
      <point x="586.72" y="792.0" type="line"/>
    </contour>
    <contour>
      <point x="245.32" y="500.0" type="line"/>
      <point x="243.32" y="917.0" type="line"/>
      <point x="84.86666666666667" y="946.6666666666666" type="line"/>
      <point x="84.86666666666667" y="1000.0" type="line"/>
      <point x="506.4" y="1000.0" type="line"/>
      <point x="506.4" y="946.6666666666666" type="line"/>
      <point x="352.54" y="917.0" type="line"/>
      <point x="350.66" y="500.0" type="line"/>
      <point x="352.54" y="83.0" type="line"/>
      <point x="506.4" y="53.333333333333336" type="line"/>
      <point x="506.4" y="0.0" type="line"/>
      <point x="84.86666666666667" y="0.0" type="line"/>
      <point x="84.86666666666667" y="53.333333333333336" type="line"/>
      <point x="243.32" y="83.0" type="line"/>
    </contour>
    <contour>
      <point x="663.5266666666666" y="484.9" type="line"/>
      <point x="740.9466666666666" y="550.2266666666666" type="line"/>
      <point x="1075.6666666666667" y="83.0" type="line"/>
      <point x="1215.26" y="53.333333333333336" type="line"/>
      <point x="1215.26" y="0.0" type="line"/>
      <point x="939.7533333333333" y="0.0" type="line"/>
      <point x="929.0866666666666" y="49.0" type="line"/>
      <point x="959.2933333333334" y="69.66666666666667" type="line"/>
    </contour>
    <contour>
      <point x="548.9" y="547.1466666666666" type="line"/>
      <point x="671.1" y="544.42" type="line"/>
      <point x="932.3666666666667" y="915.3333333333334" type="line"/>
      <point x="789.8266666666666" y="940.0" type="line"/>
      <point x="789.8266666666666" y="1000.0" type="line"/>
      <point x="1186.4333333333332" y="1000.0" type="line"/>
      <point x="1186.4333333333332" y="940.0" type="line"/>
      <point x="1030.7733333333333" y="913.0" type="line"/>
      <point x="696.0666666666666" y="473.6933333333333" type="line"/>
      <point x="548.9" y="471.75333333333333" type="line"/>
    </contour>
  </outline>
</glyph>
<glyph name="tedescender-cy" format="2">
  <advance width="1027"/>
  <unicode hex="04AD"/>
  <guideline x="302.0" y="625.0" angle="90.0" identifier="0glbwjr6f1"/>
  <guideline x="953.0" y="554.0" angle="90.0" identifier="41A0uQDzZV"/>
  <guideline x="627.0" y="553.0" angle="90.0" identifier="rA3XBl1QkZ"/>
  <outline>
    <contour>
      <point x="568.5533333333334" y="73.36666666666667" type="line"/>
      <point x="767.62" y="73.36666666666667" type="line"/>
      <point x="777.62" y="-318.0" type="line"/>
      <point x="710.8866666666667" y="-318.0" type="line"/>
      <point x="644.7333333333333" y="0.0" type="line"/>
      <point x="293.94" y="0.0" type="line"/>
      <point x="293.94" y="53.333333333333336" type="line"/>
      <point x="459.06" y="83.0" type="line"/>
      <point x="461.12" y="500.06" type="line"/>
      <point x="459.06" y="925.9666666666666" type="line"/>
      <point x="172.99333333333334" y="925.9666666666666" type="line"/>
      <point x="127.12" y="714.0" type="line"/>
      <point x="58.2" y="714.0" type="line"/>
      <point x="58.2" y="1000.0" type="line"/>
      <point x="969.14" y="1000.0" type="line"/>
      <point x="969.14" y="714.0" type="line"/>
      <point x="900.22" y="714.0" type="line"/>
      <point x="854.3466666666666" y="925.9666666666666" type="line"/>
      <point x="568.28" y="925.9666666666666" type="line"/>
      <point x="566.28" y="500.0" type="line"/>
    </contour>
  </outline>
</glyph>
<glyph name="obarcyr" format="2">
  <advance width="1145"/>
  <unicode hex="04E9"/>
  <guideline x="585.0" y="692.0" angle="90.0" identifier="TW15yk9ONy"/>
  <outline>
    <contour>
      <point x="65.82666666666667" y="500.0" type="qcurve" smooth="yes"/>
      <point x="65.82666666666667" y="717.6"/>
      <point x="342.92" y="1021.82"/>
      <point x="570.48" y="1021.82" type="qcurve" smooth="yes"/>
      <point x="801.04" y="1021.82"/>
      <point x="1078.7133333333334" y="737.6"/>
      <point x="1078.7133333333334" y="506.0" type="qcurve" smooth="yes"/>
      <point x="1078.7133333333334" y="289.4"/>
      <point x="803.68" y="-21.7"/>
      <point x="576.12" y="-21.7" type="qcurve" smooth="yes"/>
      <point x="347.62" y="-21.7"/>
      <point x="65.82666666666667" y="266.4"/>
    </contour>
    <contour>
      <point x="180.95333333333335" y="522.0" type="qcurve" smooth="yes"/>
      <point x="181.95333339440666" y="323.0666546673533"/>
      <point x="395.197937892214" y="49.513333333333335"/>
      <point x="570.6" y="49.513333333333335" type="qcurve" smooth="yes"/>
      <point x="759.0366464851667" y="49.513333333333335"/>
      <point x="963.3133333333334" y="299.06666666666666"/>
      <point x="963.3133333333334" y="506.6666666666667" type="qcurve" smooth="yes"/>
      <point x="963.3133333333334" y="697.9333333333334"/>
      <point x="749.744857364842" y="943.2733333333334"/>
      <point x="572.48" y="943.2733333333334" type="qcurve" smooth="yes"/>
      <point x="381.6766359851026" y="943.2733333333334"/>
      <point x="179.95333327161734" y="719.2666787022426"/>
    </contour>
    <contour>
      <point x="123.52666666666667" y="548.4266666666666" type="line"/>
      <point x="570.42" y="545.4266666666666" type="line"/>
      <point x="1021.0133333333332" y="548.4266666666666" type="line"/>
      <point x="1021.0133333333332" y="473.4266666666667" type="line"/>
      <point x="570.42" y="475.4266666666667" type="line"/>
      <point x="123.52666666666667" y="473.4266666666667" type="line"/>
    </contour>
  </outline>
</glyph>
<glyph name="Hastroke-cy" format="2">
  <advance width="1345"/>
  <unicode hex="04FE"/>
  <outline>
    <contour>
      <point x="255.88666666666668" y="758.82" type="line"/>
      <point x="255.88666666666668" y="850.1666666666666" type="line"/>
      <point x="659.2" y="847.3466666666666" type="line"/>
      <point x="1052.2133333333334" y="850.1666666666666" type="line"/>
      <point x="1052.2133333333334" y="758.82" type="line"/>
      <point x="650.4" y="761.64" type="line"/>
    </contour>
    <contour>
      <point x="-37.953333333333326" y="0.0" type="line"/>
      <point x="-38.07333333333333" y="65.15333333333334" type="line"/>
      <point x="151.40666666666667" y="100.82" type="line"/>
      <point x="627.9133333333334" y="837.4266666666666" type="line"/>
      <point x="634.1466666666666" y="834.8133333333334" type="line"/>
      <point x="994.2466666666667" y="1400.12" type="line"/>
      <point x="794.5466666666666" y="1431.0266666666666" type="line"/>
      <point x="794.5466666666666" y="1500.0" type="line"/>
      <point x="1295.8866666666668" y="1500.0" type="line"/>
      <point x="1295.8866666666668" y="1431.0266666666666" type="line"/>
      <point x="1097.92" y="1397.8466666666668" type="line"/>
      <point x="683.52" y="767.22" type="line"/>
      <point x="678.0733333333334" y="769.8333333333334" type="line"/>
      <point x="255.80666666666667" y="98.54666666666667" type="line"/>
      <point x="453.2733333333333" y="65.15333333333334" type="line"/>
      <point x="453.2733333333333" y="0.0" type="line"/>
    </contour>
    <contour>
      <point x="7.513333333333335" y="1431.0266666666666" type="line"/>
      <point x="7.513333333333335" y="1500.0" type="line"/>
      <point x="537.5266666666666" y="1500.0" type="line"/>
      <point x="537.5266666666666" y="1431.0266666666666" type="line"/>
      <point x="328.06" y="1397.24" type="line"/>
      <point x="691.86" y="835.1133333333333" type="line"/>
      <point x="1183.4666666666667" y="100.09333333333335" type="line"/>
      <point x="1388.82" y="65.15333333333334" type="line"/>
      <point x="1388.82" y="0.0" type="line"/>
      <point x="847.36" y="0.0" type="line"/>
      <point x="847.36" y="65.15333333333334" type="line"/>
      <point x="1053.7266666666667" y="100.09333333333335" type="line"/>
      <point x="618.06" y="766.26" type="line"/>
      <point x="199.59333333333333" y="1397.8466666666668" type="line"/>
    </contour>
  </outline>
</glyph>
<glyph name="quotedblright" format="2">
  <advance width="903"/>
  <unicode hex="201D"/>
  <outline>
    <contour>
      <point x="178.79333333333335" y="1145.6666666666667" type="line"/>
      <point x="221.4" y="1179.5466666666669"/>
      <point x="300.44" y="1277.86"/>
      <point x="315.9866666666667" y="1336.8666666666668" type="qcurve"/>
      <point x="253.5266666666667" y="1331.1066666666668"/>
      <point x="191.76" y="1388.72"/>
      <point x="191.76" y="1434.0266666666666" type="qcurve" smooth="yes"/>
      <point x="191.76" y="1478.3333333333333"/>
      <point x="251.61333333333334" y="1538.0"/>
      <point x="298.1333333333333" y="1538.0" type="qcurve" smooth="yes"/>
      <point x="342.1066666666667" y="1538.0"/>
      <point x="407.5733333333333" y="1473.68"/>
      <point x="407.5733333333333" y="1417.8266666666668" type="qcurve" smooth="yes"/>
      <point x="407.5733333333333" y="1324.6066666666668"/>
      <point x="283.8333333333333" y="1163.3933333333332"/>
      <point x="202.58" y="1115.94" type="qcurve"/>
    </contour>
    <contour>
      <point x="516.6066666666667" y="1145.6666666666667" type="line"/>
      <point x="559.2133333333334" y="1179.5466666666669"/>
      <point x="638.2533333333333" y="1277.86"/>
      <point x="653.8" y="1336.8666666666668" type="qcurve"/>
      <point x="591.34" y="1331.1066666666668"/>
      <point x="529.5733333333334" y="1388.72"/>
      <point x="529.5733333333334" y="1434.0266666666666" type="qcurve" smooth="yes"/>
      <point x="529.5733333333334" y="1478.3333333333333"/>
      <point x="589.4266666666666" y="1538.0"/>
      <point x="635.9466666666666" y="1538.0" type="qcurve" smooth="yes"/>
      <point x="679.92" y="1538.0"/>
      <point x="745.3866666666668" y="1473.68"/>
      <point x="745.3866666666668" y="1417.8266666666668" type="qcurve" smooth="yes"/>
      <point x="745.3866666666668" y="1324.6066666666668"/>
      <point x="621.6466666666666" y="1163.3933333333332"/>
      <point x="540.3933333333333" y="1115.94" type="qcurve"/>
    </contour>
  </outline>
</glyph>
<glyph name="dagger" format="2">
  <advance width="947"/>
  <unicode hex="2020"/>
  <outline>
    <contour>
      <point x="466.0" y="-540.0" type="line"/>
      <point x="411.3333333333333" y="-58.0" type="line"/>
      <point x="428.6666666666667" y="550.0" type="line"/>
      <point x="426.6666666666667" y="830.6" type="line"/>
      <point x="408.0" y="1458.0" type="line"/>
      <point x="433.3333333333333" y="1505.0" type="line"/>
      <point x="508.0" y="1505.94" type="line"/>
      <point x="530.6666666666666" y="1458.0" type="line"/>
      <point x="513.3333333333334" y="830.6" type="line"/>
      <point x="515.3333333333334" y="550.0" type="line"/>
      <point x="530.6666666666666" y="-58.0" type="line"/>
      <point x="486.0" y="-540.0" type="line"/>
    </contour>
    <contour>
      <point x="71.4" y="877.9333333333334" type="line"/>
      <point x="71.4" y="974.6666666666666" type="line"/>
      <point x="472.0" y="966.6666666666666" type="line"/>
      <point x="875.9333333333334" y="974.6666666666666" type="line"/>
      <point x="875.9333333333334" y="877.9333333333334" type="line"/>
      <point x="472.0" y="882.1133333333333" type="line"/>
    </contour>
  </outline>
</glyph>
<glyph name="second" format="2">
  <advance width="869"/>
  <unicode hex="2033"/>
  <outline>
    <contour>
      <point x="142.95333333333335" y="996.08" type="line"/>
      <point x="360.06666666666666" y="1429.54" type="line" smooth="yes"/>
      <point x="388.94666666666666" y="1485.9533333333331"/>
      <point x="452.06666666666666" y="1533.3066666666668"/>
      <point x="489.06666666666666" y="1512.2733333333333" type="qcurve" smooth="yes"/>
      <point x="524.46" y="1492.4533333333331"/>
      <point x="512.2266666666666" y="1414.5133333333333"/>
      <point x="482.4666666666667" y="1374.2733333333333" type="qcurve" smooth="yes"/>
      <point x="192.06666666666666" y="987.6066666666667" type="line"/>
    </contour>
    <contour>
      <point x="440.7533333333334" y="996.08" type="line"/>
      <point x="657.8666666666667" y="1429.54" type="line" smooth="yes"/>
      <point x="686.7466666666667" y="1485.9533333333331"/>
      <point x="749.8666666666667" y="1533.3066666666668"/>
      <point x="786.8666666666667" y="1512.2733333333333" type="qcurve" smooth="yes"/>
      <point x="822.26" y="1492.4533333333331"/>
      <point x="810.0266666666668" y="1414.5133333333333"/>
      <point x="780.2666666666668" y="1374.2733333333333" type="qcurve" smooth="yes"/>
      <point x="489.8666666666667" y="987.6066666666667" type="line"/>
    </contour>
  </outline>
</glyph>
<glyph name="guilsinglright" format="2">
  <advance width="837"/>
  <unicode hex="203A"/>
  <outline>
    <contour>
      <point x="765.7666666666667" y="588.5466666666666" type="line"/>
      <point x="694.54" y="540.8466666666666"/>
      <point x="216.99333333333334" y="225.16666666666666"/>
      <point x="152.86666666666665" y="187.07333333333335" type="qcurve" smooth="yes"/>
      <point x="98.31333333333333" y="154.82666666666665"/>
      <point x="50.35333333333333" y="222.86"/>
      <point x="103.33333333333333" y="260.0133333333333" type="qcurve" smooth="yes"/>
      <point x="173.31333333333333" y="309.3466666666667"/>
      <point x="584.06" y="582.22"/>
      <point x="612.96" y="601.84" type="qcurve"/>
      <point x="582.48" y="623.0466666666666"/>
      <point x="178.16" y="899.2"/>
      <point x="111.75333333333333" y="944.1733333333334" type="qcurve" smooth="yes"/>
      <point x="49.59333333333333" y="985.3266666666666"/>
      <point x="94.59333333333333" y="1060.7"/>
      <point x="159.96666666666667" y="1018.64" type="qcurve" smooth="yes"/>
      <point x="219.00666666666666" y="980.7"/>
      <point x="706.7" y="660.8533333333334"/>
      <point x="765.7666666666667" y="621.64" type="qcurve"/>
    </contour>
  </outline>
</glyph>
<glyph name="fraction" format="2">
  <advance width="446"/>
  <unicode hex="2044"/>
  <outline>
    <contour>
      <point x="-380.6666666666667" y="25.0" type="line"/>
      <point x="757.5333333333334" y="1529.0" type="line"/>
      <point x="826.2" y="1476.6666666666667" type="line"/>
      <point x="-312.0" y="-27.333333333333336" type="line"/>
    </contour>
  </outline>
</glyph>
<glyph name="commercialMinusSign" format="2">
  <advance width="847"/>
  <unicode hex="2052"/>
  <outline>
    <contour>
      <point x="85.46666666666665" y="-9.333333333333332" type="line"/>
      <point x="668.1333333333333" y="1530.6666666666667" type="line"/>
      <point x="759.8" y="1502.3333333333333" type="line"/>
      <point x="177.13333333333335" y="-37.666666666666664" type="line"/>
    </contour>
    <contour>
      <point x="526.56" y="87.24666666666667" type="qcurve" smooth="yes"/>
      <point x="526.56" y="130.4"/>
      <point x="587.32" y="194.16"/>
      <point x="634.8066666666666" y="194.16" type="qcurve" smooth="yes"/>
      <point x="682.2933333333334" y="194.16"/>
      <point x="743.0533333333334" y="130.4"/>
      <point x="743.0533333333334" y="87.24666666666667" type="qcurve" smooth="yes"/>
      <point x="743.0533333333334" y="44.42666666666667"/>
      <point x="682.2933333333334" y="-19.333333333333332"/>
      <point x="634.8066666666666" y="-19.333333333333332" type="qcurve" smooth="yes"/>
      <point x="587.32" y="-19.333333333333332"/>
      <point x="526.56" y="44.42666666666667"/>
    </contour>
    <contour>
      <point x="142.95333333333332" y="1411.0866666666668" type="qcurve" smooth="yes"/>
      <point x="142.95333333333332" y="1454.24"/>
      <point x="203.71333333333334" y="1518.0"/>
      <point x="251.2" y="1518.0" type="qcurve" smooth="yes"/>
      <point x="298.68666666666667" y="1518.0"/>
      <point x="359.44666666666666" y="1454.24"/>
      <point x="359.44666666666666" y="1411.0866666666668" type="qcurve" smooth="yes"/>
      <point x="359.44666666666666" y="1368.2666666666667"/>
      <point x="298.68666666666667" y="1304.5066666666667"/>
      <point x="251.2" y="1304.5066666666667" type="qcurve" smooth="yes"/>
      <point x="203.71333333333334" y="1304.5066666666667"/>
      <point x="142.95333333333332" y="1368.2666666666667"/>
    </contour>
  </outline>
</glyph>
<glyph name="colonsign" format="2">
  <advance width="1182"/>
  <unicode hex="20A1"/>
  <outline>
    <contour>
      <point x="89.89333333333335" y="711.0" type="qcurve" smooth="yes"/>
      <point x="89.89333333333335" y="1014.56"/>
      <point x="405.58" y="1448.0"/>
      <point x="680.4266666666666" y="1448.0" type="qcurve" smooth="yes"/>
      <point x="886.2466666666667" y="1448.0"/>
      <point x="1112.0533333333333" y="1209.0"/>
      <point x="1118.9333333333332" y="993.0" type="qcurve"/>
      <point x="1034.8666666666668" y="993.0" type="line"/>
      <point x="1026.0466666666669" y="1154.6666666666667"/>
      <point x="868.2" y="1371.6666666666667"/>
      <point x="673.0" y="1371.6666666666667" type="qcurve" smooth="yes"/>
      <point x="460.9" y="1371.6666666666667"/>
      <point x="200.0266666666667" y="1009.0"/>
      <point x="200.69333333333336" y="728.0" type="qcurve" smooth="yes"/>
      <point x="201.3" y="436.3333333333333"/>
      <point x="474.66" y="108.4"/>
      <point x="674.0" y="108.4" type="qcurve" smooth="yes"/>
      <point x="817.36" y="108.4"/>
      <point x="1018.2933333333333" y="216.0066666666667"/>
      <point x="1081.3333333333333" y="311.0" type="qcurve"/>
      <point x="1137.3733333333332" y="257.0" type="line"/>
      <point x="1064.6933333333332" y="147.92"/>
      <point x="835.0" y="18.0"/>
      <point x="678.88" y="18.0" type="qcurve" smooth="yes"/>
      <point x="397.5466666666667" y="18.0"/>
      <point x="89.89333333333335" y="414.0"/>
    </contour>
    <contour>
      <point x="458.78" y="-131.0" type="line"/>
      <point x="514.4866666666667" y="88.33333333333333" type="line"/>
      <point x="519.2466666666667" y="86.0" type="line"/>
      <point x="705.8533333333334" y="843.6666666666666" type="line"/>
      <point x="773.8066666666667" y="789.3333333333334" type="line"/>
      <point x="595.3533333333334" y="59.0" type="line"/>
      <point x="600.78" y="56.666666666666664" type="line"/>
      <point x="556.2266666666667" y="-120.33333333333334" type="line"/>
    </contour>
    <contour>
      <point x="874.76" y="1560.3333333333333" type="line"/>
      <point x="969.54" y="1560.3333333333333" type="line"/>
      <point x="920.44" y="1362.6666666666667" type="line"/>
      <point x="914.68" y="1364.0" type="line"/>
      <point x="773.8066666666667" y="789.3333333333334" type="line"/>
      <point x="705.8533333333334" y="843.6666666666666" type="line"/>
      <point x="839.24" y="1391.3333333333333" type="line"/>
      <point x="833.1466666666666" y="1393.6666666666667" type="line"/>
    </contour>
    <contour>
      <point x="249.09333333333333" y="-63.0" type="line"/>
      <point x="314.7133333333333" y="191.0" type="line"/>
      <point x="319.5333333333333" y="188.66666666666669" type="line"/>
      <point x="481.0733333333333" y="843.6666666666666" type="line"/>
      <point x="549.0266666666666" y="789.3333333333334" type="line"/>
      <point x="395.64" y="161.66666666666669" type="line"/>
      <point x="401.06666666666666" y="159.33333333333334" type="line"/>
      <point x="346.54" y="-52.333333333333336" type="line"/>
    </contour>
    <contour>
      <point x="649.98" y="1560.3333333333333" type="line"/>
      <point x="744.76" y="1560.3333333333333" type="line"/>
      <point x="703.2066666666666" y="1395.3333333333333" type="line"/>
      <point x="697.4466666666666" y="1396.6666666666667" type="line"/>
      <point x="549.0266666666666" y="789.3333333333334" type="line"/>
      <point x="481.0733333333333" y="843.6666666666666" type="line"/>
      <point x="619.46" y="1414.0" type="line"/>
      <point x="613.3666666666667" y="1416.3333333333333" type="line"/>
    </contour>
  </outline>
</glyph>
<glyph name="franc" format="2">
  <advance width="1037"/>
  <unicode hex="20A3"/>
  <outline>
    <contour>
      <point x="53.39333333333334" y="0.0" type="line"/>
      <point x="53.39333333333334" y="65.09333333333335" type="line"/>
      <point x="272.3933333333333" y="95.97333333333334" type="line"/>
      <point x="273.7266666666667" y="761.64" type="line"/>
      <point x="272.3933333333333" y="1400.36" type="line"/>
      <point x="53.39333333333334" y="1431.0266666666666" type="line"/>
      <point x="53.39333333333334" y="1500.0" type="line"/>
      <point x="971.9333333333334" y="1500.0" type="line"/>
      <point x="991.9333333333334" y="1150.0" type="line"/>
      <point x="919.2666666666667" y="1150.0" type="line"/>
      <point x="865.6" y="1422.6666666666667" type="line"/>
      <point x="411.06666666666666" y="1422.6666666666667" type="line"/>
      <point x="383.06666666666666" y="1398.6666666666667" type="line"/>
      <point x="381.73333333333335" y="766.0" type="line"/>
      <point x="383.06666666666666" y="94.54666666666667" type="line"/>
      <point x="632.32" y="65.09333333333335" type="line"/>
      <point x="632.32" y="0.0" type="line"/>
    </contour>
    <contour>
      <point x="327.06666666666666" y="739.0" type="line"/>
      <point x="327.06666666666666" y="809.0" type="line"/>
      <point x="770.9333333333334" y="812.0" type="line"/>
      <point x="801.9333333333334" y="985.3333333333334" type="line"/>
      <point x="874.0" y="985.3333333333334" type="line"/>
      <point x="874.0" y="550.6666666666666" type="line"/>
      <point x="801.9333333333334" y="550.6666666666666" type="line"/>
      <point x="770.9333333333334" y="736.6666666666666" type="line"/>
    </contour>
    <contour>
      <point x="45.93333333333334" y="351.0" type="line"/>
      <point x="26.6" y="427.6666666666667" type="line"/>
      <point x="735.9333333333334" y="427.6666666666667" type="line"/>
      <point x="714.6" y="351.0" type="line"/>
    </contour>
  </outline>
</glyph>
<glyph name="kip" format="2">
  <advance width="1282"/>
  <unicode hex="20AD"/>
  <outline>
    <contour>
      <point x="85.1" y="0.0" type="line"/>
      <point x="85.1" y="65.09333333333335" type="line"/>
      <point x="285.3666666666667" y="95.42666666666668" type="line"/>
      <point x="287.3666666666667" y="754.0" type="line"/>
      <point x="285.3666666666667" y="1400.36" type="line"/>
      <point x="85.1" y="1431.0266666666666" type="line"/>
      <point x="85.1" y="1500.0" type="line"/>
      <point x="592.9066666666666" y="1500.0" type="line"/>
      <point x="592.9066666666666" y="1431.0266666666666" type="line"/>
      <point x="392.7066666666667" y="1400.36" type="line"/>
      <point x="390.7066666666667" y="754.0" type="line"/>
      <point x="392.7066666666667" y="95.42666666666668" type="line"/>
      <point x="595.64" y="65.09333333333335" type="line"/>
      <point x="595.64" y="0.0" type="line"/>
    </contour>
    <contour>
      <point x="346.58" y="534.4733333333334" type="line"/>
      <point x="343.44666666666666" y="632.4666666666666" type="line"/>
      <point x="986.8466666666666" y="1396.5333333333333" type="line"/>
      <point x="829.82" y="1431.0266666666666" type="line"/>
      <point x="829.82" y="1500.0" type="line"/>
      <point x="1261.6333333333332" y="1500.0" type="line"/>
      <point x="1261.6333333333332" y="1431.0266666666666" type="line"/>
      <point x="1092.9466666666667" y="1396.5333333333333" type="line"/>
      <point x="612.5733333333334" y="835.4666666666666" type="line"/>
      <point x="586.2333333333333" y="817.0666666666666" type="line"/>
    </contour>
    <contour>
      <point x="546.5533333333334" y="823.28" type="line"/>
      <point x="613.2466666666667" y="905.6066666666667" type="line"/>
      <point x="1174.2" y="95.36666666666667" type="line"/>
      <point x="1344.2466666666667" y="65.09333333333335" type="line"/>
      <point x="1344.2466666666667" y="0.0" type="line"/>
      <point x="872.28" y="0.0" type="line"/>
      <point x="872.28" y="65.09333333333335" type="line"/>
      <point x="1045.7533333333333" y="95.36666666666667" type="line"/>
    </contour>
    <contour>
      <point x="1188.4" y="790.9333333333334" type="line"/>
      <point x="889.0" y="790.9333333333334" type="line"/>
      <point x="889.0" y="799.0" type="line"/>
      <point x="604.6666666666666" y="799.0" type="line"/>
      <point x="567.6666666666666" y="873.6666666666666" type="line"/>
      <point x="869.6666666666666" y="873.6666666666666" type="line"/>
      <point x="869.6666666666666" y="879.4" type="line"/>
      <point x="1156.7" y="879.4" type="line"/>
    </contour>
    <contour>
      <point x="85.82666666666665" y="790.9333333333334" type="line"/>
      <point x="61.126666666666665" y="879.0666666666666" type="line"/>
      <point x="331.0" y="879.0666666666666" type="line"/>
      <point x="331.0" y="873.6666666666666" type="line"/>
      <point x="567.6666666666666" y="873.6666666666666" type="line"/>
      <point x="604.6666666666666" y="799.0" type="line"/>
      <point x="339.0" y="799.0" type="line"/>
      <point x="339.0" y="790.9333333333334" type="line"/>
    </contour>
  </outline>
</glyph>
<glyph name="cedi" format="2">
  <advance width="1182"/>
  <unicode hex="20B5"/>
  <outline>
    <contour>
      <point x="89.89333333333335" y="711.0" type="qcurve" smooth="yes"/>
      <point x="89.89333333333335" y="1014.56"/>
      <point x="405.58" y="1448.0"/>
      <point x="680.4266666666666" y="1448.0" type="qcurve" smooth="yes"/>
      <point x="886.2466666666667" y="1448.0"/>
      <point x="1112.0533333333333" y="1209.0"/>
      <point x="1118.9333333333332" y="993.0" type="qcurve"/>
      <point x="1034.8666666666668" y="993.0" type="line"/>
      <point x="1026.0466666666669" y="1154.6666666666667"/>
      <point x="868.2" y="1371.6666666666667"/>
      <point x="673.0" y="1371.6666666666667" type="qcurve" smooth="yes"/>
      <point x="460.9" y="1371.6666666666667"/>
      <point x="200.0266666666667" y="1009.0"/>
      <point x="200.69333333333336" y="728.0" type="qcurve" smooth="yes"/>
      <point x="201.3" y="436.3333333333333"/>
      <point x="474.66" y="108.4"/>
      <point x="674.0" y="108.4" type="qcurve" smooth="yes"/>
      <point x="817.36" y="108.4"/>
      <point x="1018.2933333333333" y="216.0066666666667"/>
      <point x="1081.3333333333333" y="311.0" type="qcurve"/>
      <point x="1137.3733333333332" y="257.0" type="line"/>
      <point x="1064.6933333333332" y="147.92"/>
      <point x="835.0" y="18.0"/>
      <point x="678.88" y="18.0" type="qcurve" smooth="yes"/>
      <point x="397.5466666666667" y="18.0"/>
      <point x="89.89333333333335" y="414.0"/>
    </contour>
    <contour>
      <point x="356.53333333333336" y="-129.38" type="line"/>
      <point x="415.3866666666667" y="100.98" type="line"/>
      <point x="422.6933333333334" y="98.64666666666668" type="line"/>
      <point x="607.7133333333334" y="846.0666666666666" type="line"/>
      <point x="676.0866666666666" y="791.7933333333334" type="line"/>
      <point x="499.4" y="71.64666666666668" type="line"/>
      <point x="507.3133333333334" y="69.37333333333333" type="line"/>
      <point x="459.67333333333335" y="-118.65333333333334" type="line"/>
    </contour>
    <contour>
      <point x="775.0933333333334" y="1563.3933333333332" type="line"/>
      <point x="875.5666666666666" y="1563.3933333333332" type="line"/>
      <point x="833.2333333333333" y="1395.9333333333332" type="line"/>
      <point x="824.9266666666666" y="1397.2666666666667" type="line"/>
      <point x="676.0866666666666" y="791.7933333333334" type="line"/>
      <point x="607.7133333333334" y="846.0666666666666" type="line"/>
      <point x="748.9466666666666" y="1424.54" type="line"/>
      <point x="740.3666666666667" y="1426.8733333333332" type="line"/>
    </contour>
  </outline>
</glyph>
<glyph name="liraTurkish" format="2">
  <advance width="1100"/>
  <unicode hex="20BA"/>
  <outline>
    <contour>
      <point x="297.4666666666667" y="-29.0" type="line"/>
      <point x="255.8" y="24.333333333333336" type="line"/>
      <point x="291.4666666666667" y="85.33333333333334" type="line"/>
      <point x="298.1333333333333" y="624.0" type="line"/>
      <point x="290.1333333333333" y="1404.0" type="line"/>
      <point x="110.8" y="1426.0" type="line"/>
      <point x="110.8" y="1500.0" type="line"/>
      <point x="344.8" y="1503.0" type="line"/>
      <point x="625.9333333333334" y="1514.1866666666667" type="line"/>
      <point x="638.9333333333334" y="1441.8533333333332" type="line"/>
      <point x="402.1333333333334" y="1402.0" type="line"/>
      <point x="396.8" y="686.0" type="line"/>
      <point x="399.8" y="99.0" type="line"/>
      <point x="426.4666666666667" y="78.66666666666667" type="line"/>
      <point x="601.1333333333333" y="119.0"/>
      <point x="897.2066666666666" y="304.6666666666667"/>
      <point x="934.1533333333334" y="479.44" type="qcurve" smooth="yes"/>
      <point x="974.8533333333334" y="659.0733333333334" type="line"/>
      <point x="1051.22" y="659.0733333333334" type="line"/>
      <point x="1006.8866666666667" y="342.4066666666667" type="line"/>
      <point x="894.9666666666666" y="195.25333333333333"/>
      <point x="569.8" y="19.94"/>
      <point x="414.6" y="-8.0" type="qcurve" smooth="yes"/>
    </contour>
    <contour>
      <point x="110.0" y="505.9666666666667" type="line"/>
      <point x="88.0" y="592.6666666666666" type="line"/>
      <point x="358.4666666666667" y="694.6666666666666" type="line"/>
      <point x="358.4666666666667" y="691.3333333333334" type="line"/>
      <point x="724.8" y="841.1333333333333" type="line"/>
      <point x="717.1333333333333" y="744.4333333333334" type="line"/>
      <point x="357.4666666666667" y="609.6333333333333" type="line"/>
      <point x="357.4666666666667" y="606.9666666666666" type="line"/>
    </contour>
    <contour>
      <point x="124.0" y="799.0" type="line"/>
      <point x="102.0" y="886.4" type="line"/>
      <point x="366.1333333333333" y="987.98" type="line"/>
      <point x="366.1333333333333" y="985.58" type="line"/>
      <point x="774.8666666666667" y="1142.8666666666668" type="line"/>
      <point x="765.8666666666667" y="1044.8" type="line"/>
      <point x="365.1333333333333" y="902.0" type="line"/>
      <point x="365.1333333333333" y="900.0" type="line"/>
    </contour>
  </outline>
</glyph>
<glyph name="bulletoperator" format="2">
  <advance width="1024"/>
  <unicode hex="2219"/>
  <outline>
    <contour>
      <point x="404.5933333333333" y="659.9866666666667" type="qcurve" smooth="yes"/>
      <point x="404.5933333333333" y="702.78"/>
      <point x="464.87333333333333" y="766.0"/>
      <point x="511.94" y="766.0" type="qcurve" smooth="yes"/>
      <point x="559.0666666666666" y="766.0"/>
      <point x="619.3466666666666" y="702.78"/>
      <point x="619.3466666666666" y="659.9866666666667" type="qcurve" smooth="yes"/>
      <point x="619.3466666666666" y="617.4666666666666"/>
      <point x="559.0666666666666" y="554.2466666666667"/>
      <point x="511.94" y="554.2466666666667" type="qcurve" smooth="yes"/>
      <point x="464.87333333333333" y="554.2466666666667"/>
      <point x="404.5933333333333" y="617.4666666666666"/>
    </contour>
  </outline>
</glyph>
<glyph name="lessequal" format="2">
  <advance width="987"/>
  <unicode hex="2264"/>
  <outline>
    <contour>
      <point x="137.43333333333334" y="43.906666666666666" type="line"/>
      <point x="137.43333333333334" y="140.16" type="line"/>
      <point x="860.5266666666666" y="140.16" type="line"/>
      <point x="860.5266666666666" y="43.906666666666666" type="line"/>
    </contour>
    <contour>
      <point x="167.73333333333335" y="673.24" type="qcurve"/>
      <point x="167.91333333333336" y="673.48"/>
      <point x="638.3266666666666" y="1029.9133333333332"/>
      <point x="709.3333333333334" y="1086.2466666666667" type="qcurve" smooth="yes"/>
      <point x="748.6133333333333" y="1116.9133333333332"/>
      <point x="797.0066666666667" y="1054.6333333333332"/>
      <point x="759.5466666666666" y="1021.9066666666666" type="qcurve" smooth="yes"/>
      <point x="624.1466666666666" y="908.52"/>
      <point x="328.7533333333334" y="680.9933333333333"/>
      <point x="309.24666666666667" y="673.2666666666667" type="qcurve"/>
      <point x="327.53333333333336" y="665.36"/>
      <point x="626.2133333333334" y="437.88"/>
      <point x="758.76" y="323.34" type="qcurve"/>
      <point x="796.22" y="290.46"/>
      <point x="749.4" y="228.76"/>
      <point x="709.7866666666666" y="258.82" type="qcurve" smooth="yes"/>
      <point x="639.0533333333334" y="315.6666666666667"/>
      <point x="167.85333333333335" y="673.06"/>
    </contour>
  </outline>
</glyph>
<glyph name="f_f" format="2">
  <advance width="1195"/>
  <unicode hex="FB00"/>
  <outline>
    <contour>
      <point x="51.333333333333336" y="0.0" type="line"/>
      <point x="51.333333333333336" y="53.333333333333336" type="line"/>
      <point x="243.0" y="83.0" type="line"/>
      <point x="247.0" y="527.0" type="line"/>
      <point x="246.0" y="899.1466666666666" type="line"/>
      <point x="64.85333333333332" y="914.06" type="line"/>
      <point x="59.03333333333334" y="974.0" type="line"/>
      <point x="247.33333333333334" y="988.6666666666666" type="line"/>
      <point x="247.88" y="1251.7866666666666" type="line" smooth="yes"/>
      <point x="248.76" y="1361.2933333333333"/>
      <point x="377.26" y="1483.8733333333332"/>
      <point x="464.2266666666667" y="1483.8733333333332" type="qcurve" smooth="yes"/>
      <point x="503.08" y="1483.8733333333332"/>
      <point x="574.6333333333333" y="1464.36"/>
      <point x="599.5733333333334" y="1449.5466666666669" type="qcurve" smooth="yes"/>
      <point x="614.7933333333334" y="1441.82" type="line"/>
      <point x="602.1266666666667" y="1375.7266666666667" type="line"/>
      <point x="586.6933333333334" y="1381.2133333333334" type="line" smooth="yes"/>
      <point x="568.9333333333334" y="1388.2133333333334"/>
      <point x="517.9666666666666" y="1398.12"/>
      <point x="488.24" y="1398.12" type="qcurve" smooth="yes"/>
      <point x="419.14" y="1398.12"/>
      <point x="349.3066666666667" y="1312.2933333333333"/>
      <point x="349.58" y="1234.84" type="qcurve" smooth="yes"/>
      <point x="350.12666666666667" y="985.0" type="line"/>
      <point x="837.3866666666667" y="985.0" type="line"/>
      <point x="837.9333333333334" y="1319.9933333333333" type="line" smooth="yes"/>
      <point x="838.2666666666667" y="1410.26"/>
      <point x="947.0133333333333" y="1520.5266666666666"/>
      <point x="1033.98" y="1520.5266666666666" type="qcurve" smooth="yes"/>
      <point x="1070.5933333333332" y="1520.5266666666666"/>
      <point x="1135.2933333333333" y="1503.4066666666668"/>
      <point x="1159.2" y="1488.7133333333334" type="qcurve" smooth="yes"/>
      <point x="1175.8466666666668" y="1481.1066666666668" type="line"/>
      <point x="1163.18" y="1414.9533333333331" type="line"/>
      <point x="1148.02" y="1419.7733333333333" type="line" smooth="yes"/>
      <point x="1129.9866666666667" y="1426.38"/>
      <point x="1090.2866666666666" y="1434.6533333333332"/>
      <point x="1062.2266666666667" y="1434.6533333333332" type="qcurve" smooth="yes"/>
      <point x="997.2266666666667" y="1434.6533333333332"/>
      <point x="939.6333333333333" y="1363.4466666666667"/>
      <point x="939.6333333333333" y="1299.1133333333332" type="qcurve" smooth="yes"/>
      <point x="940.18" y="985.0" type="line"/>
      <point x="1163.9466666666667" y="985.0" type="line"/>
      <point x="1163.9466666666667" y="910.46" type="line"/>
      <point x="940.18" y="907.4533333333334" type="line"/>
      <point x="940.18" y="527.0" type="line"/>
      <point x="947.0933333333334" y="83.0" type="line"/>
      <point x="1152.6133333333332" y="53.333333333333336" type="line"/>
      <point x="1152.6133333333332" y="0.0" type="line"/>
      <point x="650.16" y="0.0" type="line"/>
      <point x="650.16" y="53.333333333333336" type="line"/>
      <point x="833.0533333333334" y="83.0" type="line"/>
      <point x="837.0533333333334" y="527.0" type="line"/>
      <point x="836.0533333333334" y="897.1466666666666" type="line"/>
      <point x="824.36" y="907.7266666666666" type="line"/>
      <point x="350.12666666666667" y="908.82" type="line"/>
      <point x="350.12666666666667" y="527.0" type="line"/>
      <point x="357.04" y="83.0" type="line"/>
      <point x="542.0133333333333" y="53.333333333333336" type="line"/>
      <point x="542.0133333333333" y="0.0" type="line"/>
    </contour>
  </outline>
</glyph>
<glyph name="fl" format="2">
  <advance width="1188"/>
  <unicode hex="FB02"/>
  <outline>
    <contour>
      <point x="51.333333333333336" y="0.0" type="line"/>
      <point x="51.333333333333336" y="53.333333333333336" type="line"/>
      <point x="243.0" y="83.0" type="line"/>
      <point x="247.0" y="527.0" type="line"/>
      <point x="246.0" y="899.1466666666666" type="line"/>
      <point x="64.85333333333332" y="914.06" type="line"/>
      <point x="59.03333333333334" y="974.0" type="line"/>
      <point x="247.33333333333334" y="988.6666666666666" type="line"/>
      <point x="247.88" y="1276.66" type="line" smooth="yes"/>
      <point x="248.21333333333334" y="1391.5933333333332"/>
      <point x="382.2266666666667" y="1518.5266666666666"/>
      <point x="484.5266666666667" y="1518.5266666666666" type="qcurve" smooth="yes"/>
      <point x="506.56" y="1518.5266666666666"/>
      <point x="564.1466666666666" y="1512.5266666666666"/>
      <point x="588.48" y="1505.5" type="qcurve" smooth="yes"/>
      <point x="628.3333333333334" y="1494.7066666666667" type="line"/>
      <point x="911.3133333333334" y="1517.3333333333333" type="line"/>
      <point x="933.3466666666666" y="1513.4533333333331" type="line"/>
      <point x="947.3133333333334" y="1489.06" type="line"/>
      <point x="945.98" y="527.0" type="line"/>
      <point x="949.98" y="83.0" type="line"/>
      <point x="1126.2533333333333" y="55.333333333333336" type="line"/>
      <point x="1126.2533333333333" y="0.0" type="line"/>
      <point x="660.16" y="0.0" type="line"/>
      <point x="660.16" y="55.333333333333336" type="line"/>
      <point x="838.7" y="83.0" type="line"/>
      <point x="841.4266666666666" y="527.0" type="line"/>
      <point x="840.0333333333334" y="1407.2733333333333" type="line"/>
      <point x="599.7733333333334" y="1430.8066666666668" type="line" smooth="yes"/>
      <point x="586.0133333333333" y="1432.4133333333332"/>
      <point x="539.02" y="1434.6533333333332"/>
      <point x="508.84" y="1434.6533333333332" type="qcurve" smooth="yes"/>
      <point x="427.7733333333333" y="1434.6533333333332"/>
      <point x="349.58" y="1343.4466666666667"/>
      <point x="349.58" y="1259.1133333333332" type="qcurve" smooth="yes"/>
      <point x="350.12666666666667" y="985.0" type="line"/>
      <point x="591.22" y="985.0" type="line"/>
      <point x="591.22" y="910.82" type="line"/>
      <point x="350.12666666666667" y="907.4533333333334" type="line"/>
      <point x="350.12666666666667" y="527.0" type="line"/>
      <point x="357.04" y="83.0" type="line"/>
      <point x="544.74" y="53.333333333333336" type="line"/>
      <point x="544.74" y="0.0" type="line"/>
    </contour>
  </outline>
</glyph>
<glyph name="breve.cyr.case" format="2">
  <advance width="1024"/>
  <outline>
    <contour>
      <point x="512.0" y="1705.12" type="qcurve" smooth="yes"/>
      <point x="606.575783926228" y="1705.12"/>
      <point x="723.8305288537521" y="1799.4880855425874"/>
      <point x="754.76" y="1913.0" type="qcurve"/>
      <point x="872.1733333333334" y="1846.36" type="line"/>
      <point x="825.0950549354893" y="1733.1513599606592"/>
      <point x="635.2560862354813" y="1624.9866666666667"/>
      <point x="512.0" y="1624.9866666666667" type="qcurve" smooth="yes"/>
      <point x="388.7439137645187" y="1624.9866666666667"/>
      <point x="197.92666666666665" y="1732.1733333333332"/>
      <point x="151.82666666666665" y="1846.36" type="qcurve"/>
      <point x="269.24" y="1913.0" type="line"/>
      <point x="299.898462907034" y="1800.4875219116786"/>
      <point x="417.424216073772" y="1705.12"/>
    </contour>
  </outline>
</glyph>
<glyph name="caroncomb.alt" format="2">
  <advance width="1024"/>
  <outline>
    <contour>
      <point x="416.93333333333334" y="1086.04" type="line"/>
      <point x="491.6666666666667" y="1398.6" type="line" smooth="yes"/>
      <point x="505.94" y="1458.9666666666667"/>
      <point x="550.3333333333334" y="1520.0"/>
      <point x="580.1533333333334" y="1520.0" type="qcurve" smooth="yes"/>
      <point x="608.64" y="1520.0"/>
      <point x="639.0666666666666" y="1491.5133333333333"/>
      <point x="639.0666666666666" y="1463.6933333333332" type="qcurve" smooth="yes"/>
      <point x="639.0666666666666" y="1436.0533333333333"/>
      <point x="615.6133333333333" y="1372.1133333333332"/>
      <point x="597.0066666666667" y="1334.2933333333333" type="qcurve" smooth="yes"/>
      <point x="468.5733333333333" y="1068.16" type="line"/>
    </contour>
  </outline>
</glyph>
<glyph name="circumflexcombstack.case" format="2">
  <advance width="1024"/>
  <outline>
    <contour>
      <point x="512.0" y="1904.3333333333333" type="qcurve" smooth="yes"/>
      <point x="539.3333333333334" y="1904.3333333333333"/>
      <point x="573.3333333333334" y="1875.6666666666667"/>
      <point x="608.6666666666666" y="1837.3333333333333" type="qcurve" smooth="yes"/>
      <point x="798.3333333333334" y="1635.0" type="line"/>
      <point x="755.6666666666666" y="1589.0" type="line"/>
      <point x="512.0" y="1779.6666666666667" type="line"/>
      <point x="270.3333333333333" y="1591.3333333333333" type="line"/>
      <point x="225.66666666666666" y="1635.0" type="line"/>
      <point x="415.3333333333333" y="1837.3333333333333" type="line" smooth="yes"/>
      <point x="458.6666666666667" y="1883.6666666666667"/>
      <point x="484.6666666666667" y="1904.3333333333333"/>
    </contour>
  </outline>
</glyph>
<glyph name="de.bgr" format="2">
  <advance width="1151"/>
  <outline>
    <contour>
      <point x="185.59333333333333" y="504.3333333333333" type="qcurve" smooth="yes"/>
      <point x="185.59333333333333" y="294.0"/>
      <point x="372.1333333333333" y="70.33333333333334"/>
      <point x="527.7333333333333" y="70.33333333333334" type="qcurve" smooth="yes"/>
      <point x="636.1866666666666" y="70.33333333333334"/>
      <point x="795.1733333333334" y="161.95333333333335"/>
      <point x="839.0066666666667" y="229.02" type="qcurve"/>
      <point x="839.6733333333334" y="831.3" type="line"/>
      <point x="800.24" y="889.4133333333334"/>
      <point x="651.9266666666666" y="960.7"/>
      <point x="548.1333333333333" y="960.7" type="qcurve" smooth="yes"/>
      <point x="382.8333333333333" y="960.7"/>
      <point x="185.59333333333333" y="707.3333333333334"/>
    </contour>
    <contour>
      <point x="836.7333333333333" y="-13.32" type="qcurve" smooth="yes"/>
      <point x="838.6733333333334" y="148.96" type="line"/>
      <point x="791.7133333333334" y="81.16"/>
      <point x="621.06" y="-14.333333333333332"/>
      <point x="503.3066666666666" y="-14.333333333333332" type="qcurve" smooth="yes"/>
      <point x="314.68" y="-14.333333333333332"/>
      <point x="67.04" y="254.66666666666666"/>
      <point x="67.04" y="486.6666666666667" type="qcurve" smooth="yes"/>
      <point x="67.04" y="733.3866666666667"/>
      <point x="329.18" y="1029.7"/>
      <point x="542.9466666666666" y="1029.7" type="qcurve" smooth="yes"/>
      <point x="643.42" y="1029.7"/>
      <point x="802.6533333333334" y="971.3666666666667"/>
      <point x="844.9066666666666" y="928.1" type="qcurve"/>
      <point x="880.3333333333334" y="1015.76" type="line"/>
      <point x="1129.8" y="992.5066666666667" type="line"/>
      <point x="1129.8" y="929.9333333333334" type="line"/>
      <point x="945.5" y="906.6666666666666" type="line"/>
      <point x="941.9533333333334" y="432.6666666666667" type="line"/>
      <point x="943.5" y="-19.553333333333327" type="line" smooth="yes"/>
      <point x="944.7377462387774" y="-282.38664195727466"/>
      <point x="721.948" y="-511.28"/>
      <point x="529.2066666666666" y="-512.6133333333333" type="qcurve" smooth="yes"/>
      <point x="426.47777777776736" y="-513.28"/>
      <point x="284.7733333333333" y="-457.43333333333334"/>
      <point x="242.06" y="-414.12666666666667" type="qcurve"/>
      <point x="207.66" y="-493.1533333333333" type="line"/>
      <point x="142.10666666666665" y="-493.1533333333333" type="line"/>
      <point x="141.80666666666664" y="-161.94666666666666" type="line"/>
      <point x="210.75333333333333" y="-161.94666666666666" type="line"/>
      <point x="221.94" y="-212.70666666666665" type="line" smooth="yes"/>
      <point x="242.570634453906" y="-310.411425041224"/>
      <point x="384.93566265060866" y="-440.7666666666667"/>
      <point x="528.3333333333334" y="-440.7666666666667" type="qcurve" smooth="yes"/>
      <point x="671.5617427214639" y="-440.7666666666667"/>
      <point x="833.8565863524574" y="-251.779998825776"/>
    </contour>
  </outline>
</glyph>
<glyph name="diagonalbarl" format="2">
  <advance width="636"/>
  <outline>
    <contour>
      <point x="293.3" y="789.7933333333334" type="line"/>
      <point x="584.2" y="1019.0" type="line"/>
      <point x="633.24" y="932.1333333333333" type="line"/>
      <point x="341.64" y="717.2066666666666" type="line"/>
      <point x="69.13333333333334" y="500.12" type="line"/>
      <point x="18.093333333333334" y="589.2" type="line"/>
    </contour>
  </outline>
</glyph>
